M48
; DRILL file {KiCad (6.0.8)} date Fri Aug 18 13:44:15 2023
; FORMAT={3:3/ absolute / metric / keep zeros}
; #@! TF.CreationDate,2023-08-18T13:44:15+09:00
; #@! TF.GenerationSoftware,Kicad,Pcbnew,(6.0.8)
; #@! TF.FileFunction,MixedPlating,1,2
FMAT,2
METRIC
; #@! TA.AperFunction,Plated,PTH,ComponentDrill
T1C1.000
; #@! TA.AperFunction,Plated,PTH,ComponentDrill
T2C1.200
; #@! TA.AperFunction,NonPlated,NPTH,ComponentDrill
T3C3.200
%
G90
G05
T1
X017220Y080000
X019760Y080000
X022300Y080000
X022460Y050000
X022460Y047460
X022460Y044920
X022460Y042380
X022460Y039840
X022460Y037300
X022460Y034760
X022460Y032220
X022460Y029680
X022460Y027140
X022460Y024600
X022460Y022060
X022460Y019520
X022460Y016980
X022460Y014440
X022460Y011900
X024840Y080000
X025000Y050000
X025000Y047460
X025000Y044920
X025000Y042380
X025000Y039840
X025000Y037300
X025000Y034760
X025000Y032220
X025000Y029680
X025000Y027140
X025000Y024600
X025000Y022060
X025000Y019520
X025000Y016980
X025000Y014440
X025000Y011900
X027380Y080000
X029920Y080000
X032460Y080000
X035000Y080000
X052220Y080000
X054760Y080000
X057300Y080000
X057460Y050000
X057460Y047460
X057460Y044920
X057460Y042380
X057460Y039840
X057460Y037300
X057460Y034760
X057460Y032220
X057460Y029680
X057460Y027140
X057460Y024600
X057460Y022060
X057460Y019520
X057460Y016980
X057460Y014440
X057460Y011900
X059840Y080000
X060000Y050000
X060000Y047460
X060000Y044920
X060000Y042380
X060000Y039840
X060000Y037300
X060000Y034760
X060000Y032220
X060000Y029680
X060000Y027140
X060000Y024600
X060000Y022060
X060000Y019520
X060000Y016980
X060000Y014440
X060000Y011900
X062380Y080000
X064920Y080000
X067460Y080000
X070000Y080000
X087220Y080000
X089760Y080000
X092300Y080000
X092460Y050000
X092460Y047460
X092460Y044920
X092460Y042380
X092460Y039840
X092460Y037300
X092460Y034760
X092460Y032220
X092460Y029680
X092460Y027140
X092460Y024600
X092460Y022060
X092460Y019520
X092460Y016980
X092460Y014440
X092460Y011900
X094840Y080000
X095000Y050000
X095000Y047460
X095000Y044920
X095000Y042380
X095000Y039840
X095000Y037300
X095000Y034760
X095000Y032220
X095000Y029680
X095000Y027140
X095000Y024600
X095000Y022060
X095000Y019520
X095000Y016980
X095000Y014440
X095000Y011900
X097380Y080000
X099920Y080000
X102460Y080000
X105000Y080000
X126095Y079975
X127460Y050000
X127460Y047460
X127460Y044920
X127460Y042380
X127460Y039840
X127460Y037300
X127460Y034760
X127460Y032220
X127460Y029680
X127460Y027140
X127460Y024600
X127460Y022060
X127460Y019520
X127460Y016980
X127460Y014440
X127460Y011900
X128635Y079975
X130000Y050000
X130000Y047460
X130000Y044920
X130000Y042380
X130000Y039840
X130000Y037300
X130000Y034760
X130000Y032220
X130000Y029680
X130000Y027140
X130000Y024600
X130000Y022060
X130000Y019520
X130000Y016980
X130000Y014440
X130000Y011900
X131175Y079975
X133715Y079975
X136255Y079975
X138795Y079975
X141335Y079975
X143875Y079975
T2
X005000Y025000
X005000Y020000
T3
X005000Y095000
X005000Y005000
X145000Y095000
X145000Y005000
T0
M30
