%TF.GenerationSoftware,KiCad,Pcbnew,(6.0.8)*%
%TF.CreationDate,2023-08-19T09:56:35+09:00*%
%TF.ProjectId,tnagi,746e6167-692e-46b6-9963-61645f706362,rev?*%
%TF.SameCoordinates,PX32de760PY8eeaea0*%
%TF.FileFunction,Copper,L2,Bot*%
%TF.FilePolarity,Positive*%
%FSLAX46Y46*%
G04 Gerber Fmt 4.6, Leading zero omitted, Abs format (unit mm)*
G04 Created by KiCad (PCBNEW (6.0.8)) date 2023-08-19 09:56:35*
%MOMM*%
%LPD*%
G01*
G04 APERTURE LIST*
%TA.AperFunction,ComponentPad*%
%ADD10R,1.600000X1.600000*%
%TD*%
%TA.AperFunction,ComponentPad*%
%ADD11O,1.600000X1.600000*%
%TD*%
%TA.AperFunction,ComponentPad*%
%ADD12R,1.700000X1.700000*%
%TD*%
%TA.AperFunction,ComponentPad*%
%ADD13O,1.700000X1.700000*%
%TD*%
%TA.AperFunction,ComponentPad*%
%ADD14C,1.600000*%
%TD*%
%TA.AperFunction,ComponentPad*%
%ADD15R,2.000000X2.000000*%
%TD*%
%TA.AperFunction,ComponentPad*%
%ADD16C,2.000000*%
%TD*%
%TA.AperFunction,ComponentPad*%
%ADD17R,2.000000X1.905000*%
%TD*%
%TA.AperFunction,ComponentPad*%
%ADD18O,2.000000X1.905000*%
%TD*%
%TA.AperFunction,Conductor*%
%ADD19C,2.000000*%
%TD*%
G04 APERTURE END LIST*
D10*
%TO.P,U10,1*%
%TO.N,Net-(R11-Pad2)*%
X25908000Y41910000D03*
D11*
%TO.P,U10,2*%
%TO.N,GND*%
X25908000Y39370000D03*
%TO.P,U10,3*%
%TO.N,1PWMout*%
X33528000Y39370000D03*
%TO.P,U10,4*%
%TO.N,PSB*%
X33528000Y41910000D03*
%TD*%
D12*
%TO.P,J4,1,Pin_1*%
%TO.N,Aout*%
X43678000Y64765000D03*
D13*
%TO.P,J4,2,Pin_2*%
%TO.N,Bout*%
X43678000Y62225000D03*
%TO.P,J4,3,Pin_3*%
%TO.N,PWMout*%
X43678000Y59685000D03*
%TO.P,J4,4,Pin_4*%
%TO.N,PSB*%
X43678000Y57145000D03*
%TO.P,J4,5,Pin_5*%
%TO.N,GNDPWR*%
X43678000Y54605000D03*
%TD*%
D10*
%TO.P,U6,1*%
%TO.N,Net-(R7-Pad2)*%
X25908000Y16510000D03*
D11*
%TO.P,U6,2*%
%TO.N,GND*%
X25908000Y13970000D03*
%TO.P,U6,3*%
%TO.N,3Bout*%
X33528000Y13970000D03*
%TO.P,U6,4*%
%TO.N,PSB*%
X33528000Y16510000D03*
%TD*%
D14*
%TO.P,R7,1*%
%TO.N,3B*%
X10658000Y16505000D03*
D11*
%TO.P,R7,2*%
%TO.N,Net-(R7-Pad2)*%
X20818000Y16505000D03*
%TD*%
D14*
%TO.P,R10,1*%
%TO.N,1B*%
X10658000Y46985000D03*
D11*
%TO.P,R10,2*%
%TO.N,Net-(R10-Pad2)*%
X20818000Y46985000D03*
%TD*%
D10*
%TO.P,U13,1*%
%TO.N,Net-(R14-Pad2)*%
X25908000Y26670000D03*
D11*
%TO.P,U13,2*%
%TO.N,GND*%
X25908000Y24130000D03*
%TO.P,U13,3*%
%TO.N,2PWMout*%
X33528000Y24130000D03*
%TO.P,U13,4*%
%TO.N,PSB*%
X33528000Y26670000D03*
%TD*%
D14*
%TO.P,R12,1*%
%TO.N,2A*%
X10658000Y36825000D03*
D11*
%TO.P,R12,2*%
%TO.N,Net-(R12-Pad2)*%
X20818000Y36825000D03*
%TD*%
D12*
%TO.P,J7,1,Pin_1*%
%TO.N,3Aout*%
X43703000Y19015000D03*
D13*
%TO.P,J7,2,Pin_2*%
%TO.N,3Bout*%
X43703000Y16475000D03*
%TO.P,J7,3,Pin_3*%
%TO.N,3PWMout*%
X43703000Y13935000D03*
%TO.P,J7,4,Pin_4*%
%TO.N,PSB*%
X43703000Y11395000D03*
%TO.P,J7,5,Pin_5*%
%TO.N,GNDPWR*%
X43703000Y8855000D03*
%TD*%
D15*
%TO.P,C3,1*%
%TO.N,+12V*%
X56214000Y61976000D03*
D16*
%TO.P,C3,2*%
%TO.N,GNDPWR*%
X61214000Y61976000D03*
%TD*%
D14*
%TO.P,C4,1*%
%TO.N,+12V*%
X56335677Y71628000D03*
%TO.P,C4,2*%
%TO.N,GNDPWR*%
X61335677Y71628000D03*
%TD*%
%TO.P,R9,1*%
%TO.N,1A*%
X10658000Y52065000D03*
D11*
%TO.P,R9,2*%
%TO.N,Net-(R9-Pad2)*%
X20818000Y52065000D03*
%TD*%
D14*
%TO.P,R8,1*%
%TO.N,3PWM*%
X10658000Y11425000D03*
D11*
%TO.P,R8,2*%
%TO.N,Net-(R8-Pad2)*%
X20818000Y11425000D03*
%TD*%
D12*
%TO.P,J6,1,Pin_1*%
%TO.N,3A*%
X5578000Y19045000D03*
D13*
%TO.P,J6,2,Pin_2*%
%TO.N,3B*%
X5578000Y16505000D03*
%TO.P,J6,3,Pin_3*%
%TO.N,3PWM*%
X5578000Y13965000D03*
%TD*%
D14*
%TO.P,R1,1*%
%TO.N,PSB*%
X33528000Y73660000D03*
D11*
%TO.P,R1,2*%
%TO.N,+12V*%
X43688000Y73660000D03*
%TD*%
D10*
%TO.P,U8,1*%
%TO.N,Net-(R9-Pad2)*%
X25908000Y52070000D03*
D11*
%TO.P,U8,2*%
%TO.N,GND*%
X25908000Y49530000D03*
%TO.P,U8,3*%
%TO.N,1Aout*%
X33528000Y49530000D03*
%TO.P,U8,4*%
%TO.N,PSB*%
X33528000Y52070000D03*
%TD*%
D14*
%TO.P,R4,1*%
%TO.N,B*%
X10658000Y62225000D03*
D11*
%TO.P,R4,2*%
%TO.N,Net-(R4-Pad2)*%
X20818000Y62225000D03*
%TD*%
D14*
%TO.P,R5,1*%
%TO.N,PWM*%
X10658000Y57145000D03*
D11*
%TO.P,R5,2*%
%TO.N,Net-(R5-Pad2)*%
X20818000Y57145000D03*
%TD*%
D14*
%TO.P,R6,1*%
%TO.N,3A*%
X10658000Y21585000D03*
D11*
%TO.P,R6,2*%
%TO.N,Net-(R6-Pad2)*%
X20818000Y21585000D03*
%TD*%
D15*
%TO.P,C2,1*%
%TO.N,+24V*%
X56560323Y30480000D03*
D16*
%TO.P,C2,2*%
%TO.N,GNDPWR*%
X61560323Y30480000D03*
%TD*%
D12*
%TO.P,J9,1,Pin_1*%
%TO.N,1Aout*%
X43703000Y49525000D03*
D13*
%TO.P,J9,2,Pin_2*%
%TO.N,1Bout*%
X43703000Y46985000D03*
%TO.P,J9,3,Pin_3*%
%TO.N,1PWMout*%
X43703000Y44445000D03*
%TO.P,J9,4,Pin_4*%
%TO.N,PSB*%
X43703000Y41905000D03*
%TO.P,J9,5,Pin_5*%
%TO.N,GNDPWR*%
X43703000Y39365000D03*
%TD*%
D10*
%TO.P,U9,1*%
%TO.N,Net-(R10-Pad2)*%
X25908000Y46990000D03*
D11*
%TO.P,U9,2*%
%TO.N,GND*%
X25908000Y44450000D03*
%TO.P,U9,3*%
%TO.N,1Bout*%
X33528000Y44450000D03*
%TO.P,U9,4*%
%TO.N,PSB*%
X33528000Y46990000D03*
%TD*%
D14*
%TO.P,C1,1*%
%TO.N,+24V*%
X56682000Y20574000D03*
%TO.P,C1,2*%
%TO.N,GNDPWR*%
X61682000Y20574000D03*
%TD*%
%TO.P,R2,1*%
%TO.N,GNDPWR*%
X48260000Y60960000D03*
D11*
%TO.P,R2,2*%
%TO.N,PSB*%
X48260000Y71120000D03*
%TD*%
D14*
%TO.P,R14,1*%
%TO.N,2PWM*%
X10658000Y26665000D03*
D11*
%TO.P,R14,2*%
%TO.N,Net-(R14-Pad2)*%
X20818000Y26665000D03*
%TD*%
D10*
%TO.P,U5,1*%
%TO.N,Net-(R6-Pad2)*%
X25908000Y21590000D03*
D11*
%TO.P,U5,2*%
%TO.N,GND*%
X25908000Y19050000D03*
%TO.P,U5,3*%
%TO.N,3Aout*%
X33528000Y19050000D03*
%TO.P,U5,4*%
%TO.N,PSB*%
X33528000Y21590000D03*
%TD*%
D10*
%TO.P,U12,1*%
%TO.N,Net-(R13-Pad2)*%
X25908000Y31750000D03*
D11*
%TO.P,U12,2*%
%TO.N,GND*%
X25908000Y29210000D03*
%TO.P,U12,3*%
%TO.N,2Bout*%
X33528000Y29210000D03*
%TO.P,U12,4*%
%TO.N,PSB*%
X33528000Y31750000D03*
%TD*%
D10*
%TO.P,U2,1*%
%TO.N,Net-(R3-Pad2)*%
X25908000Y67310000D03*
D11*
%TO.P,U2,2*%
%TO.N,GND*%
X25908000Y64770000D03*
%TO.P,U2,3*%
%TO.N,Aout*%
X33528000Y64770000D03*
%TO.P,U2,4*%
%TO.N,PSB*%
X33528000Y67310000D03*
%TD*%
D10*
%TO.P,U3,1*%
%TO.N,Net-(R4-Pad2)*%
X25908000Y62230000D03*
D11*
%TO.P,U3,2*%
%TO.N,GND*%
X25908000Y59690000D03*
%TO.P,U3,3*%
%TO.N,Bout*%
X33528000Y59690000D03*
%TO.P,U3,4*%
%TO.N,PSB*%
X33528000Y62230000D03*
%TD*%
D14*
%TO.P,R13,1*%
%TO.N,2B*%
X10658000Y31745000D03*
D11*
%TO.P,R13,2*%
%TO.N,Net-(R13-Pad2)*%
X20818000Y31745000D03*
%TD*%
D14*
%TO.P,R3,1*%
%TO.N,A*%
X10658000Y67305000D03*
D11*
%TO.P,R3,2*%
%TO.N,Net-(R3-Pad2)*%
X20818000Y67305000D03*
%TD*%
D12*
%TO.P,J8,1,Pin_1*%
%TO.N,1A*%
X5324000Y49525000D03*
D13*
%TO.P,J8,2,Pin_2*%
%TO.N,1B*%
X5324000Y46985000D03*
%TO.P,J8,3,Pin_3*%
%TO.N,1PWM*%
X5324000Y44445000D03*
%TD*%
D14*
%TO.P,R11,1*%
%TO.N,1PWM*%
X10658000Y41905000D03*
D11*
%TO.P,R11,2*%
%TO.N,Net-(R11-Pad2)*%
X20818000Y41905000D03*
%TD*%
D10*
%TO.P,U11,1*%
%TO.N,Net-(R12-Pad2)*%
X25908000Y36830000D03*
D11*
%TO.P,U11,2*%
%TO.N,GND*%
X25908000Y34290000D03*
%TO.P,U11,3*%
%TO.N,2Aout*%
X33528000Y34290000D03*
%TO.P,U11,4*%
%TO.N,PSB*%
X33528000Y36830000D03*
%TD*%
D12*
%TO.P,J5,1,Pin_1*%
%TO.N,A*%
X5603000Y64750000D03*
D13*
%TO.P,J5,2,Pin_2*%
%TO.N,B*%
X5603000Y62210000D03*
%TO.P,J5,3,Pin_3*%
%TO.N,PWM*%
X5603000Y59670000D03*
%TD*%
D10*
%TO.P,U7,1*%
%TO.N,Net-(R8-Pad2)*%
X25908000Y11430000D03*
D11*
%TO.P,U7,2*%
%TO.N,GND*%
X25908000Y8890000D03*
%TO.P,U7,3*%
%TO.N,3PWMout*%
X33528000Y8890000D03*
%TO.P,U7,4*%
%TO.N,PSB*%
X33528000Y11430000D03*
%TD*%
D10*
%TO.P,U4,1*%
%TO.N,Net-(R5-Pad2)*%
X25908000Y57145000D03*
D11*
%TO.P,U4,2*%
%TO.N,GND*%
X25908000Y54605000D03*
%TO.P,U4,3*%
%TO.N,PWMout*%
X33528000Y54605000D03*
%TO.P,U4,4*%
%TO.N,PSB*%
X33528000Y57145000D03*
%TD*%
D12*
%TO.P,J10,1,Pin_1*%
%TO.N,2A*%
X5603000Y34270000D03*
D13*
%TO.P,J10,2,Pin_2*%
%TO.N,2B*%
X5603000Y31730000D03*
%TO.P,J10,3,Pin_3*%
%TO.N,2PWM*%
X5603000Y29190000D03*
%TD*%
D17*
%TO.P,U1,1,VI*%
%TO.N,+24V*%
X58420000Y43688000D03*
D18*
%TO.P,U1,2,GND*%
%TO.N,GNDPWR*%
X58420000Y46228000D03*
%TO.P,U1,3,VO*%
%TO.N,+12V*%
X58420000Y48768000D03*
%TD*%
D12*
%TO.P,J11,1,Pin_1*%
%TO.N,2Aout*%
X43703000Y34255000D03*
D13*
%TO.P,J11,2,Pin_2*%
%TO.N,2Bout*%
X43703000Y31715000D03*
%TO.P,J11,3,Pin_3*%
%TO.N,2PWMout*%
X43703000Y29175000D03*
%TO.P,J11,4,Pin_4*%
%TO.N,PSB*%
X43703000Y26635000D03*
%TO.P,J11,5,Pin_5*%
%TO.N,GNDPWR*%
X43703000Y24095000D03*
%TD*%
D19*
%TO.N,PSB*%
X32766000Y6096000D02*
X30988000Y7874000D01*
X37592000Y6096000D02*
X32766000Y6096000D01*
X42891000Y11395000D02*
X37592000Y6096000D01*
X43703000Y11395000D02*
X42891000Y11395000D01*
X30988000Y7874000D02*
X30988000Y11938000D01*
%TO.N,+24V*%
X56640000Y11550000D02*
X56660000Y11530000D01*
X56640000Y14972000D02*
X56640000Y11550000D01*
X56642000Y20614000D02*
X56682000Y20574000D01*
X56642000Y15240000D02*
X56642000Y20614000D01*
X56560323Y20695677D02*
X56682000Y20574000D01*
X56589677Y26191354D02*
X56560323Y26162000D01*
X56589677Y41857677D02*
X56589677Y26191354D01*
X56560323Y26162000D02*
X56560323Y20695677D01*
X58420000Y43688000D02*
X56589677Y41857677D01*
%TO.N,Aout*%
X33528000Y64770000D02*
X43673000Y64770000D01*
X43673000Y64770000D02*
X43678000Y64765000D01*
%TO.N,Bout*%
X43678000Y62225000D02*
X37714000Y62225000D01*
X37714000Y62225000D02*
X35179000Y59690000D01*
X33528000Y59690000D02*
X35179000Y59690000D01*
%TO.N,PWMout*%
X33528000Y54605000D02*
X36190000Y54605000D01*
X41270000Y59685000D02*
X43678000Y59685000D01*
X36190000Y54605000D02*
X41270000Y59685000D01*
%TO.N,PSB*%
X31496000Y52070000D02*
X30988000Y52578000D01*
X31496000Y31750000D02*
X30988000Y31242000D01*
X30988000Y41402000D02*
X30988000Y37338000D01*
X42413000Y57145000D02*
X43678000Y57145000D01*
X31496000Y41910000D02*
X30988000Y41402000D01*
X31242000Y21590000D02*
X30988000Y21844000D01*
X33528000Y52070000D02*
X37338000Y52070000D01*
X33528000Y36830000D02*
X31496000Y36830000D01*
X33528000Y67310000D02*
X32396630Y67310000D01*
X30988000Y27178000D02*
X30988000Y21844000D01*
X42891000Y26635000D02*
X37846000Y21590000D01*
X30988000Y37338000D02*
X30988000Y31242000D01*
X43703000Y26635000D02*
X42891000Y26635000D01*
X30988000Y62738000D02*
X30988000Y57658000D01*
X32396630Y67310000D02*
X30988000Y65901370D01*
X33528000Y62230000D02*
X31496000Y62230000D01*
X37592000Y36830000D02*
X33528000Y36830000D01*
X42667000Y41905000D02*
X37592000Y36830000D01*
X43703000Y41905000D02*
X42667000Y41905000D01*
X31501000Y57145000D02*
X30988000Y57658000D01*
X30988000Y52578000D02*
X30988000Y46990000D01*
X30988000Y21844000D02*
X30988000Y16764000D01*
X33528000Y57145000D02*
X31501000Y57145000D01*
X31496000Y26670000D02*
X30988000Y27178000D01*
X33528000Y16510000D02*
X31242000Y16510000D01*
X37338000Y52070000D02*
X42413000Y57145000D01*
X33528000Y31750000D02*
X31496000Y31750000D01*
X30988000Y16764000D02*
X30988000Y11938000D01*
X30988000Y31242000D02*
X30988000Y27178000D01*
X33528000Y26670000D02*
X31496000Y26670000D01*
X30988000Y65901370D02*
X30988000Y62738000D01*
X48260000Y71120000D02*
X33528000Y71120000D01*
X33528000Y21590000D02*
X31242000Y21590000D01*
X33528000Y71120000D02*
X33528000Y73660000D01*
X31496000Y11430000D02*
X33528000Y11430000D01*
X30988000Y57658000D02*
X30988000Y52578000D01*
X31242000Y16510000D02*
X30988000Y16764000D01*
X31496000Y62230000D02*
X30988000Y62738000D01*
X30988000Y11938000D02*
X31496000Y11430000D01*
X33528000Y46990000D02*
X30988000Y46990000D01*
X33528000Y41910000D02*
X31496000Y41910000D01*
X33528000Y52070000D02*
X31496000Y52070000D01*
X31496000Y36830000D02*
X30988000Y37338000D01*
X37846000Y21590000D02*
X33528000Y21590000D01*
X33528000Y67310000D02*
X33528000Y71120000D01*
X30988000Y46990000D02*
X30988000Y41402000D01*
%TO.N,GNDPWR*%
X62738000Y49276000D02*
X62738000Y60452000D01*
X62738000Y60452000D02*
X61214000Y61976000D01*
X59690000Y46228000D02*
X62738000Y49276000D01*
X58420000Y46228000D02*
X59690000Y46228000D01*
X48260000Y54356000D02*
X48260000Y51054000D01*
X61335677Y71628000D02*
X61335677Y62097677D01*
X61682000Y20574000D02*
X61560323Y20452323D01*
X48260000Y39116000D02*
X48260000Y23368000D01*
X58420000Y46228000D02*
X48514000Y46228000D01*
X43678000Y54605000D02*
X48011000Y54605000D01*
X45939000Y8855000D02*
X43703000Y8855000D01*
X62738000Y49276000D02*
X61589677Y48127677D01*
X48260000Y51054000D02*
X48260000Y39116000D01*
X47533000Y24095000D02*
X48260000Y23368000D01*
X48011000Y54605000D02*
X48260000Y54356000D01*
X61589677Y20666323D02*
X61682000Y20574000D01*
X61335677Y62097677D02*
X61214000Y61976000D01*
X48260000Y60960000D02*
X48260000Y54356000D01*
X43703000Y39365000D02*
X48011000Y39365000D01*
X48011000Y39365000D02*
X48260000Y39116000D01*
X48260000Y23368000D02*
X48260000Y11176000D01*
X61589677Y48127677D02*
X61589677Y20666323D01*
X48260000Y11176000D02*
X45939000Y8855000D01*
X43703000Y24095000D02*
X47533000Y24095000D01*
%TO.N,+12V*%
X56214000Y61976000D02*
X56214000Y50974000D01*
X56214000Y71506323D02*
X56335677Y71628000D01*
X56214000Y61976000D02*
X56214000Y71506323D01*
X56214000Y50974000D02*
X58420000Y48768000D01*
X54303677Y73660000D02*
X56335677Y71628000D01*
X43688000Y73660000D02*
X54303677Y73660000D01*
%TO.N,A*%
X10658000Y67305000D02*
X8158000Y67305000D01*
X8158000Y67305000D02*
X5603000Y64750000D01*
%TO.N,Net-(R3-Pad2)*%
X25903000Y67305000D02*
X25908000Y67310000D01*
X20818000Y67305000D02*
X25903000Y67305000D01*
%TO.N,B*%
X10643000Y62210000D02*
X10658000Y62225000D01*
X5603000Y62210000D02*
X10643000Y62210000D01*
%TO.N,Net-(R4-Pad2)*%
X25903000Y62225000D02*
X25908000Y62230000D01*
X20818000Y62225000D02*
X25903000Y62225000D01*
%TO.N,PWM*%
X8128000Y57145000D02*
X5603000Y59670000D01*
X10658000Y57145000D02*
X8128000Y57145000D01*
%TO.N,Net-(R5-Pad2)*%
X20818000Y57145000D02*
X25908000Y57145000D01*
%TO.N,+24V*%
X56642000Y12700000D02*
X56642000Y11176000D01*
%TO.N,GND*%
X28448000Y19817474D02*
X28448000Y13202526D01*
X25908000Y49530000D02*
X28448000Y49530000D01*
X28448000Y63754000D02*
X27432000Y64770000D01*
X25908000Y24130000D02*
X28448000Y24130000D01*
X28448000Y33522526D02*
X28448000Y29469474D01*
X25908000Y59690000D02*
X28448000Y59690000D01*
X28448000Y50043474D02*
X28448000Y39110526D01*
X28448000Y39110526D02*
X28448000Y33522526D01*
X25908000Y19050000D02*
X28194000Y19050000D01*
X25908000Y13970000D02*
X28194000Y13970000D01*
X25908000Y44450000D02*
X28448000Y44450000D01*
X28448000Y59176526D02*
X28448000Y54604526D01*
X25908000Y29210000D02*
X28448000Y29210000D01*
X27172526Y8890000D02*
X25908000Y8890000D01*
X28448000Y10165474D02*
X27172526Y8890000D01*
X25908000Y34290000D02*
X28194000Y34290000D01*
X28448000Y29469474D02*
X28448000Y19817474D01*
X25908000Y39370000D02*
X28448000Y39370000D01*
X28448000Y13202526D02*
X28448000Y10165474D01*
X25908000Y54605000D02*
X28448000Y54605000D01*
X28448000Y54604526D02*
X28448000Y50043474D01*
X27432000Y64770000D02*
X25908000Y64770000D01*
X28448000Y63494526D02*
X28448000Y59176526D01*
%TO.N,3A*%
X10658000Y21585000D02*
X8118000Y21585000D01*
X8118000Y21585000D02*
X5578000Y19045000D01*
%TO.N,3B*%
X10658000Y16505000D02*
X5578000Y16505000D01*
%TO.N,3PWM*%
X10658000Y11425000D02*
X8118000Y11425000D01*
X8118000Y11425000D02*
X5578000Y13965000D01*
%TO.N,3Aout*%
X33528000Y19050000D02*
X43668000Y19050000D01*
%TO.N,3Bout*%
X33528000Y13970000D02*
X35179000Y13970000D01*
X37684000Y16475000D02*
X35179000Y13970000D01*
X43703000Y16475000D02*
X37684000Y16475000D01*
%TO.N,3PWMout*%
X43703000Y13935000D02*
X41240000Y13935000D01*
X41240000Y13935000D02*
X36195000Y8890000D01*
X33528000Y8890000D02*
X36195000Y8890000D01*
%TO.N,1A*%
X10658000Y52065000D02*
X7864000Y52065000D01*
X7864000Y52065000D02*
X5324000Y49525000D01*
%TO.N,1B*%
X5324000Y46985000D02*
X10658000Y46985000D01*
%TO.N,1PWM*%
X7864000Y41905000D02*
X5324000Y44445000D01*
X10658000Y41905000D02*
X7864000Y41905000D01*
%TO.N,1Aout*%
X43698000Y49530000D02*
X43703000Y49525000D01*
X33528000Y49530000D02*
X43698000Y49530000D01*
%TO.N,1Bout*%
X43703000Y46985000D02*
X37968000Y46985000D01*
X33528000Y44450000D02*
X35433000Y44450000D01*
X37968000Y46985000D02*
X35433000Y44450000D01*
%TO.N,1PWMout*%
X41143000Y44445000D02*
X36068000Y39370000D01*
X36068000Y39370000D02*
X33528000Y39370000D01*
X43703000Y44445000D02*
X41143000Y44445000D01*
%TO.N,2A*%
X8158000Y36825000D02*
X5603000Y34270000D01*
X10658000Y36825000D02*
X8158000Y36825000D01*
%TO.N,2B*%
X5603000Y31730000D02*
X10643000Y31730000D01*
X10643000Y31730000D02*
X10658000Y31745000D01*
%TO.N,2PWM*%
X8128000Y26665000D02*
X5603000Y29190000D01*
X10658000Y26665000D02*
X8128000Y26665000D01*
%TO.N,2Aout*%
X43703000Y34255000D02*
X33563000Y34255000D01*
X33563000Y34255000D02*
X33528000Y34290000D01*
%TO.N,2Bout*%
X35306000Y29210000D02*
X33528000Y29210000D01*
X43703000Y31715000D02*
X37811000Y31715000D01*
X37811000Y31715000D02*
X35306000Y29210000D01*
%TO.N,2PWMout*%
X33528000Y24130000D02*
X36322000Y24130000D01*
X43703000Y29175000D02*
X41367000Y29175000D01*
X41367000Y29175000D02*
X36322000Y24130000D01*
%TO.N,Net-(R6-Pad2)*%
X25903000Y21585000D02*
X25908000Y21590000D01*
X20818000Y21585000D02*
X25903000Y21585000D01*
%TO.N,Net-(R7-Pad2)*%
X20823000Y16510000D02*
X20818000Y16505000D01*
X25908000Y16510000D02*
X20823000Y16510000D01*
%TO.N,Net-(R8-Pad2)*%
X25903000Y11425000D02*
X25908000Y11430000D01*
X20818000Y11425000D02*
X25903000Y11425000D01*
%TO.N,Net-(R9-Pad2)*%
X20818000Y52065000D02*
X25903000Y52065000D01*
X25903000Y52065000D02*
X25908000Y52070000D01*
%TO.N,Net-(R10-Pad2)*%
X20818000Y46985000D02*
X25903000Y46985000D01*
X25903000Y46985000D02*
X25908000Y46990000D01*
%TO.N,Net-(R11-Pad2)*%
X20818000Y41905000D02*
X25903000Y41905000D01*
X25903000Y41905000D02*
X25908000Y41910000D01*
%TO.N,Net-(R12-Pad2)*%
X25908000Y36830000D02*
X20823000Y36830000D01*
X20823000Y36830000D02*
X20818000Y36825000D01*
%TO.N,Net-(R13-Pad2)*%
X20818000Y31745000D02*
X25903000Y31745000D01*
X25903000Y31745000D02*
X25908000Y31750000D01*
%TO.N,Net-(R14-Pad2)*%
X20823000Y26670000D02*
X20818000Y26665000D01*
X25908000Y26670000D02*
X20823000Y26670000D01*
%TD*%
%TA.AperFunction,Conductor*%
%TO.N,GNDPWR*%
G36*
X73093621Y78211498D02*
G01*
X73140114Y78157842D01*
X73151500Y78105500D01*
X73151500Y634500D01*
X73131498Y566379D01*
X73077842Y519886D01*
X73025500Y508500D01*
X58805500Y508500D01*
X58737379Y528502D01*
X58690886Y582158D01*
X58679500Y634500D01*
X58679500Y4947297D01*
X66216743Y4947297D01*
X66217302Y4943053D01*
X66217302Y4943049D01*
X66231048Y4838641D01*
X66254268Y4662266D01*
X66255401Y4658126D01*
X66255401Y4658124D01*
X66271525Y4599185D01*
X66330129Y4384964D01*
X66442923Y4120524D01*
X66590561Y3873839D01*
X66770313Y3649472D01*
X66978851Y3451577D01*
X67212317Y3283814D01*
X67216112Y3281805D01*
X67216113Y3281804D01*
X67237869Y3270285D01*
X67466392Y3149288D01*
X67736373Y3050489D01*
X68017264Y2989245D01*
X68045841Y2986996D01*
X68240282Y2971693D01*
X68240291Y2971693D01*
X68242739Y2971500D01*
X68398271Y2971500D01*
X68400407Y2971646D01*
X68400418Y2971646D01*
X68608548Y2985835D01*
X68608554Y2985836D01*
X68612825Y2986127D01*
X68617020Y2986996D01*
X68617022Y2986996D01*
X68753583Y3015276D01*
X68894342Y3044426D01*
X69165343Y3140393D01*
X69420812Y3272250D01*
X69424313Y3274711D01*
X69424317Y3274713D01*
X69538418Y3354905D01*
X69656023Y3437559D01*
X69866622Y3633260D01*
X70048713Y3855732D01*
X70198927Y4100858D01*
X70314483Y4364102D01*
X70393244Y4640594D01*
X70433751Y4925216D01*
X70433782Y4930991D01*
X70435235Y5208417D01*
X70435235Y5208424D01*
X70435257Y5212703D01*
X70397732Y5497734D01*
X70321871Y5775036D01*
X70209077Y6039476D01*
X70061439Y6286161D01*
X69881687Y6510528D01*
X69673149Y6708423D01*
X69439683Y6876186D01*
X69417843Y6887750D01*
X69323556Y6937672D01*
X69185608Y7010712D01*
X68915627Y7109511D01*
X68634736Y7170755D01*
X68603685Y7173199D01*
X68411718Y7188307D01*
X68411709Y7188307D01*
X68409261Y7188500D01*
X68253729Y7188500D01*
X68251593Y7188354D01*
X68251582Y7188354D01*
X68043452Y7174165D01*
X68043446Y7174164D01*
X68039175Y7173873D01*
X68034980Y7173004D01*
X68034978Y7173004D01*
X67898416Y7144723D01*
X67757658Y7115574D01*
X67486657Y7019607D01*
X67482848Y7017641D01*
X67265100Y6905253D01*
X67231188Y6887750D01*
X67227687Y6885289D01*
X67227683Y6885287D01*
X67217594Y6878196D01*
X66995977Y6722441D01*
X66785378Y6526740D01*
X66603287Y6304268D01*
X66453073Y6059142D01*
X66337517Y5795898D01*
X66258756Y5519406D01*
X66218249Y5234784D01*
X66218227Y5230495D01*
X66218226Y5230488D01*
X66216772Y4952909D01*
X66216743Y4947297D01*
X58679500Y4947297D01*
X58679500Y13336000D01*
X58667766Y13445149D01*
X58667048Y13448450D01*
X58657094Y13494210D01*
X58657093Y13494215D01*
X58656380Y13497491D01*
X58621710Y13601657D01*
X58542692Y13724612D01*
X58524749Y13745320D01*
X58499139Y13774875D01*
X58496199Y13778268D01*
X58486933Y13786297D01*
X58392550Y13868081D01*
X58392547Y13868083D01*
X58385739Y13873982D01*
X58252790Y13934698D01*
X58239005Y13938746D01*
X58179278Y13977126D01*
X58149783Y14041706D01*
X58148500Y14059642D01*
X58148500Y15033001D01*
X58146159Y15062099D01*
X58147592Y15093650D01*
X58148505Y15098932D01*
X58148505Y15098936D01*
X58149179Y15102836D01*
X58150500Y15131925D01*
X58150500Y19487938D01*
X60960493Y19487938D01*
X60969789Y19475923D01*
X61020994Y19440069D01*
X61030489Y19434586D01*
X61227947Y19342510D01*
X61238239Y19338764D01*
X61448688Y19282375D01*
X61459481Y19280472D01*
X61676525Y19261483D01*
X61687475Y19261483D01*
X61904519Y19280472D01*
X61915312Y19282375D01*
X62125761Y19338764D01*
X62136053Y19342510D01*
X62333511Y19434586D01*
X62343006Y19440069D01*
X62395048Y19476509D01*
X62403424Y19486988D01*
X62396356Y19500434D01*
X61694812Y20201978D01*
X61680868Y20209592D01*
X61679035Y20209461D01*
X61672420Y20205210D01*
X60966923Y19499713D01*
X60960493Y19487938D01*
X58150500Y19487938D01*
X58150500Y20209627D01*
X58152732Y20233236D01*
X58164377Y20294285D01*
X58186556Y20410553D01*
X58190968Y20568525D01*
X60369483Y20568525D01*
X60388472Y20351481D01*
X60390375Y20340688D01*
X60446764Y20130239D01*
X60450510Y20119947D01*
X60542586Y19922489D01*
X60548069Y19912994D01*
X60584509Y19860952D01*
X60594988Y19852576D01*
X60608434Y19859644D01*
X61309978Y20561188D01*
X61316356Y20572868D01*
X62046408Y20572868D01*
X62046539Y20571035D01*
X62050790Y20564420D01*
X62756287Y19858923D01*
X62768062Y19852493D01*
X62780077Y19861789D01*
X62815931Y19912994D01*
X62821414Y19922489D01*
X62913490Y20119947D01*
X62917236Y20130239D01*
X62973625Y20340688D01*
X62975528Y20351481D01*
X62994517Y20568525D01*
X62994517Y20579475D01*
X62975528Y20796519D01*
X62973625Y20807312D01*
X62917236Y21017761D01*
X62913490Y21028053D01*
X62821414Y21225511D01*
X62815931Y21235006D01*
X62779491Y21287048D01*
X62769012Y21295424D01*
X62755566Y21288356D01*
X62054022Y20586812D01*
X62046408Y20572868D01*
X61316356Y20572868D01*
X61317592Y20575132D01*
X61317461Y20576965D01*
X61313210Y20583580D01*
X60607713Y21289077D01*
X60595938Y21295507D01*
X60583923Y21286211D01*
X60548069Y21235006D01*
X60542586Y21225511D01*
X60450510Y21028053D01*
X60446764Y21017761D01*
X60390375Y20807312D01*
X60388472Y20796519D01*
X60369483Y20579475D01*
X60369483Y20568525D01*
X58190968Y20568525D01*
X58191247Y20578502D01*
X58193193Y20648150D01*
X58193193Y20648153D01*
X58193334Y20653205D01*
X58161230Y20893820D01*
X58146445Y20942790D01*
X58092533Y21121357D01*
X58092531Y21121361D01*
X58091068Y21126208D01*
X58081574Y21145674D01*
X58068823Y21200907D01*
X58068823Y21661012D01*
X60960576Y21661012D01*
X60967644Y21647566D01*
X61669188Y20946022D01*
X61683132Y20938408D01*
X61684965Y20938539D01*
X61691580Y20942790D01*
X62397077Y21648287D01*
X62403507Y21660062D01*
X62394211Y21672077D01*
X62343006Y21707931D01*
X62333511Y21713414D01*
X62136053Y21805490D01*
X62125761Y21809236D01*
X61915312Y21865625D01*
X61904519Y21867528D01*
X61687475Y21886517D01*
X61676525Y21886517D01*
X61459481Y21867528D01*
X61448688Y21865625D01*
X61238239Y21809236D01*
X61227947Y21805490D01*
X61030489Y21713414D01*
X61020994Y21707931D01*
X60968952Y21671491D01*
X60960576Y21661012D01*
X58068823Y21661012D01*
X58068823Y25878663D01*
X58071954Y25906578D01*
X58086492Y25970568D01*
X58086492Y25970569D01*
X58087612Y25975498D01*
X58089676Y26008307D01*
X58091262Y26021807D01*
X58096856Y26054190D01*
X58098177Y26083279D01*
X58098177Y26139462D01*
X58098426Y26147374D01*
X58101925Y26202978D01*
X58102855Y26217767D01*
X58098778Y26259346D01*
X58098177Y26271642D01*
X58098177Y29247330D01*
X60692483Y29247330D01*
X60698210Y29239680D01*
X60869365Y29134795D01*
X60878160Y29130313D01*
X61088311Y29043266D01*
X61097696Y29040217D01*
X61318877Y28987115D01*
X61328624Y28985572D01*
X61555393Y28967725D01*
X61565253Y28967725D01*
X61792022Y28985572D01*
X61801769Y28987115D01*
X62022950Y29040217D01*
X62032335Y29043266D01*
X62242486Y29130313D01*
X62251281Y29134795D01*
X62418768Y29237432D01*
X62428230Y29247890D01*
X62424447Y29256666D01*
X61573135Y30107978D01*
X61559191Y30115592D01*
X61557358Y30115461D01*
X61550743Y30111210D01*
X60699243Y29259710D01*
X60692483Y29247330D01*
X58098177Y29247330D01*
X58098177Y30475070D01*
X60048048Y30475070D01*
X60065895Y30248301D01*
X60067438Y30238554D01*
X60120540Y30017373D01*
X60123589Y30007988D01*
X60210636Y29797837D01*
X60215118Y29789042D01*
X60317755Y29621555D01*
X60328213Y29612093D01*
X60336989Y29615876D01*
X61188301Y30467188D01*
X61194679Y30478868D01*
X61924731Y30478868D01*
X61924862Y30477035D01*
X61929113Y30470420D01*
X62780613Y29618920D01*
X62792993Y29612160D01*
X62800643Y29617887D01*
X62905528Y29789042D01*
X62910010Y29797837D01*
X62997057Y30007988D01*
X63000106Y30017373D01*
X63053208Y30238554D01*
X63054751Y30248301D01*
X63072598Y30475070D01*
X63072598Y30484930D01*
X63054751Y30711699D01*
X63053208Y30721446D01*
X63000106Y30942627D01*
X62997057Y30952012D01*
X62910010Y31162163D01*
X62905528Y31170958D01*
X62802891Y31338445D01*
X62792433Y31347907D01*
X62783657Y31344124D01*
X61932345Y30492812D01*
X61924731Y30478868D01*
X61194679Y30478868D01*
X61195915Y30481132D01*
X61195784Y30482965D01*
X61191533Y30489580D01*
X60340033Y31341080D01*
X60327653Y31347840D01*
X60320003Y31342113D01*
X60215118Y31170958D01*
X60210636Y31162163D01*
X60123589Y30952012D01*
X60120540Y30942627D01*
X60067438Y30721446D01*
X60065895Y30711699D01*
X60048048Y30484930D01*
X60048048Y30475070D01*
X58098177Y30475070D01*
X58098177Y31712110D01*
X60692416Y31712110D01*
X60696199Y31703334D01*
X61547511Y30852022D01*
X61561455Y30844408D01*
X61563288Y30844539D01*
X61569903Y30848790D01*
X62421403Y31700290D01*
X62428163Y31712670D01*
X62422436Y31720320D01*
X62251281Y31825205D01*
X62242486Y31829687D01*
X62032335Y31916734D01*
X62022950Y31919783D01*
X61801769Y31972885D01*
X61792022Y31974428D01*
X61565253Y31992275D01*
X61555393Y31992275D01*
X61328624Y31974428D01*
X61318877Y31972885D01*
X61097696Y31919783D01*
X61088311Y31916734D01*
X60878160Y31829687D01*
X60869365Y31825205D01*
X60701878Y31722568D01*
X60692416Y31712110D01*
X58098177Y31712110D01*
X58098177Y41180646D01*
X58118179Y41248767D01*
X58135082Y41269741D01*
X59055436Y42190095D01*
X59117748Y42224121D01*
X59144531Y42227000D01*
X59468134Y42227000D01*
X59530316Y42233755D01*
X59666705Y42284885D01*
X59783261Y42372239D01*
X59870615Y42488795D01*
X59921745Y42625184D01*
X59927815Y42681060D01*
X59928131Y42683969D01*
X59928500Y42687366D01*
X59928500Y43636108D01*
X59928749Y43644020D01*
X59932860Y43709359D01*
X59933178Y43714413D01*
X59929101Y43755994D01*
X59928500Y43768289D01*
X59928500Y44688634D01*
X59921745Y44750816D01*
X59870615Y44887205D01*
X59783261Y45003761D01*
X59666705Y45091115D01*
X59646317Y45098758D01*
X59589553Y45141401D01*
X59564854Y45207962D01*
X59580062Y45277311D01*
X59591666Y45294832D01*
X59684945Y45412944D01*
X59690650Y45421531D01*
X59801714Y45622722D01*
X59805944Y45632134D01*
X59882659Y45848768D01*
X59885293Y45858739D01*
X59902647Y45956163D01*
X59901187Y45969460D01*
X59886630Y45974000D01*
X56951904Y45974000D01*
X56938560Y45970082D01*
X56936573Y45955806D01*
X56946110Y45893485D01*
X56948499Y45883457D01*
X57019898Y45665012D01*
X57023895Y45655503D01*
X57130011Y45451656D01*
X57135500Y45442939D01*
X57248902Y45291901D01*
X57273807Y45225416D01*
X57258814Y45156020D01*
X57208684Y45105747D01*
X57192375Y45098268D01*
X57173295Y45091115D01*
X57056739Y45003761D01*
X56969385Y44887205D01*
X56918255Y44750816D01*
X56911500Y44688634D01*
X56911500Y44365031D01*
X56891498Y44296910D01*
X56874595Y44275936D01*
X55540011Y42941352D01*
X55537489Y42938898D01*
X55464996Y42870345D01*
X55454781Y42856984D01*
X55417269Y42807920D01*
X55413125Y42802785D01*
X55362207Y42742957D01*
X55359588Y42738632D01*
X55359584Y42738627D01*
X55345186Y42714853D01*
X55337514Y42703606D01*
X55317557Y42677503D01*
X55285537Y42617785D01*
X55280438Y42608276D01*
X55277173Y42602551D01*
X55236456Y42535319D01*
X55234561Y42530628D01*
X55224150Y42504860D01*
X55218370Y42492519D01*
X55202846Y42463568D01*
X55201200Y42458787D01*
X55201198Y42458783D01*
X55177265Y42389276D01*
X55174955Y42383098D01*
X55145522Y42310248D01*
X55139760Y42284885D01*
X55138245Y42278217D01*
X55134514Y42265118D01*
X55123815Y42234046D01*
X55110434Y42156577D01*
X55109154Y42150173D01*
X55091742Y42073533D01*
X55089678Y42040724D01*
X55088092Y42027224D01*
X55082498Y41994841D01*
X55082318Y41990884D01*
X55082318Y41990881D01*
X55081272Y41967841D01*
X55081177Y41965752D01*
X55081177Y41909569D01*
X55080928Y41901658D01*
X55076499Y41831264D01*
X55076993Y41826229D01*
X55080576Y41789685D01*
X55081177Y41777389D01*
X55081177Y31673440D01*
X55073159Y31629211D01*
X55058578Y31590316D01*
X55051823Y31528134D01*
X55051823Y29431866D01*
X55058578Y29369684D01*
X55061350Y29362291D01*
X55061350Y29362289D01*
X55073159Y29330789D01*
X55081177Y29286560D01*
X55081177Y26474691D01*
X55078046Y26446777D01*
X55062388Y26377856D01*
X55060324Y26345047D01*
X55058738Y26331547D01*
X55053144Y26299164D01*
X55051823Y26270075D01*
X55051823Y26213892D01*
X55051574Y26205981D01*
X55047145Y26135587D01*
X55047639Y26130552D01*
X55051222Y26094008D01*
X55051823Y26081712D01*
X55051823Y20719693D01*
X55051774Y20716175D01*
X55048989Y20616472D01*
X55056901Y20557179D01*
X55059381Y20538591D01*
X55060081Y20532038D01*
X55066383Y20453712D01*
X55071117Y20434439D01*
X55074220Y20421807D01*
X55076749Y20408419D01*
X55081094Y20375857D01*
X55082555Y20371016D01*
X55082556Y20371014D01*
X55103801Y20300648D01*
X55105542Y20294285D01*
X55121759Y20228261D01*
X55124286Y20217971D01*
X55126264Y20213312D01*
X55127060Y20210918D01*
X55133500Y20171150D01*
X55133500Y15178999D01*
X55133702Y15176490D01*
X55133702Y15176486D01*
X55135841Y15149905D01*
X55134408Y15118354D01*
X55132821Y15109164D01*
X55131500Y15080075D01*
X55131500Y14101500D01*
X55111498Y14033379D01*
X55057842Y13986886D01*
X55005500Y13975500D01*
X50926000Y13975500D01*
X50922654Y13975140D01*
X50922649Y13975140D01*
X50820215Y13964128D01*
X50820208Y13964127D01*
X50816851Y13963766D01*
X50813551Y13963048D01*
X50813550Y13963048D01*
X50767790Y13953094D01*
X50767785Y13953093D01*
X50764509Y13952380D01*
X50660343Y13917710D01*
X50537388Y13838692D01*
X50483732Y13792199D01*
X50480792Y13788806D01*
X50393919Y13688550D01*
X50393917Y13688547D01*
X50388018Y13681739D01*
X50327302Y13548790D01*
X50326034Y13544471D01*
X50315238Y13507702D01*
X50307300Y13480669D01*
X50306660Y13476220D01*
X50306659Y13476214D01*
X50302193Y13445149D01*
X50286500Y13336000D01*
X50286500Y634500D01*
X50266498Y566379D01*
X50212842Y519886D01*
X50160500Y508500D01*
X30606000Y508500D01*
X30537879Y528502D01*
X30491386Y582158D01*
X30480000Y634500D01*
X30480000Y5944469D01*
X30500002Y6012590D01*
X30553658Y6059083D01*
X30623932Y6069187D01*
X30688512Y6039693D01*
X30695095Y6033564D01*
X31682325Y5046334D01*
X31684779Y5043812D01*
X31728060Y4998044D01*
X31753332Y4971319D01*
X31779146Y4951583D01*
X31815757Y4923592D01*
X31820892Y4919448D01*
X31880720Y4868530D01*
X31885045Y4865911D01*
X31885050Y4865907D01*
X31908824Y4851509D01*
X31920071Y4843837D01*
X31946174Y4823880D01*
X32007255Y4791129D01*
X32015401Y4786761D01*
X32021126Y4783496D01*
X32088358Y4742779D01*
X32118817Y4730473D01*
X32131158Y4724693D01*
X32160109Y4709169D01*
X32164890Y4707523D01*
X32164894Y4707521D01*
X32234401Y4683588D01*
X32240579Y4681278D01*
X32254962Y4675467D01*
X32313429Y4651845D01*
X32318369Y4650723D01*
X32318368Y4650723D01*
X32345460Y4644568D01*
X32358559Y4640837D01*
X32389631Y4630138D01*
X32394608Y4629278D01*
X32394621Y4629275D01*
X32467071Y4616761D01*
X32473540Y4615469D01*
X32532561Y4602060D01*
X32550145Y4598065D01*
X32582951Y4596001D01*
X32596455Y4594414D01*
X32618683Y4590575D01*
X32624933Y4589495D01*
X32624936Y4589495D01*
X32628836Y4588821D01*
X32632793Y4588641D01*
X32632796Y4588641D01*
X32656506Y4587564D01*
X32656525Y4587564D01*
X32657925Y4587500D01*
X32714108Y4587500D01*
X32722019Y4587251D01*
X32792413Y4582822D01*
X32833993Y4586899D01*
X32846289Y4587500D01*
X37567984Y4587500D01*
X37571502Y4587451D01*
X37666150Y4584807D01*
X37666153Y4584807D01*
X37671205Y4584666D01*
X37749098Y4595059D01*
X37755639Y4595758D01*
X37784332Y4598067D01*
X37828923Y4601654D01*
X37828927Y4601655D01*
X37833965Y4602060D01*
X37865878Y4609899D01*
X37879258Y4612426D01*
X37911820Y4616771D01*
X37916661Y4618232D01*
X37916663Y4618233D01*
X37987029Y4639478D01*
X37993392Y4641219D01*
X38007027Y4644568D01*
X38069706Y4659963D01*
X38099952Y4672801D01*
X38112763Y4677439D01*
X38139362Y4685470D01*
X38144208Y4686933D01*
X38148756Y4689151D01*
X38148763Y4689154D01*
X38214818Y4721371D01*
X38220820Y4724107D01*
X38270978Y4745398D01*
X38293156Y4754812D01*
X38320956Y4772319D01*
X38332860Y4778945D01*
X38362388Y4793346D01*
X38426600Y4838643D01*
X38432086Y4842301D01*
X38494286Y4881471D01*
X38494287Y4881472D01*
X38498567Y4884167D01*
X38502356Y4887508D01*
X38502362Y4887512D01*
X38523217Y4905898D01*
X38533912Y4914344D01*
X38549324Y4925216D01*
X38560747Y4933274D01*
X38582250Y4952909D01*
X38621966Y4992625D01*
X38627736Y4998044D01*
X38676858Y5041350D01*
X38676861Y5041353D01*
X38680655Y5044698D01*
X38707179Y5076989D01*
X38715449Y5086108D01*
X42181044Y8551703D01*
X42243356Y8585729D01*
X42314171Y8580664D01*
X42371007Y8538117D01*
X42393056Y8490309D01*
X42401565Y8452553D01*
X42404645Y8442725D01*
X42484770Y8245397D01*
X42489413Y8236206D01*
X42600694Y8054612D01*
X42606777Y8046301D01*
X42746213Y7885333D01*
X42753580Y7878117D01*
X42917434Y7742084D01*
X42925881Y7736169D01*
X43109756Y7628721D01*
X43119042Y7624271D01*
X43318001Y7548297D01*
X43327899Y7545421D01*
X43431250Y7524394D01*
X43445299Y7525590D01*
X43449000Y7535935D01*
X43449000Y7536483D01*
X43957000Y7536483D01*
X43961064Y7522641D01*
X43974478Y7520607D01*
X43981184Y7521466D01*
X43991262Y7523608D01*
X44195255Y7584809D01*
X44204842Y7588567D01*
X44396095Y7682261D01*
X44404945Y7687536D01*
X44578328Y7811208D01*
X44586200Y7817861D01*
X44737052Y7968188D01*
X44743730Y7976035D01*
X44868003Y8148980D01*
X44873313Y8157817D01*
X44967670Y8348733D01*
X44971469Y8358328D01*
X45033377Y8562090D01*
X45035555Y8572163D01*
X45036986Y8583038D01*
X45034775Y8597222D01*
X45021617Y8601000D01*
X43975115Y8601000D01*
X43959876Y8596525D01*
X43958671Y8595135D01*
X43957000Y8587452D01*
X43957000Y7536483D01*
X43449000Y7536483D01*
X43449000Y8983000D01*
X43469002Y9051121D01*
X43522658Y9097614D01*
X43575000Y9109000D01*
X45021344Y9109000D01*
X45034875Y9112973D01*
X45036180Y9122053D01*
X44994214Y9289125D01*
X44990894Y9298876D01*
X44905972Y9494186D01*
X44901105Y9503261D01*
X44785426Y9682074D01*
X44779136Y9690243D01*
X44635806Y9847760D01*
X44628273Y9854785D01*
X44528550Y9933541D01*
X44487487Y9991458D01*
X44484255Y10062381D01*
X44519880Y10123793D01*
X44539500Y10139043D01*
X44605283Y10180469D01*
X44605285Y10180470D01*
X44609567Y10183167D01*
X44655166Y10223367D01*
X44787858Y10340350D01*
X44787861Y10340353D01*
X44791655Y10343698D01*
X44836670Y10398500D01*
X44942526Y10527372D01*
X44942528Y10527375D01*
X44945734Y10531278D01*
X45067841Y10741078D01*
X45154833Y10967702D01*
X45204474Y11205320D01*
X45215486Y11447817D01*
X45212021Y11477763D01*
X45188167Y11683929D01*
X45188166Y11683933D01*
X45187585Y11688956D01*
X45121490Y11922532D01*
X45119356Y11927108D01*
X45119354Y11927114D01*
X45021038Y12137954D01*
X45021036Y12137958D01*
X45018901Y12142536D01*
X44882456Y12343307D01*
X44715668Y12519681D01*
X44657093Y12564465D01*
X44615125Y12621730D01*
X44610780Y12692593D01*
X44650297Y12759075D01*
X44787858Y12880350D01*
X44787861Y12880353D01*
X44791655Y12883698D01*
X44850833Y12955743D01*
X44942526Y13067372D01*
X44942528Y13067375D01*
X44945734Y13071278D01*
X45067841Y13281078D01*
X45090210Y13339351D01*
X45153020Y13502978D01*
X45153021Y13502982D01*
X45154833Y13507702D01*
X45155868Y13512655D01*
X45203440Y13740369D01*
X45203440Y13740373D01*
X45204474Y13745320D01*
X45215486Y13987817D01*
X45214905Y13992841D01*
X45188167Y14223929D01*
X45188166Y14223933D01*
X45187585Y14228956D01*
X45121490Y14462532D01*
X45119356Y14467108D01*
X45119354Y14467114D01*
X45021038Y14677954D01*
X45021036Y14677958D01*
X45018901Y14682536D01*
X44882456Y14883307D01*
X44715668Y15059681D01*
X44691758Y15077962D01*
X44657093Y15104465D01*
X44615125Y15161730D01*
X44610780Y15232593D01*
X44650297Y15299075D01*
X44787858Y15420350D01*
X44787861Y15420353D01*
X44791655Y15423698D01*
X44945734Y15611278D01*
X45006787Y15716178D01*
X45065299Y15816710D01*
X45065300Y15816712D01*
X45067841Y15821078D01*
X45154833Y16047702D01*
X45177435Y16155892D01*
X45203440Y16280369D01*
X45203440Y16280373D01*
X45204474Y16285320D01*
X45215486Y16527817D01*
X45212021Y16557763D01*
X45188167Y16763929D01*
X45188166Y16763933D01*
X45187585Y16768956D01*
X45121490Y17002532D01*
X45119356Y17007108D01*
X45119354Y17007114D01*
X45021038Y17217954D01*
X45021036Y17217958D01*
X45018901Y17222536D01*
X44882456Y17423307D01*
X44878977Y17426986D01*
X44878973Y17426991D01*
X44784126Y17527289D01*
X44751854Y17590527D01*
X44758894Y17661174D01*
X44800109Y17714688D01*
X44909081Y17796358D01*
X44916261Y17801739D01*
X45003615Y17918295D01*
X45054745Y18054684D01*
X45061500Y18116866D01*
X45061500Y18447386D01*
X45069869Y18492540D01*
X45118020Y18617978D01*
X45118021Y18617982D01*
X45119833Y18622702D01*
X45169474Y18860320D01*
X45180486Y19102817D01*
X45162128Y19261483D01*
X45153167Y19338929D01*
X45153166Y19338933D01*
X45152585Y19343956D01*
X45151208Y19348823D01*
X45087866Y19572671D01*
X45087864Y19572676D01*
X45086490Y19577532D01*
X45073305Y19605808D01*
X45061500Y19659057D01*
X45061500Y19913134D01*
X45054745Y19975316D01*
X45003615Y20111705D01*
X44916261Y20228261D01*
X44799705Y20315615D01*
X44663316Y20366745D01*
X44601134Y20373500D01*
X44423651Y20373500D01*
X44364110Y20388456D01*
X44278352Y20434439D01*
X44273891Y20436831D01*
X44044369Y20515862D01*
X43931711Y20535321D01*
X43809074Y20556504D01*
X43809068Y20556505D01*
X43805164Y20557179D01*
X43801203Y20557359D01*
X43801202Y20557359D01*
X43777494Y20558436D01*
X43777475Y20558436D01*
X43776075Y20558500D01*
X39252031Y20558500D01*
X39183910Y20578502D01*
X39137417Y20632158D01*
X39127313Y20702432D01*
X39156807Y20767012D01*
X39162936Y20773595D01*
X42181044Y23791702D01*
X42243356Y23825728D01*
X42314172Y23820663D01*
X42371007Y23778116D01*
X42393056Y23730308D01*
X42401565Y23692554D01*
X42404645Y23682725D01*
X42484770Y23485397D01*
X42489413Y23476206D01*
X42600694Y23294612D01*
X42606777Y23286301D01*
X42746213Y23125333D01*
X42753580Y23118117D01*
X42917434Y22982084D01*
X42925881Y22976169D01*
X43109756Y22868721D01*
X43119042Y22864271D01*
X43318001Y22788297D01*
X43327899Y22785421D01*
X43431250Y22764394D01*
X43445299Y22765590D01*
X43449000Y22775935D01*
X43449000Y22776483D01*
X43957000Y22776483D01*
X43961064Y22762641D01*
X43974478Y22760607D01*
X43981184Y22761466D01*
X43991262Y22763608D01*
X44195255Y22824809D01*
X44204842Y22828567D01*
X44396095Y22922261D01*
X44404945Y22927536D01*
X44578328Y23051208D01*
X44586200Y23057861D01*
X44737052Y23208188D01*
X44743730Y23216035D01*
X44868003Y23388980D01*
X44873313Y23397817D01*
X44967670Y23588733D01*
X44971469Y23598328D01*
X45033377Y23802090D01*
X45035555Y23812163D01*
X45036986Y23823038D01*
X45034775Y23837222D01*
X45021617Y23841000D01*
X43975115Y23841000D01*
X43959876Y23836525D01*
X43958671Y23835135D01*
X43957000Y23827452D01*
X43957000Y22776483D01*
X43449000Y22776483D01*
X43449000Y24223000D01*
X43469002Y24291121D01*
X43522658Y24337614D01*
X43575000Y24349000D01*
X45021344Y24349000D01*
X45034875Y24352973D01*
X45036180Y24362053D01*
X44994214Y24529125D01*
X44990894Y24538876D01*
X44905972Y24734186D01*
X44901105Y24743261D01*
X44785426Y24922074D01*
X44779136Y24930243D01*
X44635806Y25087760D01*
X44628273Y25094785D01*
X44528550Y25173541D01*
X44487487Y25231458D01*
X44484255Y25302381D01*
X44519880Y25363793D01*
X44539500Y25379043D01*
X44605283Y25420469D01*
X44605285Y25420470D01*
X44609567Y25423167D01*
X44655166Y25463367D01*
X44787858Y25580350D01*
X44787861Y25580353D01*
X44791655Y25583698D01*
X44836670Y25638500D01*
X44942526Y25767372D01*
X44942528Y25767375D01*
X44945734Y25771278D01*
X45061724Y25970568D01*
X45065299Y25976710D01*
X45065300Y25976712D01*
X45067841Y25981078D01*
X45097426Y26058150D01*
X45153020Y26202978D01*
X45153021Y26202982D01*
X45154833Y26207702D01*
X45165622Y26259346D01*
X45203440Y26440369D01*
X45203440Y26440373D01*
X45204474Y26445320D01*
X45215486Y26687817D01*
X45212021Y26717763D01*
X45188167Y26923929D01*
X45188166Y26923933D01*
X45187585Y26928956D01*
X45121490Y27162532D01*
X45119356Y27167108D01*
X45119354Y27167114D01*
X45021038Y27377954D01*
X45021036Y27377958D01*
X45018901Y27382536D01*
X44882456Y27583307D01*
X44715668Y27759681D01*
X44657093Y27804465D01*
X44615125Y27861730D01*
X44610780Y27932593D01*
X44650297Y27999075D01*
X44787858Y28120350D01*
X44787861Y28120353D01*
X44791655Y28123698D01*
X44850833Y28195743D01*
X44942526Y28307372D01*
X44942528Y28307375D01*
X44945734Y28311278D01*
X45067841Y28521078D01*
X45154833Y28747702D01*
X45155868Y28752655D01*
X45203440Y28980369D01*
X45203440Y28980373D01*
X45204474Y28985320D01*
X45215486Y29227817D01*
X45214905Y29232841D01*
X45188167Y29463929D01*
X45188166Y29463933D01*
X45187585Y29468956D01*
X45121490Y29702532D01*
X45119356Y29707108D01*
X45119354Y29707114D01*
X45021038Y29917954D01*
X45021036Y29917958D01*
X45018901Y29922536D01*
X44882456Y30123307D01*
X44715668Y30299681D01*
X44657093Y30344465D01*
X44615125Y30401730D01*
X44610780Y30472593D01*
X44650297Y30539075D01*
X44787858Y30660350D01*
X44787861Y30660353D01*
X44791655Y30663698D01*
X44836670Y30718500D01*
X44942526Y30847372D01*
X44942528Y30847375D01*
X44945734Y30851278D01*
X45067841Y31061078D01*
X45110020Y31170958D01*
X45153020Y31282978D01*
X45153021Y31282982D01*
X45154833Y31287702D01*
X45165434Y31338445D01*
X45203440Y31520369D01*
X45203440Y31520373D01*
X45204474Y31525320D01*
X45215486Y31767817D01*
X45212021Y31797763D01*
X45188167Y32003929D01*
X45188166Y32003933D01*
X45187585Y32008956D01*
X45121490Y32242532D01*
X45119356Y32247108D01*
X45119354Y32247114D01*
X45021038Y32457954D01*
X45021036Y32457958D01*
X45018901Y32462536D01*
X44882456Y32663307D01*
X44878977Y32666986D01*
X44878973Y32666991D01*
X44784126Y32767289D01*
X44751854Y32830527D01*
X44758894Y32901174D01*
X44800109Y32954688D01*
X44909081Y33036358D01*
X44916261Y33041739D01*
X45003615Y33158295D01*
X45054745Y33294684D01*
X45061500Y33356866D01*
X45061500Y33561207D01*
X45069869Y33606361D01*
X45153020Y33822978D01*
X45153021Y33822982D01*
X45154833Y33827702D01*
X45204474Y34065320D01*
X45215486Y34307817D01*
X45187585Y34548956D01*
X45121490Y34782532D01*
X45119356Y34787108D01*
X45119354Y34787114D01*
X45073305Y34885866D01*
X45061500Y34939116D01*
X45061500Y35153134D01*
X45054745Y35215316D01*
X45003615Y35351705D01*
X44916261Y35468261D01*
X44799705Y35555615D01*
X44663316Y35606745D01*
X44601134Y35613500D01*
X44393376Y35613500D01*
X44333836Y35628455D01*
X44308891Y35641831D01*
X44079369Y35720862D01*
X43980022Y35738022D01*
X43844074Y35761504D01*
X43844068Y35761505D01*
X43840164Y35762179D01*
X43836203Y35762359D01*
X43836202Y35762359D01*
X43812494Y35763436D01*
X43812475Y35763436D01*
X43811075Y35763500D01*
X38963031Y35763500D01*
X38894910Y35783502D01*
X38848417Y35837158D01*
X38838313Y35907432D01*
X38867807Y35972012D01*
X38873936Y35978595D01*
X42140424Y39245083D01*
X42202736Y39279109D01*
X42273551Y39274044D01*
X42330387Y39231497D01*
X42353542Y39175340D01*
X42353607Y39175355D01*
X42353692Y39174977D01*
X42354293Y39173520D01*
X42354744Y39170309D01*
X42401565Y38962554D01*
X42404645Y38952725D01*
X42484770Y38755397D01*
X42489413Y38746206D01*
X42600694Y38564612D01*
X42606777Y38556301D01*
X42746213Y38395333D01*
X42753580Y38388117D01*
X42917434Y38252084D01*
X42925881Y38246169D01*
X43109756Y38138721D01*
X43119042Y38134271D01*
X43318001Y38058297D01*
X43327899Y38055421D01*
X43431250Y38034394D01*
X43445299Y38035590D01*
X43449000Y38045935D01*
X43449000Y38046483D01*
X43957000Y38046483D01*
X43961064Y38032641D01*
X43974478Y38030607D01*
X43981184Y38031466D01*
X43991262Y38033608D01*
X44195255Y38094809D01*
X44204842Y38098567D01*
X44396095Y38192261D01*
X44404945Y38197536D01*
X44578328Y38321208D01*
X44586200Y38327861D01*
X44737052Y38478188D01*
X44743730Y38486035D01*
X44868003Y38658980D01*
X44873313Y38667817D01*
X44967670Y38858733D01*
X44971469Y38868328D01*
X45033377Y39072090D01*
X45035555Y39082163D01*
X45036986Y39093038D01*
X45034775Y39107222D01*
X45021617Y39111000D01*
X43975115Y39111000D01*
X43959876Y39106525D01*
X43958671Y39105135D01*
X43957000Y39097452D01*
X43957000Y38046483D01*
X43449000Y38046483D01*
X43449000Y39493000D01*
X43469002Y39561121D01*
X43522658Y39607614D01*
X43575000Y39619000D01*
X45021344Y39619000D01*
X45034875Y39622973D01*
X45036180Y39632053D01*
X44994214Y39799125D01*
X44990894Y39808876D01*
X44905972Y40004186D01*
X44901105Y40013261D01*
X44785426Y40192074D01*
X44779136Y40200243D01*
X44635806Y40357760D01*
X44628273Y40364785D01*
X44528550Y40443541D01*
X44487487Y40501458D01*
X44484255Y40572381D01*
X44519880Y40633793D01*
X44539500Y40649043D01*
X44605283Y40690469D01*
X44605285Y40690470D01*
X44609567Y40693167D01*
X44655166Y40733367D01*
X44787858Y40850350D01*
X44787861Y40850353D01*
X44791655Y40853698D01*
X44794866Y40857607D01*
X44942526Y41037372D01*
X44942528Y41037375D01*
X44945734Y41041278D01*
X45006787Y41146178D01*
X45065299Y41246710D01*
X45065300Y41246712D01*
X45067841Y41251078D01*
X45115635Y41375587D01*
X45153020Y41472978D01*
X45153021Y41472982D01*
X45154833Y41477702D01*
X45155878Y41482702D01*
X45203440Y41710369D01*
X45203440Y41710373D01*
X45204474Y41715320D01*
X45215486Y41957817D01*
X45214905Y41962841D01*
X45188167Y42193929D01*
X45188166Y42193933D01*
X45187585Y42198956D01*
X45179650Y42227000D01*
X45122866Y42427669D01*
X45121490Y42432532D01*
X45119356Y42437108D01*
X45119354Y42437114D01*
X45021038Y42647954D01*
X45021036Y42647958D01*
X45018901Y42652536D01*
X44882456Y42853307D01*
X44715668Y43029681D01*
X44657093Y43074465D01*
X44615125Y43131730D01*
X44610780Y43202593D01*
X44650297Y43269075D01*
X44787858Y43390350D01*
X44787861Y43390353D01*
X44791655Y43393698D01*
X44798978Y43402613D01*
X44942526Y43577372D01*
X44942528Y43577375D01*
X44945734Y43581278D01*
X45050989Y43762123D01*
X45065299Y43786710D01*
X45065300Y43786712D01*
X45067841Y43791078D01*
X45154833Y44017702D01*
X45204474Y44255320D01*
X45215486Y44497817D01*
X45193408Y44688634D01*
X45188167Y44733929D01*
X45188166Y44733933D01*
X45187585Y44738956D01*
X45121490Y44972532D01*
X45119356Y44977108D01*
X45119354Y44977114D01*
X45021038Y45187954D01*
X45021036Y45187958D01*
X45018901Y45192536D01*
X45008418Y45207962D01*
X44949380Y45294832D01*
X44882456Y45393307D01*
X44715668Y45569681D01*
X44657093Y45614465D01*
X44615125Y45671730D01*
X44610780Y45742593D01*
X44650297Y45809075D01*
X44787858Y45930350D01*
X44787861Y45930353D01*
X44791655Y45933698D01*
X44810108Y45956163D01*
X44942526Y46117372D01*
X44942528Y46117375D01*
X44945734Y46121278D01*
X45021177Y46250901D01*
X45065299Y46326710D01*
X45065300Y46326712D01*
X45067841Y46331078D01*
X45154833Y46557702D01*
X45155878Y46562702D01*
X45203440Y46790369D01*
X45203440Y46790373D01*
X45204474Y46795320D01*
X45215486Y47037817D01*
X45193140Y47230950D01*
X45188167Y47273929D01*
X45188166Y47273933D01*
X45187585Y47278956D01*
X45158593Y47381414D01*
X45138046Y47454023D01*
X45121490Y47512532D01*
X45119356Y47517108D01*
X45119354Y47517114D01*
X45021038Y47727954D01*
X45021036Y47727958D01*
X45018901Y47732536D01*
X45013950Y47739822D01*
X44964225Y47812988D01*
X44882456Y47933307D01*
X44878977Y47936986D01*
X44878973Y47936991D01*
X44784126Y48037289D01*
X44751854Y48100527D01*
X44758894Y48171174D01*
X44800109Y48224688D01*
X44909081Y48306358D01*
X44916261Y48311739D01*
X45003615Y48428295D01*
X45054745Y48564684D01*
X45061500Y48626866D01*
X45061500Y48830785D01*
X45075728Y48885405D01*
X45074470Y48885981D01*
X45076574Y48890577D01*
X45079045Y48894998D01*
X45149227Y49087820D01*
X45160339Y49118348D01*
X45160340Y49118353D01*
X45162070Y49123105D01*
X45207556Y49361553D01*
X45214334Y49604205D01*
X45197081Y49733514D01*
X45182898Y49839806D01*
X45182229Y49844820D01*
X45169994Y49885345D01*
X45113532Y50072357D01*
X45113530Y50072361D01*
X45112067Y50077208D01*
X45074252Y50154741D01*
X45061500Y50209975D01*
X45061500Y50423134D01*
X45054745Y50485316D01*
X45003615Y50621705D01*
X44916261Y50738261D01*
X44799705Y50825615D01*
X44663316Y50876745D01*
X44601134Y50883500D01*
X44399443Y50883500D01*
X44352237Y50892677D01*
X44345174Y50895531D01*
X44332839Y50901309D01*
X44308346Y50914442D01*
X44303891Y50916831D01*
X44299110Y50918477D01*
X44299106Y50918479D01*
X44229599Y50942412D01*
X44223421Y50944722D01*
X44155266Y50972258D01*
X44155267Y50972258D01*
X44150571Y50974155D01*
X44118539Y50981432D01*
X44105441Y50985163D01*
X44074369Y50995862D01*
X43996900Y51009243D01*
X43990496Y51010523D01*
X43913856Y51027935D01*
X43881047Y51029999D01*
X43867547Y51031585D01*
X43835164Y51037179D01*
X43831207Y51037359D01*
X43831204Y51037359D01*
X43807494Y51038436D01*
X43807475Y51038436D01*
X43806075Y51038500D01*
X43749892Y51038500D01*
X43741980Y51038749D01*
X43736386Y51039101D01*
X43671587Y51043178D01*
X43632545Y51039350D01*
X43630008Y51039101D01*
X43617712Y51038500D01*
X38744031Y51038500D01*
X38675910Y51058502D01*
X38629417Y51112158D01*
X38619313Y51182432D01*
X38648807Y51247012D01*
X38654936Y51253595D01*
X41738375Y54337034D01*
X42346257Y54337034D01*
X42376565Y54202554D01*
X42379645Y54192725D01*
X42459770Y53995397D01*
X42464413Y53986206D01*
X42575694Y53804612D01*
X42581777Y53796301D01*
X42721213Y53635333D01*
X42728580Y53628117D01*
X42892434Y53492084D01*
X42900881Y53486169D01*
X43084756Y53378721D01*
X43094042Y53374271D01*
X43293001Y53298297D01*
X43302899Y53295421D01*
X43406250Y53274394D01*
X43420299Y53275590D01*
X43424000Y53285935D01*
X43424000Y53286483D01*
X43932000Y53286483D01*
X43936064Y53272641D01*
X43949478Y53270607D01*
X43956184Y53271466D01*
X43966262Y53273608D01*
X44170255Y53334809D01*
X44179842Y53338567D01*
X44371095Y53432261D01*
X44379945Y53437536D01*
X44553328Y53561208D01*
X44561200Y53567861D01*
X44712052Y53718188D01*
X44718730Y53726035D01*
X44843003Y53898980D01*
X44848313Y53907817D01*
X44942670Y54098733D01*
X44946469Y54108328D01*
X45008377Y54312090D01*
X45010555Y54322163D01*
X45011986Y54333038D01*
X45009775Y54347222D01*
X44996617Y54351000D01*
X43950115Y54351000D01*
X43934876Y54346525D01*
X43933671Y54345135D01*
X43932000Y54337452D01*
X43932000Y53286483D01*
X43424000Y53286483D01*
X43424000Y54332885D01*
X43419525Y54348124D01*
X43418135Y54349329D01*
X43410452Y54351000D01*
X42361225Y54351000D01*
X42347694Y54347027D01*
X42346257Y54337034D01*
X41738375Y54337034D01*
X42229203Y54827862D01*
X42291515Y54861888D01*
X42351604Y54860285D01*
X42356292Y54859000D01*
X44996344Y54859000D01*
X45009875Y54862973D01*
X45011180Y54872053D01*
X44969214Y55039125D01*
X44965894Y55048876D01*
X44880972Y55244186D01*
X44876105Y55253261D01*
X44760426Y55432074D01*
X44754136Y55440243D01*
X44610806Y55597760D01*
X44603273Y55604785D01*
X44503550Y55683541D01*
X44462487Y55741458D01*
X44459255Y55812381D01*
X44494880Y55873793D01*
X44514500Y55889043D01*
X44580283Y55930469D01*
X44580285Y55930470D01*
X44584567Y55933167D01*
X44630166Y55973367D01*
X44762858Y56090350D01*
X44762861Y56090353D01*
X44766655Y56093698D01*
X44769866Y56097607D01*
X44917526Y56277372D01*
X44917528Y56277375D01*
X44920734Y56281278D01*
X45042841Y56491078D01*
X45129833Y56717702D01*
X45179474Y56955320D01*
X45190486Y57197817D01*
X45162585Y57438956D01*
X45096490Y57672532D01*
X45094356Y57677108D01*
X45094354Y57677114D01*
X44996038Y57887954D01*
X44996036Y57887958D01*
X44993901Y57892536D01*
X44857456Y58093307D01*
X44690668Y58269681D01*
X44632093Y58314465D01*
X44590125Y58371730D01*
X44585780Y58442593D01*
X44625297Y58509075D01*
X44762858Y58630350D01*
X44762861Y58630353D01*
X44766655Y58633698D01*
X44773978Y58642613D01*
X44917526Y58817372D01*
X44917528Y58817375D01*
X44920734Y58821278D01*
X45042841Y59031078D01*
X45129833Y59257702D01*
X45179474Y59495320D01*
X45190486Y59737817D01*
X45189905Y59742841D01*
X45174736Y59873938D01*
X47538493Y59873938D01*
X47547789Y59861923D01*
X47598994Y59826069D01*
X47608489Y59820586D01*
X47805947Y59728510D01*
X47816239Y59724764D01*
X48026688Y59668375D01*
X48037481Y59666472D01*
X48254525Y59647483D01*
X48265475Y59647483D01*
X48482519Y59666472D01*
X48493312Y59668375D01*
X48703761Y59724764D01*
X48714053Y59728510D01*
X48911511Y59820586D01*
X48921006Y59826069D01*
X48973048Y59862509D01*
X48981424Y59872988D01*
X48974356Y59886434D01*
X48272812Y60587978D01*
X48258868Y60595592D01*
X48257035Y60595461D01*
X48250420Y60591210D01*
X47544923Y59885713D01*
X47538493Y59873938D01*
X45174736Y59873938D01*
X45163167Y59973929D01*
X45163166Y59973933D01*
X45162585Y59978956D01*
X45096490Y60212532D01*
X45094356Y60217108D01*
X45094354Y60217114D01*
X44996038Y60427954D01*
X44996036Y60427958D01*
X44993901Y60432536D01*
X44857456Y60633307D01*
X44690668Y60809681D01*
X44632093Y60854465D01*
X44590125Y60911730D01*
X44587501Y60954525D01*
X46947483Y60954525D01*
X46966472Y60737481D01*
X46968375Y60726688D01*
X47024764Y60516239D01*
X47028510Y60505947D01*
X47120586Y60308489D01*
X47126069Y60298994D01*
X47162509Y60246952D01*
X47172988Y60238576D01*
X47186434Y60245644D01*
X47887978Y60947188D01*
X47894356Y60958868D01*
X48624408Y60958868D01*
X48624539Y60957035D01*
X48628790Y60950420D01*
X49334287Y60244923D01*
X49346062Y60238493D01*
X49358077Y60247789D01*
X49393931Y60298994D01*
X49399414Y60308489D01*
X49491490Y60505947D01*
X49495236Y60516239D01*
X49551625Y60726688D01*
X49553528Y60737481D01*
X49572517Y60954525D01*
X49572517Y60965475D01*
X49553528Y61182519D01*
X49551625Y61193312D01*
X49495236Y61403761D01*
X49491490Y61414053D01*
X49399414Y61611511D01*
X49393931Y61621006D01*
X49357491Y61673048D01*
X49347012Y61681424D01*
X49333566Y61674356D01*
X48632022Y60972812D01*
X48624408Y60958868D01*
X47894356Y60958868D01*
X47895592Y60961132D01*
X47895461Y60962965D01*
X47891210Y60969580D01*
X47185713Y61675077D01*
X47173938Y61681507D01*
X47161923Y61672211D01*
X47126069Y61621006D01*
X47120586Y61611511D01*
X47028510Y61414053D01*
X47024764Y61403761D01*
X46968375Y61193312D01*
X46966472Y61182519D01*
X46947483Y60965475D01*
X46947483Y60954525D01*
X44587501Y60954525D01*
X44585780Y60982593D01*
X44625297Y61049075D01*
X44762858Y61170350D01*
X44762861Y61170353D01*
X44766655Y61173698D01*
X44782766Y61193312D01*
X44917526Y61357372D01*
X44917528Y61357375D01*
X44920734Y61361278D01*
X45042841Y61571078D01*
X45056711Y61607210D01*
X45128020Y61792978D01*
X45128021Y61792982D01*
X45129833Y61797702D01*
X45130878Y61802702D01*
X45178440Y62030369D01*
X45178440Y62030373D01*
X45179474Y62035320D01*
X45180005Y62047012D01*
X47538576Y62047012D01*
X47545644Y62033566D01*
X48247188Y61332022D01*
X48261132Y61324408D01*
X48262965Y61324539D01*
X48269580Y61328790D01*
X48975077Y62034287D01*
X48981507Y62046062D01*
X48972211Y62058077D01*
X48921006Y62093931D01*
X48911511Y62099414D01*
X48714053Y62191490D01*
X48703761Y62195236D01*
X48493312Y62251625D01*
X48482519Y62253528D01*
X48265475Y62272517D01*
X48254525Y62272517D01*
X48037481Y62253528D01*
X48026688Y62251625D01*
X47816239Y62195236D01*
X47805947Y62191490D01*
X47608489Y62099414D01*
X47598994Y62093931D01*
X47546952Y62057491D01*
X47538576Y62047012D01*
X45180005Y62047012D01*
X45190486Y62277817D01*
X45182363Y62348022D01*
X45163167Y62513929D01*
X45163166Y62513933D01*
X45162585Y62518956D01*
X45096490Y62752532D01*
X45094356Y62757108D01*
X45094354Y62757114D01*
X44996038Y62967954D01*
X44996036Y62967958D01*
X44993901Y62972536D01*
X44857456Y63173307D01*
X44853977Y63176986D01*
X44853973Y63176991D01*
X44759126Y63277289D01*
X44726854Y63340527D01*
X44733894Y63411174D01*
X44775109Y63464688D01*
X44884081Y63546358D01*
X44891261Y63551739D01*
X44978615Y63668295D01*
X45029745Y63804684D01*
X45036500Y63866866D01*
X45036500Y64070785D01*
X45050728Y64125405D01*
X45049470Y64125981D01*
X45051574Y64130577D01*
X45054045Y64134998D01*
X45137070Y64363105D01*
X45182556Y64601553D01*
X45189334Y64844205D01*
X45157229Y65084820D01*
X45087067Y65317208D01*
X45049252Y65394741D01*
X45036500Y65449975D01*
X45036500Y65663134D01*
X45029745Y65725316D01*
X44978615Y65861705D01*
X44891261Y65978261D01*
X44774705Y66065615D01*
X44638316Y66116745D01*
X44576134Y66123500D01*
X44374443Y66123500D01*
X44327237Y66132677D01*
X44320174Y66135531D01*
X44307839Y66141309D01*
X44283346Y66154442D01*
X44278891Y66156831D01*
X44274110Y66158477D01*
X44274106Y66158479D01*
X44204599Y66182412D01*
X44198421Y66184722D01*
X44130266Y66212258D01*
X44130267Y66212258D01*
X44125571Y66214155D01*
X44093539Y66221432D01*
X44080441Y66225163D01*
X44049369Y66235862D01*
X43971900Y66249243D01*
X43965496Y66250523D01*
X43888856Y66267935D01*
X43856047Y66269999D01*
X43842547Y66271585D01*
X43810164Y66277179D01*
X43806207Y66277359D01*
X43806204Y66277359D01*
X43782494Y66278436D01*
X43782475Y66278436D01*
X43781075Y66278500D01*
X43724892Y66278500D01*
X43716980Y66278749D01*
X43711386Y66279101D01*
X43646587Y66283178D01*
X43607545Y66279350D01*
X43605008Y66279101D01*
X43592712Y66278500D01*
X34893224Y66278500D01*
X34825103Y66298502D01*
X34778610Y66352158D01*
X34768506Y66422432D01*
X34793127Y66481027D01*
X34800120Y66490174D01*
X34843995Y66572001D01*
X34846135Y66575830D01*
X34890291Y66651696D01*
X34890293Y66651700D01*
X34892841Y66656078D01*
X34894655Y66660803D01*
X34894661Y66660816D01*
X34899484Y66673382D01*
X34906071Y66687771D01*
X34912441Y66699651D01*
X34912442Y66699654D01*
X34914831Y66704109D01*
X34916476Y66708887D01*
X34916481Y66708898D01*
X34945064Y66791910D01*
X34946568Y66796043D01*
X34978018Y66877972D01*
X34978020Y66877980D01*
X34979833Y66882702D01*
X34983623Y66900841D01*
X34987823Y66916092D01*
X34992215Y66928848D01*
X34993862Y66933631D01*
X35009676Y67025187D01*
X35010489Y67029446D01*
X35028440Y67115368D01*
X35028441Y67115374D01*
X35029474Y67120320D01*
X35030315Y67138839D01*
X35032023Y67154563D01*
X35034504Y67168929D01*
X35035179Y67172836D01*
X35036500Y67201925D01*
X35036500Y67272188D01*
X35036630Y67277904D01*
X35040256Y67357763D01*
X35040486Y67362817D01*
X35037335Y67390051D01*
X35036500Y67404532D01*
X35036500Y69485500D01*
X35056502Y69553621D01*
X35110158Y69600114D01*
X35162500Y69611500D01*
X48321001Y69611500D01*
X48323509Y69611702D01*
X48323514Y69611702D01*
X48496924Y69625654D01*
X48496929Y69625655D01*
X48501965Y69626060D01*
X48506873Y69627266D01*
X48506876Y69627266D01*
X48732792Y69682756D01*
X48737706Y69683963D01*
X48742358Y69685938D01*
X48742362Y69685939D01*
X48956498Y69776835D01*
X48961156Y69778812D01*
X49037646Y69826981D01*
X49162288Y69905472D01*
X49162291Y69905474D01*
X49166567Y69908167D01*
X49212166Y69948367D01*
X49344858Y70065350D01*
X49344861Y70065353D01*
X49348655Y70068698D01*
X49502734Y70256278D01*
X49624841Y70466078D01*
X49658481Y70553713D01*
X49710020Y70687978D01*
X49710021Y70687982D01*
X49711833Y70692702D01*
X49712868Y70697655D01*
X49760440Y70925369D01*
X49760440Y70925373D01*
X49761474Y70930320D01*
X49772486Y71172817D01*
X49771905Y71177841D01*
X49745167Y71408929D01*
X49745166Y71408933D01*
X49744585Y71413956D01*
X49735421Y71446343D01*
X49681306Y71637580D01*
X49678490Y71647532D01*
X49676356Y71652108D01*
X49676354Y71652114D01*
X49578038Y71862954D01*
X49578036Y71862958D01*
X49575901Y71867536D01*
X49573063Y71871712D01*
X49573059Y71871719D01*
X49516680Y71954677D01*
X49494934Y72022262D01*
X49513178Y72090874D01*
X49565621Y72138731D01*
X49620892Y72151500D01*
X53626646Y72151500D01*
X53694767Y72131498D01*
X53715741Y72114595D01*
X54668595Y71161741D01*
X54702621Y71099429D01*
X54705500Y71072646D01*
X54705500Y50998016D01*
X54705451Y50994498D01*
X54703282Y50916831D01*
X54702666Y50894795D01*
X54712616Y50820229D01*
X54713058Y50816914D01*
X54713758Y50810361D01*
X54720060Y50732035D01*
X54727897Y50700130D01*
X54730426Y50686742D01*
X54734771Y50654180D01*
X54736232Y50649339D01*
X54736233Y50649337D01*
X54757478Y50578971D01*
X54759219Y50572610D01*
X54777963Y50496294D01*
X54779941Y50491634D01*
X54790801Y50466049D01*
X54795438Y50453239D01*
X54804933Y50421792D01*
X54807151Y50417244D01*
X54807154Y50417237D01*
X54839371Y50351182D01*
X54842107Y50345180D01*
X54872812Y50272844D01*
X54875504Y50268570D01*
X54890319Y50245044D01*
X54896945Y50233140D01*
X54911346Y50203612D01*
X54914265Y50199475D01*
X54914265Y50199474D01*
X54956641Y50139403D01*
X54960301Y50133914D01*
X55002167Y50067433D01*
X55005508Y50063644D01*
X55005512Y50063638D01*
X55023898Y50042783D01*
X55032344Y50032088D01*
X55051274Y50005253D01*
X55070909Y49983750D01*
X55110625Y49944034D01*
X55116044Y49938264D01*
X55159350Y49889142D01*
X55159353Y49889139D01*
X55162698Y49885345D01*
X55166606Y49882135D01*
X55166607Y49882134D01*
X55194989Y49858821D01*
X55204108Y49850551D01*
X57396464Y47658195D01*
X57483176Y47584397D01*
X57522088Y47525017D01*
X57522719Y47454023D01*
X57484868Y47393958D01*
X57478391Y47388617D01*
X57474504Y47385624D01*
X57304520Y47230950D01*
X57297494Y47223417D01*
X57155055Y47043056D01*
X57149350Y47034469D01*
X57038286Y46833278D01*
X57034056Y46823866D01*
X56957341Y46607232D01*
X56954707Y46597261D01*
X56937353Y46499837D01*
X56938813Y46486540D01*
X56953370Y46482000D01*
X59888096Y46482000D01*
X59901440Y46485918D01*
X59903427Y46500194D01*
X59893890Y46562515D01*
X59891501Y46572543D01*
X59820102Y46790988D01*
X59816105Y46800497D01*
X59709989Y47004344D01*
X59704495Y47013069D01*
X59566507Y47196852D01*
X59559664Y47204559D01*
X59393509Y47363340D01*
X59385497Y47369828D01*
X59368513Y47381414D01*
X59323511Y47436326D01*
X59315341Y47506851D01*
X59346596Y47570597D01*
X59354557Y47578547D01*
X59523103Y47732449D01*
X59523105Y47732451D01*
X59526836Y47735858D01*
X59639154Y47877568D01*
X59674473Y47922129D01*
X59674477Y47922135D01*
X59677618Y47926098D01*
X59796045Y48137998D01*
X59879070Y48366105D01*
X59880016Y48371065D01*
X59880019Y48371075D01*
X59883129Y48387381D01*
X59883900Y48390776D01*
X59884870Y48393515D01*
X59892564Y48436703D01*
X59892797Y48438013D01*
X59893076Y48439523D01*
X59923609Y48599586D01*
X59923610Y48599592D01*
X59924556Y48604553D01*
X59924697Y48609602D01*
X59925245Y48614644D01*
X59925249Y48614644D01*
X59925776Y48619788D01*
X59925608Y48619804D01*
X59926094Y48624943D01*
X59927001Y48630037D01*
X59928336Y48739360D01*
X59928376Y48741327D01*
X59931193Y48842151D01*
X59931193Y48842153D01*
X59931334Y48847205D01*
X59930665Y48852216D01*
X59930400Y48857276D01*
X59930546Y48857284D01*
X59930385Y48859940D01*
X59930234Y48859929D01*
X59929873Y48865092D01*
X59929936Y48870263D01*
X59917008Y48954753D01*
X59916669Y48957116D01*
X59899899Y49082799D01*
X59899229Y49087820D01*
X59894037Y49105018D01*
X59893982Y49105220D01*
X59893596Y49107744D01*
X59889015Y49121760D01*
X59888172Y49124445D01*
X59830532Y49315357D01*
X59830530Y49315361D01*
X59829067Y49320208D01*
X59722654Y49538388D01*
X59582726Y49736747D01*
X59563091Y49758250D01*
X57759405Y51561936D01*
X57725379Y51624248D01*
X57722500Y51651031D01*
X57722500Y60743330D01*
X60346160Y60743330D01*
X60351887Y60735680D01*
X60523042Y60630795D01*
X60531837Y60626313D01*
X60741988Y60539266D01*
X60751373Y60536217D01*
X60972554Y60483115D01*
X60982301Y60481572D01*
X61209070Y60463725D01*
X61218930Y60463725D01*
X61445699Y60481572D01*
X61455446Y60483115D01*
X61676627Y60536217D01*
X61686012Y60539266D01*
X61896163Y60626313D01*
X61904958Y60630795D01*
X62072445Y60733432D01*
X62081907Y60743890D01*
X62078124Y60752666D01*
X61226812Y61603978D01*
X61212868Y61611592D01*
X61211035Y61611461D01*
X61204420Y61607210D01*
X60352920Y60755710D01*
X60346160Y60743330D01*
X57722500Y60743330D01*
X57722500Y61971070D01*
X59701725Y61971070D01*
X59719572Y61744301D01*
X59721115Y61734554D01*
X59774217Y61513373D01*
X59777266Y61503988D01*
X59864313Y61293837D01*
X59868795Y61285042D01*
X59971432Y61117555D01*
X59981890Y61108093D01*
X59990666Y61111876D01*
X60841978Y61963188D01*
X60848356Y61974868D01*
X61578408Y61974868D01*
X61578539Y61973035D01*
X61582790Y61966420D01*
X62434290Y61114920D01*
X62446670Y61108160D01*
X62454320Y61113887D01*
X62559205Y61285042D01*
X62563687Y61293837D01*
X62650734Y61503988D01*
X62653783Y61513373D01*
X62706885Y61734554D01*
X62708428Y61744301D01*
X62726275Y61971070D01*
X62726275Y61980930D01*
X62708428Y62207699D01*
X62706885Y62217446D01*
X62653783Y62438627D01*
X62650734Y62448012D01*
X62563687Y62658163D01*
X62559205Y62666958D01*
X62456568Y62834445D01*
X62446110Y62843907D01*
X62437334Y62840124D01*
X61586022Y61988812D01*
X61578408Y61974868D01*
X60848356Y61974868D01*
X60849592Y61977132D01*
X60849461Y61978965D01*
X60845210Y61985580D01*
X59993710Y62837080D01*
X59981330Y62843840D01*
X59973680Y62838113D01*
X59868795Y62666958D01*
X59864313Y62658163D01*
X59777266Y62448012D01*
X59774217Y62438627D01*
X59721115Y62217446D01*
X59719572Y62207699D01*
X59701725Y61980930D01*
X59701725Y61971070D01*
X57722500Y61971070D01*
X57722500Y63208110D01*
X60346093Y63208110D01*
X60349876Y63199334D01*
X61201188Y62348022D01*
X61215132Y62340408D01*
X61216965Y62340539D01*
X61223580Y62344790D01*
X62075080Y63196290D01*
X62081840Y63208670D01*
X62076113Y63216320D01*
X61904958Y63321205D01*
X61896163Y63325687D01*
X61686012Y63412734D01*
X61676627Y63415783D01*
X61455446Y63468885D01*
X61445699Y63470428D01*
X61218930Y63488275D01*
X61209070Y63488275D01*
X60982301Y63470428D01*
X60972554Y63468885D01*
X60751373Y63415783D01*
X60741988Y63412734D01*
X60531837Y63325687D01*
X60523042Y63321205D01*
X60355555Y63218568D01*
X60346093Y63208110D01*
X57722500Y63208110D01*
X57722500Y70541938D01*
X60614170Y70541938D01*
X60623466Y70529923D01*
X60674671Y70494069D01*
X60684166Y70488586D01*
X60881624Y70396510D01*
X60891916Y70392764D01*
X61102365Y70336375D01*
X61113158Y70334472D01*
X61330202Y70315483D01*
X61341152Y70315483D01*
X61558196Y70334472D01*
X61568989Y70336375D01*
X61779438Y70392764D01*
X61789730Y70396510D01*
X61987188Y70488586D01*
X61996683Y70494069D01*
X62048725Y70530509D01*
X62057101Y70540988D01*
X62050033Y70554434D01*
X61348489Y71255978D01*
X61334545Y71263592D01*
X61332712Y71263461D01*
X61326097Y71259210D01*
X60620600Y70553713D01*
X60614170Y70541938D01*
X57722500Y70541938D01*
X57722500Y71005393D01*
X57730099Y71048489D01*
X57736904Y71067183D01*
X57743480Y71085252D01*
X57745052Y71089345D01*
X57777937Y71170739D01*
X57779832Y71175429D01*
X57783939Y71193506D01*
X57788407Y71208686D01*
X57793014Y71221342D01*
X57793016Y71221349D01*
X57794747Y71226105D01*
X57812141Y71317290D01*
X57813040Y71321595D01*
X57832492Y71407212D01*
X57832493Y71407219D01*
X57833612Y71412144D01*
X57834033Y71418823D01*
X57834776Y71430644D01*
X57836759Y71446343D01*
X57839284Y71459579D01*
X57840233Y71464553D01*
X57842826Y71557372D01*
X57843026Y71561763D01*
X57846849Y71622525D01*
X60023160Y71622525D01*
X60042149Y71405481D01*
X60044052Y71394688D01*
X60100441Y71184239D01*
X60104187Y71173947D01*
X60196263Y70976489D01*
X60201746Y70966994D01*
X60238186Y70914952D01*
X60248665Y70906576D01*
X60262111Y70913644D01*
X60963655Y71615188D01*
X60970033Y71626868D01*
X61700085Y71626868D01*
X61700216Y71625035D01*
X61704467Y71618420D01*
X62409964Y70912923D01*
X62421739Y70906493D01*
X62433754Y70915789D01*
X62469608Y70966994D01*
X62475091Y70976489D01*
X62567167Y71173947D01*
X62570913Y71184239D01*
X62627302Y71394688D01*
X62629205Y71405481D01*
X62648194Y71622525D01*
X62648194Y71633475D01*
X62629205Y71850519D01*
X62627302Y71861312D01*
X62570913Y72071761D01*
X62567167Y72082053D01*
X62475091Y72279511D01*
X62469608Y72289006D01*
X62433168Y72341048D01*
X62422689Y72349424D01*
X62409243Y72342356D01*
X61707699Y71640812D01*
X61700085Y71626868D01*
X60970033Y71626868D01*
X60971269Y71629132D01*
X60971138Y71630965D01*
X60966887Y71637580D01*
X60261390Y72343077D01*
X60249615Y72349507D01*
X60237600Y72340211D01*
X60201746Y72289006D01*
X60196263Y72279511D01*
X60104187Y72082053D01*
X60100441Y72071761D01*
X60044052Y71861312D01*
X60042149Y71850519D01*
X60023160Y71633475D01*
X60023160Y71622525D01*
X57846849Y71622525D01*
X57847265Y71629132D01*
X57848855Y71654412D01*
X57847046Y71672862D01*
X57846493Y71688675D01*
X57847011Y71707205D01*
X57834734Y71799218D01*
X57834228Y71803586D01*
X57825660Y71890965D01*
X57825660Y71890966D01*
X57825166Y71896002D01*
X57823873Y71900894D01*
X57823872Y71900902D01*
X57820430Y71913930D01*
X57817357Y71929449D01*
X57815576Y71942798D01*
X57814906Y71947820D01*
X57788069Y72036708D01*
X57786878Y72040917D01*
X57764451Y72125802D01*
X57764450Y72125805D01*
X57763158Y72130695D01*
X57755616Y72147635D01*
X57750103Y72162460D01*
X57746210Y72175354D01*
X57746208Y72175360D01*
X57744744Y72180208D01*
X57704015Y72263714D01*
X57702181Y72267649D01*
X57666481Y72347833D01*
X57666480Y72347834D01*
X57664423Y72352455D01*
X57654273Y72367966D01*
X57646460Y72381720D01*
X57640551Y72393836D01*
X57638331Y72398388D01*
X57614328Y72432414D01*
X57584790Y72474287D01*
X57582318Y72477925D01*
X57534277Y72551339D01*
X57534277Y72551340D01*
X57531503Y72555578D01*
X57519005Y72569265D01*
X57509097Y72581588D01*
X57498403Y72596747D01*
X57478768Y72618250D01*
X57429102Y72667916D01*
X57425151Y72672049D01*
X57385921Y72715012D01*
X60614253Y72715012D01*
X60621321Y72701566D01*
X61322865Y72000022D01*
X61336809Y71992408D01*
X61338642Y71992539D01*
X61345257Y71996790D01*
X62050754Y72702287D01*
X62057184Y72714062D01*
X62047888Y72726077D01*
X61996683Y72761931D01*
X61987188Y72767414D01*
X61789730Y72859490D01*
X61779438Y72863236D01*
X61568989Y72919625D01*
X61558196Y72921528D01*
X61341152Y72940517D01*
X61330202Y72940517D01*
X61113158Y72921528D01*
X61102365Y72919625D01*
X60891916Y72863236D01*
X60881624Y72859490D01*
X60684166Y72767414D01*
X60674671Y72761931D01*
X60622629Y72725491D01*
X60614253Y72715012D01*
X57385921Y72715012D01*
X57371228Y72731103D01*
X57371226Y72731105D01*
X57367819Y72734836D01*
X57346330Y72751868D01*
X57335500Y72761518D01*
X56569721Y73527297D01*
X66724743Y73527297D01*
X66762268Y73242266D01*
X66838129Y72964964D01*
X66839813Y72961016D01*
X66945149Y72714062D01*
X66950923Y72700524D01*
X67098561Y72453839D01*
X67278313Y72229472D01*
X67399368Y72114595D01*
X67477009Y72040917D01*
X67486851Y72031577D01*
X67720317Y71863814D01*
X67724112Y71861805D01*
X67724113Y71861804D01*
X67745427Y71850519D01*
X67974392Y71729288D01*
X67998699Y71720393D01*
X68211090Y71642669D01*
X68244373Y71630489D01*
X68525264Y71569245D01*
X68553841Y71566996D01*
X68748282Y71551693D01*
X68748291Y71551693D01*
X68750739Y71551500D01*
X68906271Y71551500D01*
X68908407Y71551646D01*
X68908418Y71551646D01*
X69116548Y71565835D01*
X69116554Y71565836D01*
X69120825Y71566127D01*
X69125020Y71566996D01*
X69125022Y71566996D01*
X69357733Y71615188D01*
X69402342Y71624426D01*
X69673343Y71720393D01*
X69928812Y71852250D01*
X69932313Y71854711D01*
X69932317Y71854713D01*
X70064794Y71947820D01*
X70164023Y72017559D01*
X70290741Y72135313D01*
X70371479Y72210339D01*
X70371481Y72210342D01*
X70374622Y72213260D01*
X70556713Y72435732D01*
X70706927Y72680858D01*
X70822483Y72944102D01*
X70901244Y73220594D01*
X70941751Y73505216D01*
X70941845Y73523049D01*
X70943235Y73788417D01*
X70943235Y73788424D01*
X70943257Y73792703D01*
X70905732Y74077734D01*
X70829871Y74355036D01*
X70776643Y74479826D01*
X70718763Y74615524D01*
X70718761Y74615528D01*
X70717077Y74619476D01*
X70585422Y74839456D01*
X70571643Y74862479D01*
X70571640Y74862483D01*
X70569439Y74866161D01*
X70389687Y75090528D01*
X70181149Y75288423D01*
X69947683Y75456186D01*
X69925843Y75467750D01*
X69902654Y75480028D01*
X69693608Y75590712D01*
X69423627Y75689511D01*
X69142736Y75750755D01*
X69111685Y75753199D01*
X68919718Y75768307D01*
X68919709Y75768307D01*
X68917261Y75768500D01*
X68761729Y75768500D01*
X68759593Y75768354D01*
X68759582Y75768354D01*
X68551452Y75754165D01*
X68551446Y75754164D01*
X68547175Y75753873D01*
X68542980Y75753004D01*
X68542978Y75753004D01*
X68406416Y75724723D01*
X68265658Y75695574D01*
X67994657Y75599607D01*
X67739188Y75467750D01*
X67735687Y75465289D01*
X67735683Y75465287D01*
X67725594Y75458196D01*
X67503977Y75302441D01*
X67488892Y75288423D01*
X67296908Y75110020D01*
X67293378Y75106740D01*
X67111287Y74884268D01*
X66961073Y74639142D01*
X66845517Y74375898D01*
X66766756Y74099406D01*
X66726249Y73814784D01*
X66726227Y73810495D01*
X66726226Y73810488D01*
X66725161Y73607183D01*
X66724743Y73527297D01*
X56569721Y73527297D01*
X55387351Y74709667D01*
X55384897Y74712189D01*
X55319815Y74781012D01*
X55319812Y74781015D01*
X55316345Y74784681D01*
X55253916Y74832411D01*
X55248785Y74836552D01*
X55192810Y74884191D01*
X55192809Y74884192D01*
X55188957Y74887470D01*
X55184632Y74890089D01*
X55184627Y74890093D01*
X55160853Y74904491D01*
X55149606Y74912163D01*
X55123503Y74932120D01*
X55054269Y74969243D01*
X55048545Y74972507D01*
X55042941Y74975901D01*
X54981319Y75013221D01*
X54950858Y75025528D01*
X54938518Y75031308D01*
X54914027Y75044440D01*
X54914028Y75044440D01*
X54909568Y75046831D01*
X54904787Y75048477D01*
X54904783Y75048479D01*
X54835276Y75072412D01*
X54829098Y75074722D01*
X54760943Y75102258D01*
X54760944Y75102258D01*
X54756248Y75104155D01*
X54724216Y75111432D01*
X54711118Y75115163D01*
X54680046Y75125862D01*
X54602577Y75139243D01*
X54596173Y75140523D01*
X54519533Y75157935D01*
X54486724Y75159999D01*
X54473224Y75161585D01*
X54440841Y75167179D01*
X54436884Y75167359D01*
X54436881Y75167359D01*
X54413171Y75168436D01*
X54413152Y75168436D01*
X54411752Y75168500D01*
X54355569Y75168500D01*
X54347657Y75168749D01*
X54342063Y75169101D01*
X54277264Y75173178D01*
X54238222Y75169350D01*
X54235685Y75169101D01*
X54223389Y75168500D01*
X43626999Y75168500D01*
X43624491Y75168298D01*
X43624486Y75168298D01*
X43451076Y75154346D01*
X43451071Y75154345D01*
X43446035Y75153940D01*
X43441127Y75152734D01*
X43441124Y75152734D01*
X43215208Y75097244D01*
X43210294Y75096037D01*
X43205642Y75094062D01*
X43205638Y75094061D01*
X43154637Y75072412D01*
X42986844Y75001188D01*
X42936110Y74969239D01*
X42785712Y74874528D01*
X42785709Y74874526D01*
X42781433Y74871833D01*
X42736714Y74832408D01*
X42603142Y74714650D01*
X42603139Y74714647D01*
X42599345Y74711302D01*
X42596135Y74707394D01*
X42596134Y74707393D01*
X42520673Y74615524D01*
X42445266Y74523722D01*
X42442724Y74519354D01*
X42361519Y74379830D01*
X42323159Y74313922D01*
X42321346Y74309199D01*
X42239185Y74095159D01*
X42236167Y74087298D01*
X42235133Y74082348D01*
X42235132Y74082345D01*
X42196396Y73896924D01*
X42186526Y73849680D01*
X42175514Y73607183D01*
X42176095Y73602163D01*
X42176095Y73602159D01*
X42185249Y73523049D01*
X42203415Y73366044D01*
X42204791Y73361180D01*
X42204792Y73361177D01*
X42243371Y73224841D01*
X42269510Y73132468D01*
X42271644Y73127892D01*
X42271646Y73127886D01*
X42369962Y72917046D01*
X42372099Y72912464D01*
X42374937Y72908288D01*
X42374941Y72908281D01*
X42431320Y72825323D01*
X42453066Y72757738D01*
X42434822Y72689126D01*
X42382379Y72641269D01*
X42327108Y72628500D01*
X35162500Y72628500D01*
X35094379Y72648502D01*
X35047886Y72702158D01*
X35036500Y72754500D01*
X35036500Y73721001D01*
X35036298Y73723514D01*
X35022346Y73896924D01*
X35022345Y73896929D01*
X35021940Y73901965D01*
X34974488Y74095159D01*
X34965244Y74132792D01*
X34964037Y74137706D01*
X34869188Y74361156D01*
X34766814Y74523722D01*
X34742528Y74562288D01*
X34742526Y74562291D01*
X34739833Y74566567D01*
X34672626Y74642799D01*
X34582650Y74744858D01*
X34582647Y74744861D01*
X34579302Y74748655D01*
X34472294Y74836552D01*
X34395628Y74899526D01*
X34395625Y74899528D01*
X34391722Y74902734D01*
X34274763Y74970806D01*
X34186290Y75022299D01*
X34186288Y75022300D01*
X34181922Y75024841D01*
X34165075Y75031308D01*
X33960022Y75110020D01*
X33960018Y75110021D01*
X33955298Y75111833D01*
X33950348Y75112867D01*
X33950345Y75112868D01*
X33722631Y75160440D01*
X33722627Y75160440D01*
X33717680Y75161474D01*
X33475183Y75172486D01*
X33470163Y75171905D01*
X33470159Y75171905D01*
X33239071Y75145167D01*
X33239067Y75145166D01*
X33234044Y75144585D01*
X33229180Y75143209D01*
X33229177Y75143208D01*
X33100302Y75106740D01*
X33000468Y75078490D01*
X32995892Y75076356D01*
X32995886Y75076354D01*
X32785046Y74978038D01*
X32785042Y74978036D01*
X32780464Y74975901D01*
X32579693Y74839456D01*
X32403319Y74672668D01*
X32400241Y74668642D01*
X32400240Y74668641D01*
X32258953Y74483846D01*
X32258950Y74483842D01*
X32255880Y74479826D01*
X32141169Y74265891D01*
X32062138Y74036369D01*
X32020821Y73797164D01*
X32019500Y73768075D01*
X32019500Y71157812D01*
X32019370Y71152097D01*
X32015514Y71067183D01*
X32016095Y71062163D01*
X32016095Y71062159D01*
X32018665Y71039950D01*
X32019500Y71025468D01*
X32019500Y68869537D01*
X31999498Y68801416D01*
X31945842Y68754923D01*
X31928610Y68748932D01*
X31928640Y68748841D01*
X31923841Y68747245D01*
X31918924Y68746037D01*
X31914264Y68744059D01*
X31888679Y68733199D01*
X31875869Y68728562D01*
X31844422Y68719067D01*
X31839874Y68716849D01*
X31839867Y68716846D01*
X31773812Y68684629D01*
X31767810Y68681893D01*
X31723126Y68662925D01*
X31695474Y68651188D01*
X31671162Y68635877D01*
X31667674Y68633681D01*
X31655770Y68627055D01*
X31626242Y68612654D01*
X31622105Y68609735D01*
X31622104Y68609735D01*
X31562033Y68567359D01*
X31556544Y68563699D01*
X31494344Y68524529D01*
X31490063Y68521833D01*
X31486274Y68518492D01*
X31486268Y68518488D01*
X31465413Y68500102D01*
X31454718Y68491656D01*
X31427883Y68472726D01*
X31406380Y68453091D01*
X31366664Y68413375D01*
X31360894Y68407956D01*
X31311772Y68364650D01*
X31311769Y68364647D01*
X31307975Y68361302D01*
X31304765Y68357394D01*
X31304764Y68357393D01*
X31281451Y68329011D01*
X31273181Y68319892D01*
X30695095Y67741806D01*
X30632783Y67707780D01*
X30561968Y67712845D01*
X30505132Y67755392D01*
X30480321Y67821912D01*
X30480000Y67830901D01*
X30480000Y78105500D01*
X30500002Y78173621D01*
X30553658Y78220114D01*
X30606000Y78231500D01*
X73025500Y78231500D01*
X73093621Y78211498D01*
G37*
%TD.AperFunction*%
%TD*%
%TA.AperFunction,Conductor*%
%TO.N,+24V*%
G36*
X58108121Y13441998D02*
G01*
X58154614Y13388342D01*
X58166000Y13336000D01*
X58166000Y634500D01*
X58145998Y566379D01*
X58092342Y519886D01*
X58040000Y508500D01*
X50926000Y508500D01*
X50857879Y528502D01*
X50811386Y582158D01*
X50800000Y634500D01*
X50800000Y13336000D01*
X50820002Y13404121D01*
X50873658Y13450614D01*
X50926000Y13462000D01*
X58040000Y13462000D01*
X58108121Y13441998D01*
G37*
%TD.AperFunction*%
%TD*%
%TA.AperFunction,Conductor*%
%TO.N,GND*%
G36*
X29153186Y78211498D02*
G01*
X29199679Y78157842D01*
X29211065Y78105432D01*
X29168955Y634432D01*
X29148916Y566322D01*
X29095235Y519858D01*
X29042955Y508500D01*
X634500Y508500D01*
X566379Y528502D01*
X519886Y582158D01*
X508500Y634500D01*
X508500Y5201297D01*
X3224743Y5201297D01*
X3262268Y4916266D01*
X3338129Y4638964D01*
X3450923Y4374524D01*
X3598561Y4127839D01*
X3778313Y3903472D01*
X3986851Y3705577D01*
X4220317Y3537814D01*
X4224112Y3535805D01*
X4224113Y3535804D01*
X4245869Y3524285D01*
X4474392Y3403288D01*
X4744373Y3304489D01*
X5025264Y3243245D01*
X5053841Y3240996D01*
X5248282Y3225693D01*
X5248291Y3225693D01*
X5250739Y3225500D01*
X5406271Y3225500D01*
X5408407Y3225646D01*
X5408418Y3225646D01*
X5616548Y3239835D01*
X5616554Y3239836D01*
X5620825Y3240127D01*
X5625020Y3240996D01*
X5625022Y3240996D01*
X5761584Y3269277D01*
X5902342Y3298426D01*
X6173343Y3394393D01*
X6428812Y3526250D01*
X6432313Y3528711D01*
X6432317Y3528713D01*
X6546418Y3608905D01*
X6664023Y3691559D01*
X6874622Y3887260D01*
X7056713Y4109732D01*
X7206927Y4354858D01*
X7322483Y4618102D01*
X7401244Y4894594D01*
X7441751Y5179216D01*
X7441845Y5197049D01*
X7443235Y5462417D01*
X7443235Y5462424D01*
X7443257Y5466703D01*
X7405732Y5751734D01*
X7329871Y6029036D01*
X7217077Y6293476D01*
X7069439Y6540161D01*
X6889687Y6764528D01*
X6681149Y6962423D01*
X6447683Y7130186D01*
X6425843Y7141750D01*
X6402654Y7154028D01*
X6193608Y7264712D01*
X5923627Y7363511D01*
X5642736Y7424755D01*
X5611685Y7427199D01*
X5419718Y7442307D01*
X5419709Y7442307D01*
X5417261Y7442500D01*
X5261729Y7442500D01*
X5259593Y7442354D01*
X5259582Y7442354D01*
X5051452Y7428165D01*
X5051446Y7428164D01*
X5047175Y7427873D01*
X5042980Y7427004D01*
X5042978Y7427004D01*
X4906417Y7398724D01*
X4765658Y7369574D01*
X4494657Y7273607D01*
X4239188Y7141750D01*
X4235687Y7139289D01*
X4235683Y7139287D01*
X4225594Y7132196D01*
X4003977Y6976441D01*
X3793378Y6780740D01*
X3611287Y6558268D01*
X3461073Y6313142D01*
X3345517Y6049898D01*
X3266756Y5773406D01*
X3226249Y5488784D01*
X3226227Y5484495D01*
X3226226Y5484488D01*
X3224765Y5205583D01*
X3224743Y5201297D01*
X508500Y5201297D01*
X508500Y8623478D01*
X24625273Y8623478D01*
X24672764Y8446239D01*
X24676510Y8435947D01*
X24768586Y8238489D01*
X24774069Y8228993D01*
X24899028Y8050533D01*
X24906084Y8042125D01*
X25060125Y7888084D01*
X25068533Y7881028D01*
X25246993Y7756069D01*
X25256489Y7750586D01*
X25453947Y7658510D01*
X25464239Y7654764D01*
X25636503Y7608606D01*
X25650599Y7608942D01*
X25654000Y7616884D01*
X25654000Y7622033D01*
X26162000Y7622033D01*
X26165973Y7608502D01*
X26174522Y7607273D01*
X26351761Y7654764D01*
X26362053Y7658510D01*
X26559511Y7750586D01*
X26569007Y7756069D01*
X26747467Y7881028D01*
X26755875Y7888084D01*
X26909916Y8042125D01*
X26916972Y8050533D01*
X27041931Y8228993D01*
X27047414Y8238489D01*
X27139490Y8435947D01*
X27143236Y8446239D01*
X27189394Y8618503D01*
X27189058Y8632599D01*
X27181116Y8636000D01*
X26180115Y8636000D01*
X26164876Y8631525D01*
X26163671Y8630135D01*
X26162000Y8622452D01*
X26162000Y7622033D01*
X25654000Y7622033D01*
X25654000Y8617885D01*
X25649525Y8633124D01*
X25648135Y8634329D01*
X25640452Y8636000D01*
X24640033Y8636000D01*
X24626502Y8632027D01*
X24625273Y8623478D01*
X508500Y8623478D01*
X508500Y19018587D01*
X4064822Y19018587D01*
X4088511Y18776998D01*
X4089802Y18772113D01*
X4149227Y18547192D01*
X4149229Y18547186D01*
X4150519Y18542304D01*
X4208608Y18411836D01*
X4219500Y18360591D01*
X4219500Y18146866D01*
X4226255Y18084684D01*
X4277385Y17948295D01*
X4364739Y17831739D01*
X4459640Y17760615D01*
X4477398Y17747306D01*
X4519913Y17690447D01*
X4524939Y17619628D01*
X4492571Y17559146D01*
X4489345Y17556302D01*
X4401304Y17449119D01*
X4339854Y17374307D01*
X4335266Y17368722D01*
X4213159Y17158922D01*
X4211346Y17154199D01*
X4137669Y16962261D01*
X4126167Y16932298D01*
X4125133Y16927348D01*
X4125132Y16927345D01*
X4083025Y16725787D01*
X4076526Y16694680D01*
X4065514Y16452183D01*
X4066095Y16447163D01*
X4066095Y16447159D01*
X4081923Y16310369D01*
X4093415Y16211044D01*
X4094791Y16206180D01*
X4094792Y16206177D01*
X4140476Y16044734D01*
X4159510Y15977468D01*
X4161644Y15972892D01*
X4161646Y15972886D01*
X4259962Y15762046D01*
X4262099Y15757464D01*
X4398544Y15556693D01*
X4565332Y15380319D01*
X4622763Y15336410D01*
X4664729Y15279146D01*
X4669074Y15208283D01*
X4631194Y15143269D01*
X4475819Y15001393D01*
X4471164Y14997142D01*
X4450736Y14971368D01*
X4323527Y14810871D01*
X4323523Y14810865D01*
X4320382Y14806902D01*
X4250572Y14681992D01*
X4222078Y14631007D01*
X4201955Y14595002D01*
X4118930Y14366895D01*
X4117982Y14361926D01*
X4117981Y14361922D01*
X4074393Y14133422D01*
X4073444Y14128447D01*
X4066666Y13885795D01*
X4098771Y13645180D01*
X4100233Y13640339D01*
X4100233Y13640337D01*
X4137789Y13515947D01*
X4168933Y13412792D01*
X4275346Y13194612D01*
X4415274Y12996253D01*
X4434909Y12974750D01*
X7034325Y10375334D01*
X7036779Y10372812D01*
X7105332Y10300319D01*
X7167769Y10252582D01*
X7172868Y10248469D01*
X7232720Y10197530D01*
X7237045Y10194911D01*
X7237050Y10194907D01*
X7260824Y10180509D01*
X7272071Y10172837D01*
X7298174Y10152880D01*
X7367416Y10115753D01*
X7373137Y10112490D01*
X7413636Y10087963D01*
X7440357Y10071780D01*
X7470834Y10059466D01*
X7483150Y10053697D01*
X7512109Y10038169D01*
X7586433Y10012577D01*
X7592561Y10010286D01*
X7606963Y10004467D01*
X7660733Y9982742D01*
X7660737Y9982741D01*
X7665429Y9980845D01*
X7670368Y9979723D01*
X7670371Y9979722D01*
X7697460Y9973568D01*
X7710559Y9969837D01*
X7741631Y9959138D01*
X7819100Y9945757D01*
X7825504Y9944477D01*
X7902144Y9927065D01*
X7934953Y9925001D01*
X7948453Y9923415D01*
X7980836Y9917821D01*
X7984793Y9917641D01*
X7984796Y9917641D01*
X8008506Y9916564D01*
X8008525Y9916564D01*
X8009925Y9916500D01*
X8066107Y9916500D01*
X8074018Y9916251D01*
X8144412Y9911822D01*
X8185991Y9915899D01*
X8198287Y9916500D01*
X10719001Y9916500D01*
X10721509Y9916702D01*
X10721514Y9916702D01*
X10894924Y9930654D01*
X10894929Y9930655D01*
X10899965Y9931060D01*
X10904873Y9932266D01*
X10904876Y9932266D01*
X11130792Y9987756D01*
X11135706Y9988963D01*
X11140358Y9990938D01*
X11140362Y9990939D01*
X11301817Y10059473D01*
X11359156Y10083812D01*
X11465037Y10150489D01*
X11560288Y10210472D01*
X11560291Y10210474D01*
X11564567Y10213167D01*
X11663422Y10300319D01*
X11742858Y10370350D01*
X11742861Y10370353D01*
X11746655Y10373698D01*
X11754538Y10383295D01*
X11897526Y10557372D01*
X11897528Y10557375D01*
X11900734Y10561278D01*
X12022841Y10771078D01*
X12102051Y10977429D01*
X12108020Y10992978D01*
X12108021Y10992982D01*
X12109833Y10997702D01*
X12159474Y11235320D01*
X12165689Y11372183D01*
X19305514Y11372183D01*
X19306095Y11367163D01*
X19306095Y11367159D01*
X19323216Y11219194D01*
X19333415Y11131044D01*
X19334791Y11126180D01*
X19334792Y11126177D01*
X19375488Y10982359D01*
X19399510Y10897468D01*
X19401644Y10892892D01*
X19401646Y10892886D01*
X19487577Y10708606D01*
X19502099Y10677464D01*
X19638544Y10476693D01*
X19805332Y10300319D01*
X19809357Y10297242D01*
X19809359Y10297240D01*
X19994154Y10155953D01*
X19994158Y10155950D01*
X19998174Y10152880D01*
X20002628Y10150492D01*
X20002633Y10150489D01*
X20119244Y10087963D01*
X20212109Y10038169D01*
X20441631Y9959138D01*
X20540978Y9941978D01*
X20676926Y9918496D01*
X20676932Y9918495D01*
X20680836Y9917821D01*
X20684797Y9917641D01*
X20684798Y9917641D01*
X20708506Y9916564D01*
X20708525Y9916564D01*
X20709925Y9916500D01*
X24787946Y9916500D01*
X24856067Y9896498D01*
X24902560Y9842842D01*
X24912664Y9772568D01*
X24891159Y9718230D01*
X24774072Y9551012D01*
X24768586Y9541511D01*
X24676510Y9344053D01*
X24672764Y9333761D01*
X24626606Y9161497D01*
X24626942Y9147401D01*
X24634884Y9144000D01*
X27175967Y9144000D01*
X27189498Y9147973D01*
X27190727Y9156522D01*
X27143236Y9333761D01*
X27139490Y9344053D01*
X27047414Y9541511D01*
X27041931Y9551007D01*
X26916972Y9729467D01*
X26909916Y9737875D01*
X26755875Y9891916D01*
X26743254Y9902507D01*
X26744108Y9903525D01*
X26703776Y9953984D01*
X26696468Y10024603D01*
X26728500Y10087963D01*
X26789702Y10123947D01*
X26806762Y10127000D01*
X26818316Y10128255D01*
X26954705Y10179385D01*
X27071261Y10266739D01*
X27158615Y10383295D01*
X27209745Y10519684D01*
X27216500Y10581866D01*
X27216500Y10643335D01*
X27234724Y10708606D01*
X27258600Y10748030D01*
X27258601Y10748031D01*
X27261221Y10752358D01*
X27352155Y10977429D01*
X27387055Y11131044D01*
X27404815Y11209213D01*
X27404816Y11209216D01*
X27405935Y11214144D01*
X27407268Y11235320D01*
X27420860Y11451359D01*
X27421178Y11456413D01*
X27397489Y11698002D01*
X27335481Y11932696D01*
X27268432Y12083290D01*
X27238803Y12149836D01*
X27236746Y12154456D01*
X27233974Y12158691D01*
X27231877Y12162538D01*
X27216500Y12222858D01*
X27216500Y12278134D01*
X27209745Y12340316D01*
X27158615Y12476705D01*
X27071261Y12593261D01*
X26954705Y12680615D01*
X26818316Y12731745D01*
X26806771Y12732999D01*
X26804090Y12734113D01*
X26802778Y12734425D01*
X26802828Y12734637D01*
X26741210Y12760238D01*
X26700782Y12818599D01*
X26698323Y12889553D01*
X26734616Y12950572D01*
X26745225Y12959147D01*
X26755875Y12968084D01*
X26909916Y13122125D01*
X26916972Y13130533D01*
X27041931Y13308993D01*
X27047414Y13318489D01*
X27139490Y13515947D01*
X27143236Y13526239D01*
X27189394Y13698503D01*
X27189058Y13712599D01*
X27181116Y13716000D01*
X24640033Y13716000D01*
X24626502Y13712027D01*
X24625273Y13703478D01*
X24672764Y13526239D01*
X24676510Y13515947D01*
X24768586Y13318489D01*
X24774069Y13308994D01*
X24898162Y13131771D01*
X24920850Y13064497D01*
X24903565Y12995637D01*
X24851795Y12947052D01*
X24794949Y12933500D01*
X20756999Y12933500D01*
X20754491Y12933298D01*
X20754486Y12933298D01*
X20581076Y12919346D01*
X20581071Y12919345D01*
X20576035Y12918940D01*
X20571127Y12917734D01*
X20571124Y12917734D01*
X20345208Y12862244D01*
X20340294Y12861037D01*
X20335642Y12859062D01*
X20335638Y12859061D01*
X20240316Y12818599D01*
X20116844Y12766188D01*
X20063503Y12732597D01*
X19915712Y12639528D01*
X19915709Y12639526D01*
X19911433Y12636833D01*
X19865834Y12596633D01*
X19733142Y12479650D01*
X19733139Y12479647D01*
X19729345Y12476302D01*
X19726135Y12472394D01*
X19726134Y12472393D01*
X19611193Y12332460D01*
X19575266Y12288722D01*
X19453159Y12078922D01*
X19451346Y12074199D01*
X19397029Y11932696D01*
X19366167Y11852298D01*
X19365133Y11847348D01*
X19365132Y11847345D01*
X19332883Y11692975D01*
X19316526Y11614680D01*
X19305514Y11372183D01*
X12165689Y11372183D01*
X12170486Y11477817D01*
X12155235Y11609627D01*
X12143167Y11713929D01*
X12143166Y11713933D01*
X12142585Y11718956D01*
X12103517Y11857022D01*
X12077866Y11947669D01*
X12076490Y11952532D01*
X12074356Y11957108D01*
X12074354Y11957114D01*
X11976038Y12167954D01*
X11976036Y12167958D01*
X11973901Y12172536D01*
X11837456Y12373307D01*
X11670668Y12549681D01*
X11606630Y12598642D01*
X11481846Y12694047D01*
X11481842Y12694050D01*
X11477826Y12697120D01*
X11360112Y12760238D01*
X11268352Y12809439D01*
X11263891Y12811831D01*
X11034369Y12890862D01*
X10935022Y12908022D01*
X10799074Y12931504D01*
X10799068Y12931505D01*
X10795164Y12932179D01*
X10791203Y12932359D01*
X10791202Y12932359D01*
X10767494Y12933436D01*
X10767475Y12933436D01*
X10766075Y12933500D01*
X8795031Y12933500D01*
X8726910Y12953502D01*
X8705936Y12970405D01*
X6894936Y14781405D01*
X6860910Y14843717D01*
X6865975Y14914532D01*
X6908522Y14971368D01*
X6975042Y14996179D01*
X6984031Y14996500D01*
X10719001Y14996500D01*
X10721509Y14996702D01*
X10721514Y14996702D01*
X10894924Y15010654D01*
X10894929Y15010655D01*
X10899965Y15011060D01*
X10904873Y15012266D01*
X10904876Y15012266D01*
X11130792Y15067756D01*
X11135706Y15068963D01*
X11140358Y15070938D01*
X11140362Y15070939D01*
X11354498Y15161835D01*
X11359156Y15163812D01*
X11467730Y15232185D01*
X11560288Y15290472D01*
X11560291Y15290474D01*
X11564567Y15293167D01*
X11633477Y15353919D01*
X11742858Y15450350D01*
X11742861Y15450353D01*
X11746655Y15453698D01*
X11754538Y15463295D01*
X11897526Y15637372D01*
X11897528Y15637375D01*
X11900734Y15641278D01*
X12022841Y15851078D01*
X12109833Y16077702D01*
X12110878Y16082702D01*
X12158440Y16310369D01*
X12158440Y16310373D01*
X12159474Y16315320D01*
X12166888Y16478587D01*
X19304822Y16478587D01*
X19328511Y16236998D01*
X19390519Y16002304D01*
X19489254Y15780544D01*
X19622174Y15577422D01*
X19785858Y15398164D01*
X19857530Y15341358D01*
X19972129Y15250527D01*
X19972135Y15250523D01*
X19976098Y15247382D01*
X20053816Y15203947D01*
X20130972Y15160826D01*
X20187998Y15128955D01*
X20254904Y15104603D01*
X20411348Y15047661D01*
X20411353Y15047660D01*
X20416105Y15045930D01*
X20421074Y15044982D01*
X20421078Y15044981D01*
X20649017Y15001500D01*
X20654553Y15000444D01*
X20807240Y14996179D01*
X20892150Y14993807D01*
X20892153Y14993807D01*
X20897205Y14993666D01*
X20947622Y15000393D01*
X20964285Y15001500D01*
X24791447Y15001500D01*
X24859568Y14981498D01*
X24906061Y14927842D01*
X24916165Y14857568D01*
X24894660Y14803230D01*
X24774072Y14631012D01*
X24768586Y14621511D01*
X24676510Y14424053D01*
X24672764Y14413761D01*
X24626606Y14241497D01*
X24626942Y14227401D01*
X24634884Y14224000D01*
X27175967Y14224000D01*
X27189498Y14227973D01*
X27190727Y14236522D01*
X27143236Y14413761D01*
X27139490Y14424053D01*
X27047414Y14621511D01*
X27041931Y14631007D01*
X26916972Y14809467D01*
X26909916Y14817875D01*
X26755875Y14971916D01*
X26743254Y14982507D01*
X26744108Y14983525D01*
X26703776Y15033984D01*
X26696468Y15104603D01*
X26728500Y15167963D01*
X26789702Y15203947D01*
X26806762Y15207000D01*
X26818316Y15208255D01*
X26954705Y15259385D01*
X27071261Y15346739D01*
X27158615Y15463295D01*
X27209745Y15599684D01*
X27216500Y15661866D01*
X27216500Y15725278D01*
X27233602Y15788659D01*
X27234623Y15790413D01*
X27272841Y15856078D01*
X27327199Y15997686D01*
X27358020Y16077978D01*
X27358021Y16077982D01*
X27359833Y16082702D01*
X27360868Y16087655D01*
X27408440Y16315369D01*
X27408440Y16315373D01*
X27409474Y16320320D01*
X27420486Y16562817D01*
X27419905Y16567841D01*
X27393167Y16798929D01*
X27393166Y16798933D01*
X27392585Y16803956D01*
X27326490Y17037532D01*
X27324356Y17042108D01*
X27324354Y17042114D01*
X27228305Y17248092D01*
X27216500Y17301342D01*
X27216500Y17358134D01*
X27209745Y17420316D01*
X27158615Y17556705D01*
X27071261Y17673261D01*
X26954705Y17760615D01*
X26818316Y17811745D01*
X26806771Y17812999D01*
X26804090Y17814113D01*
X26802778Y17814425D01*
X26802828Y17814637D01*
X26741210Y17840238D01*
X26700782Y17898599D01*
X26698323Y17969553D01*
X26734616Y18030572D01*
X26745225Y18039147D01*
X26755875Y18048084D01*
X26909916Y18202125D01*
X26916972Y18210533D01*
X27041931Y18388993D01*
X27047414Y18398489D01*
X27139490Y18595947D01*
X27143236Y18606239D01*
X27189394Y18778503D01*
X27189058Y18792599D01*
X27181116Y18796000D01*
X24640033Y18796000D01*
X24626502Y18792027D01*
X24625273Y18783478D01*
X24672764Y18606239D01*
X24676510Y18595947D01*
X24768586Y18398489D01*
X24774072Y18388988D01*
X24894660Y18216770D01*
X24917348Y18149496D01*
X24900063Y18080636D01*
X24848293Y18032052D01*
X24791447Y18018500D01*
X20847016Y18018500D01*
X20843498Y18018549D01*
X20748850Y18021193D01*
X20748847Y18021193D01*
X20743795Y18021334D01*
X20665902Y18010941D01*
X20659361Y18010242D01*
X20630668Y18007933D01*
X20586077Y18004346D01*
X20586073Y18004345D01*
X20581035Y18003940D01*
X20549122Y17996101D01*
X20535742Y17993574D01*
X20503180Y17989229D01*
X20498339Y17987768D01*
X20498337Y17987767D01*
X20427971Y17966522D01*
X20421610Y17964781D01*
X20345294Y17946037D01*
X20340634Y17944059D01*
X20315049Y17933199D01*
X20302239Y17928562D01*
X20270792Y17919067D01*
X20266244Y17916849D01*
X20266237Y17916846D01*
X20200182Y17884629D01*
X20194180Y17881893D01*
X20149496Y17862925D01*
X20121844Y17851188D01*
X20104456Y17840238D01*
X20094044Y17833681D01*
X20082140Y17827055D01*
X20052612Y17812654D01*
X20048475Y17809735D01*
X20048474Y17809735D01*
X19988403Y17767359D01*
X19982914Y17763699D01*
X19920714Y17724529D01*
X19916433Y17721833D01*
X19912644Y17718492D01*
X19912638Y17718488D01*
X19891783Y17700102D01*
X19881088Y17691656D01*
X19854253Y17672726D01*
X19832750Y17653091D01*
X19793034Y17613375D01*
X19787264Y17607956D01*
X19734345Y17561302D01*
X19731135Y17557394D01*
X19731134Y17557393D01*
X19686983Y17503643D01*
X19685574Y17501957D01*
X19590530Y17390280D01*
X19581165Y17374816D01*
X19579775Y17375658D01*
X19579255Y17374307D01*
X19580264Y17373720D01*
X19574993Y17364664D01*
X19573872Y17362775D01*
X19568992Y17354717D01*
X19464779Y17182642D01*
X19373845Y16957571D01*
X19372725Y16952641D01*
X19336667Y16793929D01*
X19320065Y16720856D01*
X19319747Y16715809D01*
X19319747Y16715806D01*
X19309489Y16552763D01*
X19304822Y16478587D01*
X12166888Y16478587D01*
X12170486Y16557817D01*
X12155235Y16689627D01*
X12143167Y16793929D01*
X12143166Y16793933D01*
X12142585Y16798956D01*
X12103517Y16937022D01*
X12077866Y17027669D01*
X12076490Y17032532D01*
X12074356Y17037108D01*
X12074354Y17037114D01*
X11976038Y17247954D01*
X11976036Y17247958D01*
X11973901Y17252536D01*
X11837456Y17453307D01*
X11670668Y17629681D01*
X11606630Y17678642D01*
X11481846Y17774047D01*
X11481842Y17774050D01*
X11477826Y17777120D01*
X11411556Y17812654D01*
X11268352Y17889439D01*
X11263891Y17891831D01*
X11034369Y17970862D01*
X10897656Y17994476D01*
X10799074Y18011504D01*
X10799068Y18011505D01*
X10795164Y18012179D01*
X10791203Y18012359D01*
X10791202Y18012359D01*
X10767494Y18013436D01*
X10767475Y18013436D01*
X10766075Y18013500D01*
X7062101Y18013500D01*
X6993980Y18033502D01*
X6947487Y18087158D01*
X6936384Y18145794D01*
X6936500Y18146866D01*
X6936500Y18217969D01*
X6956502Y18286090D01*
X6973405Y18307064D01*
X8705936Y20039595D01*
X8768248Y20073621D01*
X8795031Y20076500D01*
X10719001Y20076500D01*
X10721509Y20076702D01*
X10721514Y20076702D01*
X10894924Y20090654D01*
X10894929Y20090655D01*
X10899965Y20091060D01*
X10904873Y20092266D01*
X10904876Y20092266D01*
X11130792Y20147756D01*
X11135706Y20148963D01*
X11140358Y20150938D01*
X11140362Y20150939D01*
X11354498Y20241835D01*
X11359156Y20243812D01*
X11465037Y20310489D01*
X11560288Y20370472D01*
X11560291Y20370474D01*
X11564567Y20373167D01*
X11663422Y20460319D01*
X11742858Y20530350D01*
X11742861Y20530353D01*
X11746655Y20533698D01*
X11754538Y20543295D01*
X11897526Y20717372D01*
X11897528Y20717375D01*
X11900734Y20721278D01*
X12022841Y20931078D01*
X12102051Y21137429D01*
X12108020Y21152978D01*
X12108021Y21152982D01*
X12109833Y21157702D01*
X12159474Y21395320D01*
X12165689Y21532183D01*
X19305514Y21532183D01*
X19306095Y21527163D01*
X19306095Y21527159D01*
X19323216Y21379194D01*
X19333415Y21291044D01*
X19334791Y21286180D01*
X19334792Y21286177D01*
X19375488Y21142359D01*
X19399510Y21057468D01*
X19401644Y21052892D01*
X19401646Y21052886D01*
X19487577Y20868606D01*
X19502099Y20837464D01*
X19638544Y20636693D01*
X19805332Y20460319D01*
X19809358Y20457241D01*
X19809359Y20457240D01*
X19994154Y20315953D01*
X19994158Y20315950D01*
X19998174Y20312880D01*
X20002632Y20310490D01*
X20002633Y20310489D01*
X20090002Y20263642D01*
X20212109Y20198169D01*
X20441631Y20119138D01*
X20540978Y20101978D01*
X20676926Y20078496D01*
X20676932Y20078495D01*
X20680836Y20077821D01*
X20684797Y20077641D01*
X20684798Y20077641D01*
X20708506Y20076564D01*
X20708525Y20076564D01*
X20709925Y20076500D01*
X24787946Y20076500D01*
X24856067Y20056498D01*
X24902560Y20002842D01*
X24912664Y19932568D01*
X24891159Y19878230D01*
X24774072Y19711012D01*
X24768586Y19701511D01*
X24676510Y19504053D01*
X24672764Y19493761D01*
X24626606Y19321497D01*
X24626942Y19307401D01*
X24634884Y19304000D01*
X27175967Y19304000D01*
X27189498Y19307973D01*
X27190727Y19316522D01*
X27143236Y19493761D01*
X27139490Y19504053D01*
X27047414Y19701511D01*
X27041931Y19711007D01*
X26916972Y19889467D01*
X26909916Y19897875D01*
X26755875Y20051916D01*
X26743254Y20062507D01*
X26744108Y20063525D01*
X26703776Y20113984D01*
X26696468Y20184603D01*
X26728500Y20247963D01*
X26789702Y20283947D01*
X26806762Y20287000D01*
X26818316Y20288255D01*
X26954705Y20339385D01*
X27071261Y20426739D01*
X27158615Y20543295D01*
X27209745Y20679684D01*
X27216500Y20741866D01*
X27216500Y20803335D01*
X27234724Y20868606D01*
X27258600Y20908030D01*
X27258601Y20908031D01*
X27261221Y20912358D01*
X27352155Y21137429D01*
X27387055Y21291044D01*
X27404815Y21369213D01*
X27404816Y21369216D01*
X27405935Y21374144D01*
X27407268Y21395320D01*
X27420860Y21611359D01*
X27421178Y21616413D01*
X27397489Y21858002D01*
X27335481Y22092696D01*
X27268432Y22243290D01*
X27238803Y22309836D01*
X27236746Y22314456D01*
X27233974Y22318691D01*
X27231877Y22322538D01*
X27216500Y22382858D01*
X27216500Y22438134D01*
X27209745Y22500316D01*
X27158615Y22636705D01*
X27071261Y22753261D01*
X26954705Y22840615D01*
X26818316Y22891745D01*
X26806771Y22892999D01*
X26804090Y22894113D01*
X26802778Y22894425D01*
X26802828Y22894637D01*
X26741210Y22920238D01*
X26700782Y22978599D01*
X26698323Y23049553D01*
X26734616Y23110572D01*
X26745225Y23119147D01*
X26755875Y23128084D01*
X26909916Y23282125D01*
X26916972Y23290533D01*
X27041931Y23468993D01*
X27047414Y23478489D01*
X27139490Y23675947D01*
X27143236Y23686239D01*
X27189394Y23858503D01*
X27189058Y23872599D01*
X27181116Y23876000D01*
X24640033Y23876000D01*
X24626502Y23872027D01*
X24625273Y23863478D01*
X24672764Y23686239D01*
X24676510Y23675947D01*
X24768586Y23478489D01*
X24774069Y23468994D01*
X24898162Y23291771D01*
X24920850Y23224497D01*
X24903565Y23155637D01*
X24851795Y23107052D01*
X24794949Y23093500D01*
X20756999Y23093500D01*
X20754491Y23093298D01*
X20754486Y23093298D01*
X20581076Y23079346D01*
X20581071Y23079345D01*
X20576035Y23078940D01*
X20571127Y23077734D01*
X20571124Y23077734D01*
X20345208Y23022244D01*
X20340294Y23021037D01*
X20335642Y23019062D01*
X20335638Y23019061D01*
X20271524Y22991846D01*
X20116844Y22926188D01*
X20063503Y22892597D01*
X19915712Y22799528D01*
X19915709Y22799526D01*
X19911433Y22796833D01*
X19865834Y22756633D01*
X19733142Y22639650D01*
X19733139Y22639647D01*
X19729345Y22636302D01*
X19726135Y22632394D01*
X19726134Y22632393D01*
X19611193Y22492460D01*
X19575266Y22448722D01*
X19453159Y22238922D01*
X19451346Y22234199D01*
X19397029Y22092696D01*
X19366167Y22012298D01*
X19365133Y22007348D01*
X19365132Y22007345D01*
X19332883Y21852975D01*
X19316526Y21774680D01*
X19305514Y21532183D01*
X12165689Y21532183D01*
X12170486Y21637817D01*
X12155235Y21769627D01*
X12143167Y21873929D01*
X12143166Y21873933D01*
X12142585Y21878956D01*
X12103517Y22017022D01*
X12077866Y22107669D01*
X12076490Y22112532D01*
X12074356Y22117108D01*
X12074354Y22117114D01*
X11976038Y22327954D01*
X11976036Y22327958D01*
X11973901Y22332536D01*
X11837456Y22533307D01*
X11670668Y22709681D01*
X11645319Y22729062D01*
X11481846Y22854047D01*
X11481842Y22854050D01*
X11477826Y22857120D01*
X11388445Y22905046D01*
X11268352Y22969439D01*
X11263891Y22971831D01*
X11034369Y23050862D01*
X10917184Y23071103D01*
X10799074Y23091504D01*
X10799068Y23091505D01*
X10795164Y23092179D01*
X10791203Y23092359D01*
X10791202Y23092359D01*
X10767494Y23093436D01*
X10767475Y23093436D01*
X10766075Y23093500D01*
X8142002Y23093500D01*
X8138483Y23093549D01*
X8043850Y23096193D01*
X8043847Y23096193D01*
X8038795Y23096334D01*
X7960902Y23085941D01*
X7954361Y23085242D01*
X7925668Y23082933D01*
X7881077Y23079346D01*
X7881073Y23079345D01*
X7876035Y23078940D01*
X7844122Y23071101D01*
X7830742Y23068574D01*
X7798180Y23064229D01*
X7793339Y23062768D01*
X7793337Y23062767D01*
X7722971Y23041522D01*
X7716610Y23039781D01*
X7640294Y23021037D01*
X7635634Y23019059D01*
X7610049Y23008199D01*
X7597239Y23003562D01*
X7565792Y22994067D01*
X7561244Y22991849D01*
X7561237Y22991846D01*
X7495182Y22959629D01*
X7489180Y22956893D01*
X7444496Y22937925D01*
X7416844Y22926188D01*
X7412560Y22923490D01*
X7389044Y22908681D01*
X7377140Y22902055D01*
X7347612Y22887654D01*
X7299972Y22854047D01*
X7283403Y22842359D01*
X7277914Y22838699D01*
X7215714Y22799529D01*
X7211433Y22796833D01*
X7207644Y22793492D01*
X7207638Y22793488D01*
X7186783Y22775102D01*
X7176088Y22766656D01*
X7149253Y22747726D01*
X7127750Y22728091D01*
X7088034Y22688375D01*
X7082264Y22682956D01*
X7033142Y22639650D01*
X7033139Y22639647D01*
X7029345Y22636302D01*
X7026135Y22632394D01*
X7026134Y22632393D01*
X7002821Y22604011D01*
X6994551Y22594892D01*
X4840064Y20440405D01*
X4777752Y20406379D01*
X4750969Y20403500D01*
X4679866Y20403500D01*
X4617684Y20396745D01*
X4481295Y20345615D01*
X4364739Y20258261D01*
X4277385Y20141705D01*
X4226255Y20005316D01*
X4219500Y19943134D01*
X4219500Y19734067D01*
X4210325Y19686867D01*
X4133845Y19497571D01*
X4132725Y19492641D01*
X4090640Y19307401D01*
X4080065Y19260856D01*
X4064822Y19018587D01*
X508500Y19018587D01*
X508500Y34243587D01*
X4089822Y34243587D01*
X4090316Y34238552D01*
X4110567Y34032027D01*
X4113511Y34001998D01*
X4114802Y33997113D01*
X4174227Y33772192D01*
X4174229Y33772186D01*
X4175519Y33767304D01*
X4233608Y33636836D01*
X4244500Y33585591D01*
X4244500Y33371866D01*
X4251255Y33309684D01*
X4302385Y33173295D01*
X4389739Y33056739D01*
X4471812Y32995229D01*
X4502398Y32972306D01*
X4544913Y32915447D01*
X4549939Y32844628D01*
X4517571Y32784146D01*
X4514345Y32781302D01*
X4360266Y32593722D01*
X4238159Y32383922D01*
X4236346Y32379199D01*
X4155024Y32167345D01*
X4151167Y32157298D01*
X4150133Y32152348D01*
X4150132Y32152345D01*
X4104660Y31934680D01*
X4101526Y31919680D01*
X4090514Y31677183D01*
X4091095Y31672163D01*
X4091095Y31672159D01*
X4117243Y31446177D01*
X4118415Y31436044D01*
X4184510Y31202468D01*
X4186644Y31197892D01*
X4186646Y31197886D01*
X4284962Y30987046D01*
X4287099Y30982464D01*
X4423544Y30781693D01*
X4590332Y30605319D01*
X4647763Y30561410D01*
X4689729Y30504146D01*
X4694074Y30433283D01*
X4656194Y30368269D01*
X4503738Y30229058D01*
X4496164Y30222142D01*
X4475736Y30196368D01*
X4348527Y30035871D01*
X4348523Y30035865D01*
X4345382Y30031902D01*
X4275572Y29906992D01*
X4250154Y29861511D01*
X4226955Y29820002D01*
X4225224Y29815245D01*
X4166448Y29653761D01*
X4143930Y29591895D01*
X4142982Y29586926D01*
X4142981Y29586922D01*
X4120291Y29467973D01*
X4098444Y29353447D01*
X4091666Y29110795D01*
X4123771Y28870180D01*
X4125233Y28865339D01*
X4125233Y28865337D01*
X4155153Y28766239D01*
X4193933Y28637792D01*
X4300346Y28419612D01*
X4303259Y28415483D01*
X4426601Y28240636D01*
X4440274Y28221253D01*
X4459909Y28199750D01*
X4460932Y28198727D01*
X7044342Y25615316D01*
X7046796Y25612794D01*
X7115332Y25540319D01*
X7119349Y25537248D01*
X7119352Y25537245D01*
X7177761Y25492588D01*
X7182892Y25488447D01*
X7242720Y25437530D01*
X7247046Y25434910D01*
X7247053Y25434905D01*
X7270824Y25420509D01*
X7282071Y25412837D01*
X7308174Y25392880D01*
X7377416Y25355753D01*
X7383137Y25352490D01*
X7450357Y25311780D01*
X7480834Y25299466D01*
X7493150Y25293697D01*
X7522109Y25278169D01*
X7596433Y25252577D01*
X7602561Y25250286D01*
X7634906Y25237218D01*
X7670733Y25222742D01*
X7670737Y25222741D01*
X7675429Y25220845D01*
X7680368Y25219723D01*
X7680371Y25219722D01*
X7707460Y25213568D01*
X7720559Y25209837D01*
X7751631Y25199138D01*
X7829100Y25185757D01*
X7835504Y25184477D01*
X7912144Y25167065D01*
X7944953Y25165001D01*
X7958453Y25163415D01*
X7990836Y25157821D01*
X7994793Y25157641D01*
X7994796Y25157641D01*
X8018506Y25156564D01*
X8018525Y25156564D01*
X8019925Y25156500D01*
X8076107Y25156500D01*
X8084018Y25156251D01*
X8154412Y25151822D01*
X8195991Y25155899D01*
X8208287Y25156500D01*
X10719001Y25156500D01*
X10721509Y25156702D01*
X10721514Y25156702D01*
X10894924Y25170654D01*
X10894929Y25170655D01*
X10899965Y25171060D01*
X10904873Y25172266D01*
X10904876Y25172266D01*
X11130792Y25227756D01*
X11135706Y25228963D01*
X11140358Y25230938D01*
X11140362Y25230939D01*
X11301817Y25299473D01*
X11359156Y25323812D01*
X11435646Y25371981D01*
X11560288Y25450472D01*
X11560291Y25450474D01*
X11564567Y25453167D01*
X11633477Y25513919D01*
X11742858Y25610350D01*
X11742861Y25610353D01*
X11746655Y25613698D01*
X11754538Y25623295D01*
X11897526Y25797372D01*
X11897528Y25797375D01*
X11900734Y25801278D01*
X12022841Y26011078D01*
X12109833Y26237702D01*
X12110878Y26242702D01*
X12158440Y26470369D01*
X12158440Y26470373D01*
X12159474Y26475320D01*
X12166888Y26638587D01*
X19304822Y26638587D01*
X19328511Y26396998D01*
X19390519Y26162304D01*
X19489254Y25940544D01*
X19622174Y25737422D01*
X19785858Y25558164D01*
X19883083Y25481105D01*
X19972129Y25410527D01*
X19972135Y25410523D01*
X19976098Y25407382D01*
X20053816Y25363947D01*
X20179524Y25293691D01*
X20187998Y25288955D01*
X20254904Y25264603D01*
X20411348Y25207661D01*
X20411353Y25207660D01*
X20416105Y25205930D01*
X20421074Y25204982D01*
X20421078Y25204981D01*
X20638989Y25163413D01*
X20654553Y25160444D01*
X20810051Y25156100D01*
X20892150Y25153807D01*
X20892153Y25153807D01*
X20897205Y25153666D01*
X20947622Y25160393D01*
X20964285Y25161500D01*
X24791447Y25161500D01*
X24859568Y25141498D01*
X24906061Y25087842D01*
X24916165Y25017568D01*
X24894660Y24963230D01*
X24774072Y24791012D01*
X24768586Y24781511D01*
X24676510Y24584053D01*
X24672764Y24573761D01*
X24626606Y24401497D01*
X24626942Y24387401D01*
X24634884Y24384000D01*
X27175967Y24384000D01*
X27189498Y24387973D01*
X27190727Y24396522D01*
X27143236Y24573761D01*
X27139490Y24584053D01*
X27047414Y24781511D01*
X27041931Y24791007D01*
X26916972Y24969467D01*
X26909916Y24977875D01*
X26755875Y25131916D01*
X26743254Y25142507D01*
X26744108Y25143525D01*
X26703776Y25193984D01*
X26696468Y25264603D01*
X26728500Y25327963D01*
X26789702Y25363947D01*
X26806762Y25367000D01*
X26818316Y25368255D01*
X26954705Y25419385D01*
X27071261Y25506739D01*
X27158615Y25623295D01*
X27209745Y25759684D01*
X27216500Y25821866D01*
X27216500Y25885278D01*
X27233602Y25948659D01*
X27234623Y25950413D01*
X27272841Y26016078D01*
X27327199Y26157686D01*
X27358020Y26237978D01*
X27358021Y26237982D01*
X27359833Y26242702D01*
X27392067Y26396998D01*
X27408440Y26475369D01*
X27408440Y26475373D01*
X27409474Y26480320D01*
X27420486Y26722817D01*
X27419905Y26727841D01*
X27393167Y26958929D01*
X27393166Y26958933D01*
X27392585Y26963956D01*
X27326490Y27197532D01*
X27324356Y27202108D01*
X27324354Y27202114D01*
X27228305Y27408092D01*
X27216500Y27461342D01*
X27216500Y27518134D01*
X27209745Y27580316D01*
X27158615Y27716705D01*
X27071261Y27833261D01*
X26954705Y27920615D01*
X26818316Y27971745D01*
X26806771Y27972999D01*
X26804090Y27974113D01*
X26802778Y27974425D01*
X26802828Y27974637D01*
X26741210Y28000238D01*
X26700782Y28058599D01*
X26698323Y28129553D01*
X26734616Y28190572D01*
X26745225Y28199147D01*
X26755875Y28208084D01*
X26909916Y28362125D01*
X26916972Y28370533D01*
X27041931Y28548993D01*
X27047414Y28558489D01*
X27139490Y28755947D01*
X27143236Y28766239D01*
X27189394Y28938503D01*
X27189058Y28952599D01*
X27181116Y28956000D01*
X24640033Y28956000D01*
X24626502Y28952027D01*
X24625273Y28943478D01*
X24672764Y28766239D01*
X24676510Y28755947D01*
X24768586Y28558489D01*
X24774072Y28548988D01*
X24894660Y28376770D01*
X24917348Y28309496D01*
X24900063Y28240636D01*
X24848293Y28192052D01*
X24791447Y28178500D01*
X20847016Y28178500D01*
X20843498Y28178549D01*
X20748850Y28181193D01*
X20748847Y28181193D01*
X20743795Y28181334D01*
X20665902Y28170941D01*
X20659361Y28170242D01*
X20630668Y28167933D01*
X20586077Y28164346D01*
X20586073Y28164345D01*
X20581035Y28163940D01*
X20549122Y28156101D01*
X20535742Y28153574D01*
X20503180Y28149229D01*
X20498339Y28147768D01*
X20498337Y28147767D01*
X20427971Y28126522D01*
X20421610Y28124781D01*
X20345294Y28106037D01*
X20340634Y28104059D01*
X20315049Y28093199D01*
X20302239Y28088562D01*
X20270792Y28079067D01*
X20266244Y28076849D01*
X20266237Y28076846D01*
X20200182Y28044629D01*
X20194180Y28041893D01*
X20149496Y28022925D01*
X20121844Y28011188D01*
X20104456Y28000238D01*
X20094044Y27993681D01*
X20082140Y27987055D01*
X20052612Y27972654D01*
X20048475Y27969735D01*
X20048474Y27969735D01*
X19988403Y27927359D01*
X19982914Y27923699D01*
X19920714Y27884529D01*
X19916433Y27881833D01*
X19912644Y27878492D01*
X19912638Y27878488D01*
X19891783Y27860102D01*
X19881088Y27851656D01*
X19854253Y27832726D01*
X19832750Y27813091D01*
X19793034Y27773375D01*
X19787264Y27767956D01*
X19734345Y27721302D01*
X19731135Y27717394D01*
X19731134Y27717393D01*
X19686983Y27663643D01*
X19685574Y27661957D01*
X19590530Y27550280D01*
X19581165Y27534816D01*
X19579775Y27535658D01*
X19579255Y27534307D01*
X19580264Y27533720D01*
X19574993Y27524664D01*
X19573872Y27522775D01*
X19568992Y27514717D01*
X19464779Y27342642D01*
X19373845Y27117571D01*
X19372725Y27112641D01*
X19336667Y26953929D01*
X19320065Y26880856D01*
X19319747Y26875809D01*
X19319747Y26875806D01*
X19309489Y26712763D01*
X19304822Y26638587D01*
X12166888Y26638587D01*
X12170486Y26717817D01*
X12142585Y26958956D01*
X12076490Y27192532D01*
X12074356Y27197108D01*
X12074354Y27197114D01*
X11976038Y27407954D01*
X11976036Y27407958D01*
X11973901Y27412536D01*
X11837456Y27613307D01*
X11670668Y27789681D01*
X11606630Y27838642D01*
X11481846Y27934047D01*
X11481842Y27934050D01*
X11477826Y27937120D01*
X11411556Y27972654D01*
X11268352Y28049439D01*
X11263891Y28051831D01*
X11034369Y28130862D01*
X10897656Y28154476D01*
X10799074Y28171504D01*
X10799068Y28171505D01*
X10795164Y28172179D01*
X10791203Y28172359D01*
X10791202Y28172359D01*
X10767494Y28173436D01*
X10767475Y28173436D01*
X10766075Y28173500D01*
X8805031Y28173500D01*
X8736910Y28193502D01*
X8715936Y28210405D01*
X6919936Y30006405D01*
X6885910Y30068717D01*
X6890975Y30139532D01*
X6933522Y30196368D01*
X7000042Y30221179D01*
X7009031Y30221500D01*
X10618984Y30221500D01*
X10622502Y30221451D01*
X10717150Y30218807D01*
X10717153Y30218807D01*
X10722205Y30218666D01*
X10800098Y30229059D01*
X10806639Y30229758D01*
X10835332Y30232067D01*
X10879923Y30235654D01*
X10879927Y30235655D01*
X10884965Y30236060D01*
X10916878Y30243899D01*
X10930258Y30246426D01*
X10962820Y30250771D01*
X10967661Y30252232D01*
X10967663Y30252233D01*
X11038029Y30273478D01*
X11044392Y30275219D01*
X11060348Y30279138D01*
X11120706Y30293963D01*
X11150952Y30306801D01*
X11163763Y30311439D01*
X11190362Y30319470D01*
X11195208Y30320933D01*
X11199756Y30323151D01*
X11199763Y30323154D01*
X11265818Y30355371D01*
X11271820Y30358107D01*
X11337121Y30385826D01*
X11344156Y30388812D01*
X11371956Y30406319D01*
X11383860Y30412945D01*
X11413388Y30427346D01*
X11477600Y30472643D01*
X11483086Y30476301D01*
X11545286Y30515471D01*
X11545287Y30515472D01*
X11549567Y30518167D01*
X11553356Y30521508D01*
X11553362Y30521512D01*
X11574217Y30539898D01*
X11584912Y30548344D01*
X11587863Y30550426D01*
X11611747Y30567274D01*
X11633250Y30586909D01*
X11672971Y30626629D01*
X11678739Y30632046D01*
X11727868Y30675359D01*
X11727870Y30675361D01*
X11731655Y30678698D01*
X11734855Y30682594D01*
X11734860Y30682599D01*
X11758174Y30710983D01*
X11764345Y30717787D01*
X11764307Y30717822D01*
X11766017Y30719675D01*
X11767805Y30721463D01*
X11885470Y30859720D01*
X12011221Y31067358D01*
X12102155Y31292429D01*
X12134783Y31436044D01*
X12154815Y31524213D01*
X12154816Y31524216D01*
X12155935Y31529144D01*
X12156568Y31539194D01*
X12166193Y31692183D01*
X19305514Y31692183D01*
X19306095Y31687163D01*
X19306095Y31687159D01*
X19323216Y31539194D01*
X19333415Y31451044D01*
X19334791Y31446180D01*
X19334792Y31446177D01*
X19339037Y31431177D01*
X19399510Y31217468D01*
X19401644Y31212892D01*
X19401646Y31212886D01*
X19469507Y31067358D01*
X19502099Y30997464D01*
X19638544Y30796693D01*
X19805332Y30620319D01*
X19809358Y30617241D01*
X19809359Y30617240D01*
X19994154Y30475953D01*
X19994158Y30475950D01*
X19998174Y30472880D01*
X20002632Y30470490D01*
X20002633Y30470489D01*
X20109947Y30412948D01*
X20212109Y30358169D01*
X20441631Y30279138D01*
X20540978Y30261978D01*
X20676926Y30238496D01*
X20676932Y30238495D01*
X20680836Y30237821D01*
X20684797Y30237641D01*
X20684798Y30237641D01*
X20708506Y30236564D01*
X20708525Y30236564D01*
X20709925Y30236500D01*
X24787946Y30236500D01*
X24856067Y30216498D01*
X24902560Y30162842D01*
X24912664Y30092568D01*
X24891159Y30038230D01*
X24774072Y29871012D01*
X24768586Y29861511D01*
X24676510Y29664053D01*
X24672764Y29653761D01*
X24626606Y29481497D01*
X24626942Y29467401D01*
X24634884Y29464000D01*
X27175967Y29464000D01*
X27189498Y29467973D01*
X27190727Y29476522D01*
X27143236Y29653761D01*
X27139490Y29664053D01*
X27047414Y29861511D01*
X27041931Y29871007D01*
X26916972Y30049467D01*
X26909916Y30057875D01*
X26755875Y30211916D01*
X26743254Y30222507D01*
X26744108Y30223525D01*
X26703776Y30273984D01*
X26696468Y30344603D01*
X26728500Y30407963D01*
X26789702Y30443947D01*
X26806762Y30447000D01*
X26818316Y30448255D01*
X26954705Y30499385D01*
X27071261Y30586739D01*
X27158615Y30703295D01*
X27209745Y30839684D01*
X27216500Y30901866D01*
X27216500Y30963335D01*
X27234724Y31028606D01*
X27258600Y31068030D01*
X27258601Y31068031D01*
X27261221Y31072358D01*
X27352155Y31297429D01*
X27382542Y31431177D01*
X27404815Y31529213D01*
X27404816Y31529216D01*
X27405935Y31534144D01*
X27415879Y31692183D01*
X27420860Y31771359D01*
X27421178Y31776413D01*
X27397489Y32018002D01*
X27335481Y32252696D01*
X27268432Y32403290D01*
X27238803Y32469836D01*
X27236746Y32474456D01*
X27233974Y32478691D01*
X27231877Y32482538D01*
X27216500Y32542858D01*
X27216500Y32598134D01*
X27209745Y32660316D01*
X27158615Y32796705D01*
X27071261Y32913261D01*
X26954705Y33000615D01*
X26818316Y33051745D01*
X26806771Y33052999D01*
X26804090Y33054113D01*
X26802778Y33054425D01*
X26802828Y33054637D01*
X26741210Y33080238D01*
X26700782Y33138599D01*
X26698323Y33209553D01*
X26734616Y33270572D01*
X26745225Y33279147D01*
X26755875Y33288084D01*
X26909916Y33442125D01*
X26916972Y33450533D01*
X27041931Y33628993D01*
X27047414Y33638489D01*
X27139490Y33835947D01*
X27143236Y33846239D01*
X27189394Y34018503D01*
X27189058Y34032599D01*
X27181116Y34036000D01*
X24640033Y34036000D01*
X24626502Y34032027D01*
X24625273Y34023478D01*
X24672764Y33846239D01*
X24676510Y33835947D01*
X24768586Y33638489D01*
X24774069Y33628994D01*
X24898162Y33451771D01*
X24920850Y33384497D01*
X24903565Y33315637D01*
X24851795Y33267052D01*
X24794949Y33253500D01*
X20756999Y33253500D01*
X20754491Y33253298D01*
X20754486Y33253298D01*
X20581076Y33239346D01*
X20581071Y33239345D01*
X20576035Y33238940D01*
X20571127Y33237734D01*
X20571124Y33237734D01*
X20437932Y33205019D01*
X20340294Y33181037D01*
X20335642Y33179062D01*
X20335638Y33179061D01*
X20240316Y33138599D01*
X20116844Y33086188D01*
X20063503Y33052597D01*
X19915712Y32959528D01*
X19915709Y32959526D01*
X19911433Y32956833D01*
X19867675Y32918255D01*
X19733142Y32799650D01*
X19733139Y32799647D01*
X19729345Y32796302D01*
X19726135Y32792394D01*
X19726134Y32792393D01*
X19611193Y32652460D01*
X19575266Y32608722D01*
X19453159Y32398922D01*
X19451346Y32394199D01*
X19397029Y32252696D01*
X19366167Y32172298D01*
X19365133Y32167348D01*
X19365132Y32167345D01*
X19332883Y32012975D01*
X19316526Y31934680D01*
X19305514Y31692183D01*
X12166193Y31692183D01*
X12170860Y31766358D01*
X12171178Y31771412D01*
X12147489Y32013002D01*
X12085481Y32247696D01*
X11986746Y32469456D01*
X11853826Y32672578D01*
X11690142Y32851836D01*
X11561889Y32953488D01*
X11503871Y32999473D01*
X11503865Y32999477D01*
X11499902Y33002618D01*
X11374992Y33072428D01*
X11292422Y33118575D01*
X11292419Y33118576D01*
X11288002Y33121045D01*
X11128606Y33179061D01*
X11064652Y33202339D01*
X11064647Y33202340D01*
X11059895Y33204070D01*
X11054926Y33205018D01*
X11054922Y33205019D01*
X10826422Y33248607D01*
X10821447Y33249556D01*
X10665949Y33253900D01*
X10583850Y33256193D01*
X10583847Y33256193D01*
X10578795Y33256334D01*
X10527997Y33249556D01*
X10453433Y33239607D01*
X10436769Y33238500D01*
X7087101Y33238500D01*
X7018980Y33258502D01*
X6972487Y33312158D01*
X6961384Y33370794D01*
X6961500Y33371866D01*
X6961500Y33442969D01*
X6981502Y33511090D01*
X6998405Y33532064D01*
X8745936Y35279595D01*
X8808248Y35313621D01*
X8835031Y35316500D01*
X10719001Y35316500D01*
X10721509Y35316702D01*
X10721514Y35316702D01*
X10894924Y35330654D01*
X10894929Y35330655D01*
X10899965Y35331060D01*
X10904873Y35332266D01*
X10904876Y35332266D01*
X11130792Y35387756D01*
X11135706Y35388963D01*
X11140358Y35390938D01*
X11140362Y35390939D01*
X11354498Y35481835D01*
X11359156Y35483812D01*
X11491862Y35567382D01*
X11560288Y35610472D01*
X11560291Y35610474D01*
X11564567Y35613167D01*
X11687898Y35721897D01*
X11742858Y35770350D01*
X11742861Y35770353D01*
X11746655Y35773698D01*
X11754538Y35783295D01*
X11897526Y35957372D01*
X11897528Y35957375D01*
X11900734Y35961278D01*
X12022841Y36171078D01*
X12109833Y36397702D01*
X12110878Y36402702D01*
X12158440Y36630369D01*
X12158440Y36630373D01*
X12159474Y36635320D01*
X12166888Y36798587D01*
X19304822Y36798587D01*
X19328511Y36556998D01*
X19390519Y36322304D01*
X19489254Y36100544D01*
X19622174Y35897422D01*
X19785858Y35718164D01*
X19857530Y35661358D01*
X19972129Y35570527D01*
X19972135Y35570523D01*
X19976098Y35567382D01*
X20053816Y35523947D01*
X20116987Y35488642D01*
X20187998Y35448955D01*
X20254904Y35424603D01*
X20411348Y35367661D01*
X20411353Y35367660D01*
X20416105Y35365930D01*
X20421074Y35364982D01*
X20421078Y35364981D01*
X20649017Y35321500D01*
X20654553Y35320444D01*
X20810051Y35316100D01*
X20892150Y35313807D01*
X20892153Y35313807D01*
X20897205Y35313666D01*
X20947622Y35320393D01*
X20964285Y35321500D01*
X24791447Y35321500D01*
X24859568Y35301498D01*
X24906061Y35247842D01*
X24916165Y35177568D01*
X24894660Y35123230D01*
X24774072Y34951012D01*
X24768586Y34941511D01*
X24676510Y34744053D01*
X24672764Y34733761D01*
X24626606Y34561497D01*
X24626942Y34547401D01*
X24634884Y34544000D01*
X27175967Y34544000D01*
X27189498Y34547973D01*
X27190727Y34556522D01*
X27143236Y34733761D01*
X27139490Y34744053D01*
X27047414Y34941511D01*
X27041931Y34951007D01*
X26916972Y35129467D01*
X26909916Y35137875D01*
X26755875Y35291916D01*
X26743254Y35302507D01*
X26744108Y35303525D01*
X26703776Y35353984D01*
X26696468Y35424603D01*
X26728500Y35487963D01*
X26789702Y35523947D01*
X26806762Y35527000D01*
X26818316Y35528255D01*
X26954705Y35579385D01*
X27071261Y35666739D01*
X27158615Y35783295D01*
X27209745Y35919684D01*
X27216500Y35981866D01*
X27216500Y36045278D01*
X27233602Y36108659D01*
X27234623Y36110413D01*
X27272841Y36176078D01*
X27327199Y36317686D01*
X27358020Y36397978D01*
X27358021Y36397982D01*
X27359833Y36402702D01*
X27392067Y36556998D01*
X27408440Y36635369D01*
X27408440Y36635373D01*
X27409474Y36640320D01*
X27420486Y36882817D01*
X27419905Y36887841D01*
X27393167Y37118929D01*
X27393166Y37118933D01*
X27392585Y37123956D01*
X27326490Y37357532D01*
X27324356Y37362108D01*
X27324354Y37362114D01*
X27228305Y37568092D01*
X27216500Y37621342D01*
X27216500Y37678134D01*
X27209745Y37740316D01*
X27158615Y37876705D01*
X27071261Y37993261D01*
X26954705Y38080615D01*
X26818316Y38131745D01*
X26806771Y38132999D01*
X26804090Y38134113D01*
X26802778Y38134425D01*
X26802828Y38134637D01*
X26741210Y38160238D01*
X26700782Y38218599D01*
X26698323Y38289553D01*
X26734616Y38350572D01*
X26745225Y38359147D01*
X26755875Y38368084D01*
X26909916Y38522125D01*
X26916972Y38530533D01*
X27041931Y38708993D01*
X27047414Y38718489D01*
X27139490Y38915947D01*
X27143236Y38926239D01*
X27189394Y39098503D01*
X27189058Y39112599D01*
X27181116Y39116000D01*
X24640033Y39116000D01*
X24626502Y39112027D01*
X24625273Y39103478D01*
X24672764Y38926239D01*
X24676510Y38915947D01*
X24768586Y38718489D01*
X24774072Y38708988D01*
X24894660Y38536770D01*
X24917348Y38469496D01*
X24900063Y38400636D01*
X24848293Y38352052D01*
X24791447Y38338500D01*
X20847016Y38338500D01*
X20843498Y38338549D01*
X20748850Y38341193D01*
X20748847Y38341193D01*
X20743795Y38341334D01*
X20665902Y38330941D01*
X20659361Y38330242D01*
X20630668Y38327933D01*
X20586077Y38324346D01*
X20586073Y38324345D01*
X20581035Y38323940D01*
X20549122Y38316101D01*
X20535742Y38313574D01*
X20503180Y38309229D01*
X20498339Y38307768D01*
X20498337Y38307767D01*
X20427971Y38286522D01*
X20421610Y38284781D01*
X20345294Y38266037D01*
X20328855Y38259059D01*
X20315049Y38253199D01*
X20302239Y38248562D01*
X20270792Y38239067D01*
X20266244Y38236849D01*
X20266237Y38236846D01*
X20200182Y38204629D01*
X20194180Y38201893D01*
X20149496Y38182925D01*
X20121844Y38171188D01*
X20109630Y38163496D01*
X20094044Y38153681D01*
X20082140Y38147055D01*
X20052612Y38132654D01*
X20048475Y38129735D01*
X20048474Y38129735D01*
X19988403Y38087359D01*
X19982914Y38083699D01*
X19920714Y38044529D01*
X19916433Y38041833D01*
X19912644Y38038492D01*
X19912638Y38038488D01*
X19891783Y38020102D01*
X19881088Y38011656D01*
X19854253Y37992726D01*
X19832750Y37973091D01*
X19793034Y37933375D01*
X19787264Y37927956D01*
X19734345Y37881302D01*
X19731135Y37877394D01*
X19731134Y37877393D01*
X19686983Y37823643D01*
X19685574Y37821957D01*
X19590530Y37710280D01*
X19581165Y37694816D01*
X19579775Y37695658D01*
X19579255Y37694307D01*
X19580264Y37693720D01*
X19574993Y37684664D01*
X19573872Y37682775D01*
X19568992Y37674717D01*
X19464779Y37502642D01*
X19373845Y37277571D01*
X19372725Y37272641D01*
X19336667Y37113929D01*
X19320065Y37040856D01*
X19319747Y37035809D01*
X19319747Y37035806D01*
X19309489Y36872763D01*
X19304822Y36798587D01*
X12166888Y36798587D01*
X12170486Y36877817D01*
X12142585Y37118956D01*
X12076490Y37352532D01*
X12074356Y37357108D01*
X12074354Y37357114D01*
X11976038Y37567954D01*
X11976036Y37567958D01*
X11973901Y37572536D01*
X11837456Y37773307D01*
X11670668Y37949681D01*
X11638779Y37974062D01*
X11481846Y38094047D01*
X11481842Y38094050D01*
X11477826Y38097120D01*
X11411556Y38132654D01*
X11268352Y38209439D01*
X11263891Y38211831D01*
X11034369Y38290862D01*
X10897656Y38314476D01*
X10799074Y38331504D01*
X10799068Y38331505D01*
X10795164Y38332179D01*
X10791203Y38332359D01*
X10791202Y38332359D01*
X10767494Y38333436D01*
X10767475Y38333436D01*
X10766075Y38333500D01*
X8182016Y38333500D01*
X8178498Y38333549D01*
X8083850Y38336193D01*
X8083847Y38336193D01*
X8078795Y38336334D01*
X8000902Y38325941D01*
X7994361Y38325242D01*
X7965668Y38322933D01*
X7921077Y38319346D01*
X7921073Y38319345D01*
X7916035Y38318940D01*
X7884122Y38311101D01*
X7870742Y38308574D01*
X7838180Y38304229D01*
X7833339Y38302768D01*
X7833337Y38302767D01*
X7762971Y38281522D01*
X7756610Y38279781D01*
X7680294Y38261037D01*
X7675634Y38259059D01*
X7650049Y38248199D01*
X7637239Y38243562D01*
X7605792Y38234067D01*
X7601244Y38231849D01*
X7601237Y38231846D01*
X7535182Y38199629D01*
X7529180Y38196893D01*
X7484496Y38177925D01*
X7456844Y38166188D01*
X7447396Y38160238D01*
X7429044Y38148681D01*
X7417140Y38142055D01*
X7387612Y38127654D01*
X7325303Y38083699D01*
X7323403Y38082359D01*
X7317914Y38078699D01*
X7263654Y38044529D01*
X7251433Y38036833D01*
X7247644Y38033492D01*
X7247638Y38033488D01*
X7226783Y38015102D01*
X7216088Y38006656D01*
X7189253Y37987726D01*
X7186329Y37985056D01*
X7173226Y37973091D01*
X7167750Y37968091D01*
X7128034Y37928375D01*
X7122264Y37922956D01*
X7073142Y37879650D01*
X7073139Y37879647D01*
X7069345Y37876302D01*
X7066135Y37872394D01*
X7066134Y37872393D01*
X7042821Y37844011D01*
X7034551Y37834892D01*
X4865064Y35665405D01*
X4802752Y35631379D01*
X4775969Y35628500D01*
X4704866Y35628500D01*
X4642684Y35621745D01*
X4506295Y35570615D01*
X4389739Y35483261D01*
X4302385Y35366705D01*
X4251255Y35230316D01*
X4244500Y35168134D01*
X4244500Y34959067D01*
X4235325Y34911867D01*
X4158845Y34722571D01*
X4157725Y34717641D01*
X4119048Y34547401D01*
X4105065Y34485856D01*
X4089822Y34243587D01*
X508500Y34243587D01*
X508500Y49498587D01*
X3810822Y49498587D01*
X3834511Y49256998D01*
X3835802Y49252113D01*
X3895227Y49027192D01*
X3895229Y49027186D01*
X3896519Y49022304D01*
X3954608Y48891836D01*
X3965500Y48840591D01*
X3965500Y48626866D01*
X3972255Y48564684D01*
X4023385Y48428295D01*
X4110739Y48311739D01*
X4205640Y48240615D01*
X4223398Y48227306D01*
X4265913Y48170447D01*
X4270939Y48099628D01*
X4238571Y48039146D01*
X4235345Y48036302D01*
X4147304Y47929119D01*
X4117193Y47892460D01*
X4081266Y47848722D01*
X3959159Y47638922D01*
X3957346Y47634199D01*
X3903029Y47492696D01*
X3872167Y47412298D01*
X3871133Y47407348D01*
X3871132Y47407345D01*
X3838883Y47252975D01*
X3822526Y47174680D01*
X3811514Y46932183D01*
X3812095Y46927163D01*
X3812095Y46927159D01*
X3829216Y46779194D01*
X3839415Y46691044D01*
X3840791Y46686180D01*
X3840792Y46686177D01*
X3881488Y46542359D01*
X3905510Y46457468D01*
X3907644Y46452892D01*
X3907646Y46452886D01*
X3993577Y46268606D01*
X4008099Y46237464D01*
X4144544Y46036693D01*
X4311332Y45860319D01*
X4368763Y45816410D01*
X4410729Y45759146D01*
X4415074Y45688283D01*
X4377194Y45623269D01*
X4220897Y45480551D01*
X4217164Y45477142D01*
X4196736Y45451368D01*
X4069527Y45290871D01*
X4069523Y45290865D01*
X4066382Y45286902D01*
X3996572Y45161992D01*
X3968078Y45111007D01*
X3947955Y45075002D01*
X3864930Y44846895D01*
X3863982Y44841926D01*
X3863981Y44841922D01*
X3820393Y44613422D01*
X3819444Y44608447D01*
X3812666Y44365795D01*
X3844771Y44125180D01*
X3846233Y44120339D01*
X3846233Y44120337D01*
X3883789Y43995947D01*
X3914933Y43892792D01*
X4021346Y43674612D01*
X4161274Y43476253D01*
X4180909Y43454750D01*
X6780325Y40855334D01*
X6782779Y40852812D01*
X6851332Y40780319D01*
X6913769Y40732582D01*
X6918868Y40728469D01*
X6978720Y40677530D01*
X6983045Y40674911D01*
X6983050Y40674907D01*
X7006824Y40660509D01*
X7018071Y40652837D01*
X7044174Y40632880D01*
X7113416Y40595753D01*
X7119137Y40592490D01*
X7159636Y40567963D01*
X7186357Y40551780D01*
X7216834Y40539466D01*
X7229150Y40533697D01*
X7258109Y40518169D01*
X7332433Y40492577D01*
X7338561Y40490286D01*
X7352963Y40484467D01*
X7406733Y40462742D01*
X7406737Y40462741D01*
X7411429Y40460845D01*
X7416368Y40459723D01*
X7416371Y40459722D01*
X7443460Y40453568D01*
X7456559Y40449837D01*
X7487631Y40439138D01*
X7565100Y40425757D01*
X7571504Y40424477D01*
X7648144Y40407065D01*
X7680953Y40405001D01*
X7694453Y40403415D01*
X7726836Y40397821D01*
X7730793Y40397641D01*
X7730796Y40397641D01*
X7754506Y40396564D01*
X7754525Y40396564D01*
X7755925Y40396500D01*
X7812107Y40396500D01*
X7820018Y40396251D01*
X7890412Y40391822D01*
X7931991Y40395899D01*
X7944287Y40396500D01*
X10719001Y40396500D01*
X10721509Y40396702D01*
X10721514Y40396702D01*
X10894924Y40410654D01*
X10894929Y40410655D01*
X10899965Y40411060D01*
X10904873Y40412266D01*
X10904876Y40412266D01*
X11130792Y40467756D01*
X11135706Y40468963D01*
X11140358Y40470938D01*
X11140362Y40470939D01*
X11301817Y40539473D01*
X11359156Y40563812D01*
X11465037Y40630489D01*
X11560288Y40690472D01*
X11560291Y40690474D01*
X11564567Y40693167D01*
X11663422Y40780319D01*
X11742858Y40850350D01*
X11742861Y40850353D01*
X11746655Y40853698D01*
X11754538Y40863295D01*
X11897526Y41037372D01*
X11897528Y41037375D01*
X11900734Y41041278D01*
X12022841Y41251078D01*
X12102051Y41457429D01*
X12108020Y41472978D01*
X12108021Y41472982D01*
X12109833Y41477702D01*
X12159474Y41715320D01*
X12165689Y41852183D01*
X19305514Y41852183D01*
X19306095Y41847163D01*
X19306095Y41847159D01*
X19323216Y41699194D01*
X19333415Y41611044D01*
X19334791Y41606180D01*
X19334792Y41606177D01*
X19375488Y41462359D01*
X19399510Y41377468D01*
X19401644Y41372892D01*
X19401646Y41372886D01*
X19487577Y41188606D01*
X19502099Y41157464D01*
X19638544Y40956693D01*
X19805332Y40780319D01*
X19809357Y40777242D01*
X19809359Y40777240D01*
X19994154Y40635953D01*
X19994158Y40635950D01*
X19998174Y40632880D01*
X20002628Y40630492D01*
X20002633Y40630489D01*
X20119244Y40567963D01*
X20212109Y40518169D01*
X20441631Y40439138D01*
X20540978Y40421978D01*
X20676926Y40398496D01*
X20676932Y40398495D01*
X20680836Y40397821D01*
X20684797Y40397641D01*
X20684798Y40397641D01*
X20708506Y40396564D01*
X20708525Y40396564D01*
X20709925Y40396500D01*
X24787946Y40396500D01*
X24856067Y40376498D01*
X24902560Y40322842D01*
X24912664Y40252568D01*
X24891159Y40198230D01*
X24774072Y40031012D01*
X24768586Y40021511D01*
X24676510Y39824053D01*
X24672764Y39813761D01*
X24626606Y39641497D01*
X24626942Y39627401D01*
X24634884Y39624000D01*
X27175967Y39624000D01*
X27189498Y39627973D01*
X27190727Y39636522D01*
X27143236Y39813761D01*
X27139490Y39824053D01*
X27047414Y40021511D01*
X27041931Y40031007D01*
X26916972Y40209467D01*
X26909916Y40217875D01*
X26755875Y40371916D01*
X26743254Y40382507D01*
X26744108Y40383525D01*
X26703776Y40433984D01*
X26696468Y40504603D01*
X26728500Y40567963D01*
X26789702Y40603947D01*
X26806762Y40607000D01*
X26818316Y40608255D01*
X26954705Y40659385D01*
X27071261Y40746739D01*
X27158615Y40863295D01*
X27209745Y40999684D01*
X27216500Y41061866D01*
X27216500Y41123335D01*
X27234724Y41188606D01*
X27258600Y41228030D01*
X27258601Y41228031D01*
X27261221Y41232358D01*
X27352155Y41457429D01*
X27387055Y41611044D01*
X27404815Y41689213D01*
X27404816Y41689216D01*
X27405935Y41694144D01*
X27407268Y41715320D01*
X27420860Y41931359D01*
X27421178Y41936413D01*
X27397489Y42178002D01*
X27335481Y42412696D01*
X27268432Y42563290D01*
X27238803Y42629836D01*
X27236746Y42634456D01*
X27233974Y42638691D01*
X27231877Y42642538D01*
X27216500Y42702858D01*
X27216500Y42758134D01*
X27209745Y42820316D01*
X27158615Y42956705D01*
X27071261Y43073261D01*
X26954705Y43160615D01*
X26818316Y43211745D01*
X26806771Y43212999D01*
X26804090Y43214113D01*
X26802778Y43214425D01*
X26802828Y43214637D01*
X26741210Y43240238D01*
X26700782Y43298599D01*
X26698323Y43369553D01*
X26734616Y43430572D01*
X26745225Y43439147D01*
X26755875Y43448084D01*
X26909916Y43602125D01*
X26916972Y43610533D01*
X27041931Y43788993D01*
X27047414Y43798489D01*
X27139490Y43995947D01*
X27143236Y44006239D01*
X27189394Y44178503D01*
X27189058Y44192599D01*
X27181116Y44196000D01*
X24640033Y44196000D01*
X24626502Y44192027D01*
X24625273Y44183478D01*
X24672764Y44006239D01*
X24676510Y43995947D01*
X24768586Y43798489D01*
X24774069Y43788994D01*
X24898162Y43611771D01*
X24920850Y43544497D01*
X24903565Y43475637D01*
X24851795Y43427052D01*
X24794949Y43413500D01*
X20756999Y43413500D01*
X20754491Y43413298D01*
X20754486Y43413298D01*
X20581076Y43399346D01*
X20581071Y43399345D01*
X20576035Y43398940D01*
X20571127Y43397734D01*
X20571124Y43397734D01*
X20345208Y43342244D01*
X20340294Y43341037D01*
X20335642Y43339062D01*
X20335638Y43339061D01*
X20240316Y43298599D01*
X20116844Y43246188D01*
X20063503Y43212597D01*
X19915712Y43119528D01*
X19915709Y43119526D01*
X19911433Y43116833D01*
X19865834Y43076633D01*
X19733142Y42959650D01*
X19733139Y42959647D01*
X19729345Y42956302D01*
X19726135Y42952394D01*
X19726134Y42952393D01*
X19611193Y42812460D01*
X19575266Y42768722D01*
X19453159Y42558922D01*
X19451346Y42554199D01*
X19397029Y42412696D01*
X19366167Y42332298D01*
X19365133Y42327348D01*
X19365132Y42327345D01*
X19332883Y42172975D01*
X19316526Y42094680D01*
X19305514Y41852183D01*
X12165689Y41852183D01*
X12170486Y41957817D01*
X12155235Y42089627D01*
X12143167Y42193929D01*
X12143166Y42193933D01*
X12142585Y42198956D01*
X12103517Y42337022D01*
X12077866Y42427669D01*
X12076490Y42432532D01*
X12074356Y42437108D01*
X12074354Y42437114D01*
X11976038Y42647954D01*
X11976036Y42647958D01*
X11973901Y42652536D01*
X11837456Y42853307D01*
X11670668Y43029681D01*
X11606630Y43078642D01*
X11481846Y43174047D01*
X11481842Y43174050D01*
X11477826Y43177120D01*
X11360112Y43240238D01*
X11268352Y43289439D01*
X11263891Y43291831D01*
X11034369Y43370862D01*
X10935022Y43388022D01*
X10799074Y43411504D01*
X10799068Y43411505D01*
X10795164Y43412179D01*
X10791203Y43412359D01*
X10791202Y43412359D01*
X10767494Y43413436D01*
X10767475Y43413436D01*
X10766075Y43413500D01*
X8541031Y43413500D01*
X8472910Y43433502D01*
X8451936Y43450405D01*
X6640936Y45261405D01*
X6606910Y45323717D01*
X6611975Y45394532D01*
X6654522Y45451368D01*
X6721042Y45476179D01*
X6730031Y45476500D01*
X10719001Y45476500D01*
X10721509Y45476702D01*
X10721514Y45476702D01*
X10894924Y45490654D01*
X10894929Y45490655D01*
X10899965Y45491060D01*
X10904873Y45492266D01*
X10904876Y45492266D01*
X11130792Y45547756D01*
X11135706Y45548963D01*
X11140358Y45550938D01*
X11140362Y45550939D01*
X11354498Y45641835D01*
X11359156Y45643812D01*
X11467730Y45712185D01*
X11560288Y45770472D01*
X11560291Y45770474D01*
X11564567Y45773167D01*
X11659930Y45857240D01*
X11742858Y45930350D01*
X11742861Y45930353D01*
X11746655Y45933698D01*
X11754538Y45943295D01*
X11897526Y46117372D01*
X11897528Y46117375D01*
X11900734Y46121278D01*
X12022841Y46331078D01*
X12102051Y46537429D01*
X12108020Y46552978D01*
X12108021Y46552982D01*
X12109833Y46557702D01*
X12159474Y46795320D01*
X12165689Y46932183D01*
X19305514Y46932183D01*
X19306095Y46927163D01*
X19306095Y46927159D01*
X19323216Y46779194D01*
X19333415Y46691044D01*
X19334791Y46686180D01*
X19334792Y46686177D01*
X19375488Y46542359D01*
X19399510Y46457468D01*
X19401644Y46452892D01*
X19401646Y46452886D01*
X19487577Y46268606D01*
X19502099Y46237464D01*
X19638544Y46036693D01*
X19805332Y45860319D01*
X19809353Y45857245D01*
X19809359Y45857240D01*
X19994154Y45715953D01*
X19994158Y45715950D01*
X19998174Y45712880D01*
X20002632Y45710490D01*
X20002633Y45710489D01*
X20119244Y45647963D01*
X20212109Y45598169D01*
X20441631Y45519138D01*
X20540978Y45501978D01*
X20676926Y45478496D01*
X20676932Y45478495D01*
X20680836Y45477821D01*
X20684797Y45477641D01*
X20684798Y45477641D01*
X20708506Y45476564D01*
X20708525Y45476564D01*
X20709925Y45476500D01*
X24787946Y45476500D01*
X24856067Y45456498D01*
X24902560Y45402842D01*
X24912664Y45332568D01*
X24891159Y45278230D01*
X24774072Y45111012D01*
X24768586Y45101511D01*
X24676510Y44904053D01*
X24672764Y44893761D01*
X24626606Y44721497D01*
X24626942Y44707401D01*
X24634884Y44704000D01*
X27175967Y44704000D01*
X27189498Y44707973D01*
X27190727Y44716522D01*
X27143236Y44893761D01*
X27139490Y44904053D01*
X27047414Y45101511D01*
X27041931Y45111007D01*
X26916972Y45289467D01*
X26909916Y45297875D01*
X26755875Y45451916D01*
X26743254Y45462507D01*
X26744108Y45463525D01*
X26703776Y45513984D01*
X26696468Y45584603D01*
X26728500Y45647963D01*
X26789702Y45683947D01*
X26806762Y45687000D01*
X26818316Y45688255D01*
X26954705Y45739385D01*
X27071261Y45826739D01*
X27158615Y45943295D01*
X27209745Y46079684D01*
X27216500Y46141866D01*
X27216500Y46203335D01*
X27234724Y46268606D01*
X27258600Y46308030D01*
X27258601Y46308031D01*
X27261221Y46312358D01*
X27352155Y46537429D01*
X27387055Y46691044D01*
X27404815Y46769213D01*
X27404816Y46769216D01*
X27405935Y46774144D01*
X27407268Y46795320D01*
X27420860Y47011359D01*
X27421178Y47016413D01*
X27397489Y47258002D01*
X27335481Y47492696D01*
X27268432Y47643290D01*
X27238803Y47709836D01*
X27236746Y47714456D01*
X27233974Y47718691D01*
X27231877Y47722538D01*
X27216500Y47782858D01*
X27216500Y47838134D01*
X27209745Y47900316D01*
X27158615Y48036705D01*
X27071261Y48153261D01*
X26954705Y48240615D01*
X26818316Y48291745D01*
X26806771Y48292999D01*
X26804090Y48294113D01*
X26802778Y48294425D01*
X26802828Y48294637D01*
X26741210Y48320238D01*
X26700782Y48378599D01*
X26698323Y48449553D01*
X26734616Y48510572D01*
X26745225Y48519147D01*
X26755875Y48528084D01*
X26909916Y48682125D01*
X26916972Y48690533D01*
X27041931Y48868993D01*
X27047414Y48878489D01*
X27139490Y49075947D01*
X27143236Y49086239D01*
X27189394Y49258503D01*
X27189058Y49272599D01*
X27181116Y49276000D01*
X24640033Y49276000D01*
X24626502Y49272027D01*
X24625273Y49263478D01*
X24672764Y49086239D01*
X24676510Y49075947D01*
X24768586Y48878489D01*
X24774069Y48868994D01*
X24898162Y48691771D01*
X24920850Y48624497D01*
X24903565Y48555637D01*
X24851795Y48507052D01*
X24794949Y48493500D01*
X20756999Y48493500D01*
X20754491Y48493298D01*
X20754486Y48493298D01*
X20581076Y48479346D01*
X20581071Y48479345D01*
X20576035Y48478940D01*
X20571127Y48477734D01*
X20571124Y48477734D01*
X20345208Y48422244D01*
X20340294Y48421037D01*
X20335642Y48419062D01*
X20335638Y48419061D01*
X20240316Y48378599D01*
X20116844Y48326188D01*
X20063503Y48292597D01*
X19915712Y48199528D01*
X19915709Y48199526D01*
X19911433Y48196833D01*
X19865834Y48156633D01*
X19733142Y48039650D01*
X19733139Y48039647D01*
X19729345Y48036302D01*
X19726135Y48032394D01*
X19726134Y48032393D01*
X19611193Y47892460D01*
X19575266Y47848722D01*
X19453159Y47638922D01*
X19451346Y47634199D01*
X19397029Y47492696D01*
X19366167Y47412298D01*
X19365133Y47407348D01*
X19365132Y47407345D01*
X19332883Y47252975D01*
X19316526Y47174680D01*
X19305514Y46932183D01*
X12165689Y46932183D01*
X12170486Y47037817D01*
X12155235Y47169627D01*
X12143167Y47273929D01*
X12143166Y47273933D01*
X12142585Y47278956D01*
X12103517Y47417022D01*
X12077866Y47507669D01*
X12076490Y47512532D01*
X12074356Y47517108D01*
X12074354Y47517114D01*
X11976038Y47727954D01*
X11976036Y47727958D01*
X11973901Y47732536D01*
X11837456Y47933307D01*
X11670668Y48109681D01*
X11606630Y48158642D01*
X11481846Y48254047D01*
X11481842Y48254050D01*
X11477826Y48257120D01*
X11360112Y48320238D01*
X11268352Y48369439D01*
X11263891Y48371831D01*
X11034369Y48450862D01*
X10935022Y48468022D01*
X10799074Y48491504D01*
X10799068Y48491505D01*
X10795164Y48492179D01*
X10791203Y48492359D01*
X10791202Y48492359D01*
X10767494Y48493436D01*
X10767475Y48493436D01*
X10766075Y48493500D01*
X6808101Y48493500D01*
X6739980Y48513502D01*
X6693487Y48567158D01*
X6682384Y48625794D01*
X6682500Y48626866D01*
X6682500Y48697969D01*
X6702502Y48766090D01*
X6719405Y48787064D01*
X8451936Y50519595D01*
X8514248Y50553621D01*
X8541031Y50556500D01*
X10719001Y50556500D01*
X10721509Y50556702D01*
X10721514Y50556702D01*
X10894924Y50570654D01*
X10894929Y50570655D01*
X10899965Y50571060D01*
X10904873Y50572266D01*
X10904876Y50572266D01*
X11130792Y50627756D01*
X11135706Y50628963D01*
X11140358Y50630938D01*
X11140362Y50630939D01*
X11354498Y50721835D01*
X11359156Y50723812D01*
X11465037Y50790489D01*
X11560288Y50850472D01*
X11560291Y50850474D01*
X11564567Y50853167D01*
X11663422Y50940319D01*
X11742858Y51010350D01*
X11742861Y51010353D01*
X11746655Y51013698D01*
X11754538Y51023295D01*
X11897526Y51197372D01*
X11897528Y51197375D01*
X11900734Y51201278D01*
X12022841Y51411078D01*
X12102051Y51617429D01*
X12108020Y51632978D01*
X12108021Y51632982D01*
X12109833Y51637702D01*
X12159474Y51875320D01*
X12165689Y52012183D01*
X19305514Y52012183D01*
X19306095Y52007163D01*
X19306095Y52007159D01*
X19323216Y51859194D01*
X19333415Y51771044D01*
X19334791Y51766180D01*
X19334792Y51766177D01*
X19375488Y51622359D01*
X19399510Y51537468D01*
X19401644Y51532892D01*
X19401646Y51532886D01*
X19487577Y51348606D01*
X19502099Y51317464D01*
X19638544Y51116693D01*
X19805332Y50940319D01*
X19809358Y50937241D01*
X19809359Y50937240D01*
X19994154Y50795953D01*
X19994158Y50795950D01*
X19998174Y50792880D01*
X20002632Y50790490D01*
X20002633Y50790489D01*
X20090002Y50743642D01*
X20212109Y50678169D01*
X20441631Y50599138D01*
X20540978Y50581978D01*
X20676926Y50558496D01*
X20676932Y50558495D01*
X20680836Y50557821D01*
X20684797Y50557641D01*
X20684798Y50557641D01*
X20708506Y50556564D01*
X20708525Y50556564D01*
X20709925Y50556500D01*
X24787946Y50556500D01*
X24856067Y50536498D01*
X24902560Y50482842D01*
X24912664Y50412568D01*
X24891159Y50358230D01*
X24774072Y50191012D01*
X24768586Y50181511D01*
X24676510Y49984053D01*
X24672764Y49973761D01*
X24626606Y49801497D01*
X24626942Y49787401D01*
X24634884Y49784000D01*
X27175967Y49784000D01*
X27189498Y49787973D01*
X27190727Y49796522D01*
X27143236Y49973761D01*
X27139490Y49984053D01*
X27047414Y50181511D01*
X27041931Y50191007D01*
X26916972Y50369467D01*
X26909916Y50377875D01*
X26755875Y50531916D01*
X26743254Y50542507D01*
X26744108Y50543525D01*
X26703776Y50593984D01*
X26696468Y50664603D01*
X26728500Y50727963D01*
X26789702Y50763947D01*
X26806762Y50767000D01*
X26818316Y50768255D01*
X26954705Y50819385D01*
X27071261Y50906739D01*
X27158615Y51023295D01*
X27209745Y51159684D01*
X27216500Y51221866D01*
X27216500Y51283335D01*
X27234724Y51348606D01*
X27258600Y51388030D01*
X27258601Y51388031D01*
X27261221Y51392358D01*
X27352155Y51617429D01*
X27387055Y51771044D01*
X27404815Y51849213D01*
X27404816Y51849216D01*
X27405935Y51854144D01*
X27407268Y51875320D01*
X27420860Y52091359D01*
X27421178Y52096413D01*
X27397489Y52338002D01*
X27335481Y52572696D01*
X27268432Y52723290D01*
X27238803Y52789836D01*
X27236746Y52794456D01*
X27233974Y52798691D01*
X27231877Y52802538D01*
X27216500Y52862858D01*
X27216500Y52918134D01*
X27209745Y52980316D01*
X27158615Y53116705D01*
X27071261Y53233261D01*
X26954705Y53320615D01*
X26818316Y53371745D01*
X26810460Y53372598D01*
X26802778Y53374425D01*
X26803216Y53376268D01*
X26747044Y53399612D01*
X26706621Y53457977D01*
X26704170Y53528932D01*
X26745226Y53594147D01*
X26755870Y53603079D01*
X26909916Y53757125D01*
X26916972Y53765533D01*
X27041931Y53943993D01*
X27047414Y53953489D01*
X27139490Y54150947D01*
X27143236Y54161239D01*
X27189394Y54333503D01*
X27189058Y54347599D01*
X27181116Y54351000D01*
X24640033Y54351000D01*
X24626502Y54347027D01*
X24625273Y54338478D01*
X24672764Y54161239D01*
X24676510Y54150947D01*
X24768586Y53953489D01*
X24774072Y53943988D01*
X24894660Y53771770D01*
X24917348Y53704496D01*
X24900063Y53635636D01*
X24848293Y53587052D01*
X24791447Y53573500D01*
X20756999Y53573500D01*
X20754491Y53573298D01*
X20754486Y53573298D01*
X20581076Y53559346D01*
X20581071Y53559345D01*
X20576035Y53558940D01*
X20571127Y53557734D01*
X20571124Y53557734D01*
X20345208Y53502244D01*
X20340294Y53501037D01*
X20335642Y53499062D01*
X20335638Y53499061D01*
X20271524Y53471846D01*
X20116844Y53406188D01*
X20069332Y53376268D01*
X19915712Y53279528D01*
X19915709Y53279526D01*
X19911433Y53276833D01*
X19865834Y53236633D01*
X19733142Y53119650D01*
X19733139Y53119647D01*
X19729345Y53116302D01*
X19726135Y53112394D01*
X19726134Y53112393D01*
X19611193Y52972460D01*
X19575266Y52928722D01*
X19453159Y52718922D01*
X19451346Y52714199D01*
X19397029Y52572696D01*
X19366167Y52492298D01*
X19365133Y52487348D01*
X19365132Y52487345D01*
X19332883Y52332975D01*
X19316526Y52254680D01*
X19305514Y52012183D01*
X12165689Y52012183D01*
X12170486Y52117817D01*
X12155235Y52249627D01*
X12143167Y52353929D01*
X12143166Y52353933D01*
X12142585Y52358956D01*
X12103517Y52497022D01*
X12077866Y52587669D01*
X12076490Y52592532D01*
X12074356Y52597108D01*
X12074354Y52597114D01*
X11976038Y52807954D01*
X11976036Y52807958D01*
X11973901Y52812536D01*
X11837456Y53013307D01*
X11670668Y53189681D01*
X11645319Y53209062D01*
X11481846Y53334047D01*
X11481842Y53334050D01*
X11477826Y53337120D01*
X11388445Y53385046D01*
X11268352Y53449439D01*
X11263891Y53451831D01*
X11034369Y53530862D01*
X10917184Y53551103D01*
X10799074Y53571504D01*
X10799068Y53571505D01*
X10795164Y53572179D01*
X10791203Y53572359D01*
X10791202Y53572359D01*
X10767494Y53573436D01*
X10767475Y53573436D01*
X10766075Y53573500D01*
X7888002Y53573500D01*
X7884483Y53573549D01*
X7789850Y53576193D01*
X7789847Y53576193D01*
X7784795Y53576334D01*
X7706902Y53565941D01*
X7700361Y53565242D01*
X7671668Y53562933D01*
X7627077Y53559346D01*
X7627073Y53559345D01*
X7622035Y53558940D01*
X7590122Y53551101D01*
X7576742Y53548574D01*
X7544180Y53544229D01*
X7539339Y53542768D01*
X7539337Y53542767D01*
X7468971Y53521522D01*
X7462610Y53519781D01*
X7386294Y53501037D01*
X7381634Y53499059D01*
X7356049Y53488199D01*
X7343239Y53483562D01*
X7311792Y53474067D01*
X7307244Y53471849D01*
X7307237Y53471846D01*
X7241182Y53439629D01*
X7235180Y53436893D01*
X7190496Y53417925D01*
X7162844Y53406188D01*
X7158560Y53403490D01*
X7135044Y53388681D01*
X7123140Y53382055D01*
X7093612Y53367654D01*
X7045972Y53334047D01*
X7029403Y53322359D01*
X7023914Y53318699D01*
X6961714Y53279529D01*
X6957433Y53276833D01*
X6953644Y53273492D01*
X6953638Y53273488D01*
X6932783Y53255102D01*
X6922088Y53246656D01*
X6895253Y53227726D01*
X6873750Y53208091D01*
X6834034Y53168375D01*
X6828264Y53162956D01*
X6779142Y53119650D01*
X6779139Y53119647D01*
X6775345Y53116302D01*
X6772135Y53112394D01*
X6772134Y53112393D01*
X6748821Y53084011D01*
X6740551Y53074892D01*
X4586064Y50920405D01*
X4523752Y50886379D01*
X4496969Y50883500D01*
X4425866Y50883500D01*
X4363684Y50876745D01*
X4227295Y50825615D01*
X4110739Y50738261D01*
X4023385Y50621705D01*
X3972255Y50485316D01*
X3965500Y50423134D01*
X3965500Y50214067D01*
X3956325Y50166867D01*
X3879845Y49977571D01*
X3878725Y49972641D01*
X3836640Y49787401D01*
X3826065Y49740856D01*
X3810822Y49498587D01*
X508500Y49498587D01*
X508500Y64723587D01*
X4089822Y64723587D01*
X4090316Y64718552D01*
X4110567Y64512027D01*
X4113511Y64481998D01*
X4114802Y64477113D01*
X4174227Y64252192D01*
X4174229Y64252186D01*
X4175519Y64247304D01*
X4233608Y64116836D01*
X4244500Y64065591D01*
X4244500Y63851866D01*
X4251255Y63789684D01*
X4302385Y63653295D01*
X4389739Y63536739D01*
X4471812Y63475229D01*
X4502398Y63452306D01*
X4544913Y63395447D01*
X4549939Y63324628D01*
X4517571Y63264146D01*
X4514345Y63261302D01*
X4360266Y63073722D01*
X4238159Y62863922D01*
X4236346Y62859199D01*
X4155024Y62647345D01*
X4151167Y62637298D01*
X4150133Y62632348D01*
X4150132Y62632345D01*
X4104660Y62414680D01*
X4101526Y62399680D01*
X4090514Y62157183D01*
X4091095Y62152163D01*
X4091095Y62152159D01*
X4117243Y61926177D01*
X4118415Y61916044D01*
X4184510Y61682468D01*
X4186644Y61677892D01*
X4186646Y61677886D01*
X4284962Y61467046D01*
X4287099Y61462464D01*
X4423544Y61261693D01*
X4590332Y61085319D01*
X4647763Y61041410D01*
X4689729Y60984146D01*
X4694074Y60913283D01*
X4656194Y60848269D01*
X4503738Y60709058D01*
X4496164Y60702142D01*
X4475736Y60676368D01*
X4348527Y60515871D01*
X4348523Y60515865D01*
X4345382Y60511902D01*
X4275572Y60386992D01*
X4250154Y60341511D01*
X4226955Y60300002D01*
X4225224Y60295245D01*
X4166448Y60133761D01*
X4143930Y60071895D01*
X4142982Y60066926D01*
X4142981Y60066922D01*
X4120291Y59947973D01*
X4098444Y59833447D01*
X4091666Y59590795D01*
X4123771Y59350180D01*
X4125233Y59345339D01*
X4125233Y59345337D01*
X4155153Y59246239D01*
X4193933Y59117792D01*
X4300346Y58899612D01*
X4440274Y58701253D01*
X4459909Y58679750D01*
X4460932Y58678727D01*
X7044342Y56095316D01*
X7046796Y56092794D01*
X7115332Y56020319D01*
X7119349Y56017248D01*
X7119352Y56017245D01*
X7177761Y55972588D01*
X7182892Y55968447D01*
X7242720Y55917530D01*
X7247046Y55914910D01*
X7247053Y55914905D01*
X7270824Y55900509D01*
X7282071Y55892837D01*
X7308174Y55872880D01*
X7377416Y55835753D01*
X7383137Y55832490D01*
X7450357Y55791780D01*
X7480834Y55779466D01*
X7493150Y55773697D01*
X7522109Y55758169D01*
X7596433Y55732577D01*
X7602561Y55730286D01*
X7634906Y55717218D01*
X7670733Y55702742D01*
X7670737Y55702741D01*
X7675429Y55700845D01*
X7680368Y55699723D01*
X7680371Y55699722D01*
X7707460Y55693568D01*
X7720559Y55689837D01*
X7751631Y55679138D01*
X7829100Y55665757D01*
X7835504Y55664477D01*
X7912144Y55647065D01*
X7944953Y55645001D01*
X7958453Y55643415D01*
X7990836Y55637821D01*
X7994793Y55637641D01*
X7994796Y55637641D01*
X8018506Y55636564D01*
X8018525Y55636564D01*
X8019925Y55636500D01*
X8076107Y55636500D01*
X8084018Y55636251D01*
X8154412Y55631822D01*
X8195991Y55635899D01*
X8208287Y55636500D01*
X10719001Y55636500D01*
X10721509Y55636702D01*
X10721514Y55636702D01*
X10894924Y55650654D01*
X10894929Y55650655D01*
X10899965Y55651060D01*
X10904873Y55652266D01*
X10904876Y55652266D01*
X11130792Y55707756D01*
X11135706Y55708963D01*
X11140358Y55710938D01*
X11140362Y55710939D01*
X11301817Y55779473D01*
X11359156Y55803812D01*
X11465037Y55870489D01*
X11560288Y55930472D01*
X11560291Y55930474D01*
X11564567Y55933167D01*
X11659930Y56017240D01*
X11742858Y56090350D01*
X11742861Y56090353D01*
X11746655Y56093698D01*
X11750431Y56098295D01*
X11897526Y56277372D01*
X11897528Y56277375D01*
X11900734Y56281278D01*
X11983602Y56423659D01*
X12020299Y56486710D01*
X12020300Y56486712D01*
X12022841Y56491078D01*
X12109833Y56717702D01*
X12159474Y56955320D01*
X12165689Y57092183D01*
X19305514Y57092183D01*
X19306095Y57087163D01*
X19306095Y57087159D01*
X19321923Y56950369D01*
X19333415Y56851044D01*
X19334791Y56846180D01*
X19334792Y56846177D01*
X19380476Y56684734D01*
X19399510Y56617468D01*
X19401644Y56612892D01*
X19401646Y56612886D01*
X19458446Y56491078D01*
X19502099Y56397464D01*
X19638544Y56196693D01*
X19805332Y56020319D01*
X19809353Y56017245D01*
X19809359Y56017240D01*
X19994154Y55875953D01*
X19994158Y55875950D01*
X19998174Y55872880D01*
X20212109Y55758169D01*
X20441631Y55679138D01*
X20540978Y55661978D01*
X20676926Y55638496D01*
X20676932Y55638495D01*
X20680836Y55637821D01*
X20684797Y55637641D01*
X20684798Y55637641D01*
X20708506Y55636564D01*
X20708525Y55636564D01*
X20709925Y55636500D01*
X24791447Y55636500D01*
X24859568Y55616498D01*
X24906061Y55562842D01*
X24916165Y55492568D01*
X24894660Y55438230D01*
X24774072Y55266012D01*
X24768586Y55256511D01*
X24676510Y55059053D01*
X24672764Y55048761D01*
X24626606Y54876497D01*
X24626942Y54862401D01*
X24634884Y54859000D01*
X27175967Y54859000D01*
X27189498Y54862973D01*
X27190727Y54871522D01*
X27143236Y55048761D01*
X27139490Y55059053D01*
X27047414Y55256511D01*
X27041931Y55266007D01*
X26916972Y55444467D01*
X26909916Y55452875D01*
X26755875Y55606916D01*
X26743254Y55617507D01*
X26744108Y55618525D01*
X26703776Y55668984D01*
X26696468Y55739603D01*
X26728500Y55802963D01*
X26789702Y55838947D01*
X26806762Y55842000D01*
X26818316Y55843255D01*
X26954705Y55894385D01*
X27071261Y55981739D01*
X27158615Y56098295D01*
X27209745Y56234684D01*
X27216500Y56296866D01*
X27216500Y56360278D01*
X27233602Y56423659D01*
X27270292Y56486699D01*
X27272841Y56491078D01*
X27274657Y56495808D01*
X27358020Y56712978D01*
X27358021Y56712982D01*
X27359833Y56717702D01*
X27409474Y56955320D01*
X27420486Y57197817D01*
X27405235Y57329627D01*
X27393167Y57433929D01*
X27393166Y57433933D01*
X27392585Y57438956D01*
X27353517Y57577022D01*
X27327866Y57667669D01*
X27326490Y57672532D01*
X27324356Y57677108D01*
X27324354Y57677114D01*
X27228305Y57883092D01*
X27216500Y57936342D01*
X27216500Y57993134D01*
X27209745Y58055316D01*
X27158615Y58191705D01*
X27071261Y58308261D01*
X26954705Y58395615D01*
X26818316Y58446745D01*
X26800587Y58448671D01*
X26735025Y58475913D01*
X26694599Y58534276D01*
X26692144Y58605230D01*
X26728439Y58666248D01*
X26741924Y58677147D01*
X26747467Y58681028D01*
X26755875Y58688084D01*
X26909916Y58842125D01*
X26916972Y58850533D01*
X27041931Y59028993D01*
X27047414Y59038489D01*
X27139490Y59235947D01*
X27143236Y59246239D01*
X27189394Y59418503D01*
X27189058Y59432599D01*
X27181116Y59436000D01*
X24640033Y59436000D01*
X24626502Y59432027D01*
X24625273Y59423478D01*
X24672764Y59246239D01*
X24676510Y59235947D01*
X24768586Y59038489D01*
X24774069Y59028994D01*
X24898162Y58851771D01*
X24920850Y58784497D01*
X24903565Y58715637D01*
X24851795Y58667052D01*
X24794949Y58653500D01*
X20756999Y58653500D01*
X20754491Y58653298D01*
X20754486Y58653298D01*
X20581076Y58639346D01*
X20581071Y58639345D01*
X20576035Y58638940D01*
X20571127Y58637734D01*
X20571124Y58637734D01*
X20455007Y58609213D01*
X20340294Y58581037D01*
X20335642Y58579062D01*
X20335638Y58579061D01*
X20230132Y58534276D01*
X20116844Y58486188D01*
X20054210Y58446745D01*
X19915712Y58359528D01*
X19915709Y58359526D01*
X19911433Y58356833D01*
X19907639Y58353488D01*
X19733142Y58199650D01*
X19733139Y58199647D01*
X19729345Y58196302D01*
X19726135Y58192394D01*
X19726134Y58192393D01*
X19607086Y58047460D01*
X19575266Y58008722D01*
X19453159Y57798922D01*
X19366167Y57572298D01*
X19316526Y57334680D01*
X19305514Y57092183D01*
X12165689Y57092183D01*
X12170486Y57197817D01*
X12155235Y57329627D01*
X12143167Y57433929D01*
X12143166Y57433933D01*
X12142585Y57438956D01*
X12103517Y57577022D01*
X12077866Y57667669D01*
X12076490Y57672532D01*
X12074356Y57677108D01*
X12074354Y57677114D01*
X11976038Y57887954D01*
X11976036Y57887958D01*
X11973901Y57892536D01*
X11837456Y58093307D01*
X11670668Y58269681D01*
X11620208Y58308261D01*
X11481846Y58414047D01*
X11481842Y58414050D01*
X11477826Y58417120D01*
X11263891Y58531831D01*
X11034369Y58610862D01*
X10935022Y58628022D01*
X10799074Y58651504D01*
X10799068Y58651505D01*
X10795164Y58652179D01*
X10791203Y58652359D01*
X10791202Y58652359D01*
X10767494Y58653436D01*
X10767475Y58653436D01*
X10766075Y58653500D01*
X8805031Y58653500D01*
X8736910Y58673502D01*
X8715936Y58690405D01*
X6919936Y60486405D01*
X6885910Y60548717D01*
X6890975Y60619532D01*
X6933522Y60676368D01*
X7000042Y60701179D01*
X7009031Y60701500D01*
X10618984Y60701500D01*
X10622502Y60701451D01*
X10717150Y60698807D01*
X10717153Y60698807D01*
X10722205Y60698666D01*
X10800098Y60709059D01*
X10806639Y60709758D01*
X10835332Y60712067D01*
X10879923Y60715654D01*
X10879927Y60715655D01*
X10884965Y60716060D01*
X10916878Y60723899D01*
X10930258Y60726426D01*
X10962820Y60730771D01*
X10967661Y60732232D01*
X10967663Y60732233D01*
X11038029Y60753478D01*
X11044392Y60755219D01*
X11060348Y60759138D01*
X11120706Y60773963D01*
X11150952Y60786801D01*
X11163763Y60791439D01*
X11190362Y60799470D01*
X11195208Y60800933D01*
X11199756Y60803151D01*
X11199763Y60803154D01*
X11265818Y60835371D01*
X11271820Y60838107D01*
X11337121Y60865826D01*
X11344156Y60868812D01*
X11371956Y60886319D01*
X11383860Y60892945D01*
X11413388Y60907346D01*
X11477600Y60952643D01*
X11483086Y60956301D01*
X11545286Y60995471D01*
X11545287Y60995472D01*
X11549567Y60998167D01*
X11553356Y61001508D01*
X11553362Y61001512D01*
X11574217Y61019898D01*
X11584912Y61028344D01*
X11587863Y61030426D01*
X11611747Y61047274D01*
X11633250Y61066909D01*
X11672971Y61106629D01*
X11678739Y61112046D01*
X11727868Y61155359D01*
X11727870Y61155361D01*
X11731655Y61158698D01*
X11734855Y61162594D01*
X11734860Y61162599D01*
X11758174Y61190983D01*
X11764345Y61197787D01*
X11764307Y61197822D01*
X11766017Y61199675D01*
X11767805Y61201463D01*
X11885470Y61339720D01*
X12011221Y61547358D01*
X12102155Y61772429D01*
X12134783Y61916044D01*
X12154815Y62004213D01*
X12154816Y62004216D01*
X12155935Y62009144D01*
X12156568Y62019194D01*
X12166193Y62172183D01*
X19305514Y62172183D01*
X19306095Y62167163D01*
X19306095Y62167159D01*
X19323216Y62019194D01*
X19333415Y61931044D01*
X19334791Y61926180D01*
X19334792Y61926177D01*
X19339037Y61911177D01*
X19399510Y61697468D01*
X19401644Y61692892D01*
X19401646Y61692886D01*
X19469507Y61547358D01*
X19502099Y61477464D01*
X19638544Y61276693D01*
X19805332Y61100319D01*
X19809358Y61097241D01*
X19809359Y61097240D01*
X19994154Y60955953D01*
X19994158Y60955950D01*
X19998174Y60952880D01*
X20002632Y60950490D01*
X20002633Y60950489D01*
X20109947Y60892948D01*
X20212109Y60838169D01*
X20441631Y60759138D01*
X20540978Y60741978D01*
X20676926Y60718496D01*
X20676932Y60718495D01*
X20680836Y60717821D01*
X20684797Y60717641D01*
X20684798Y60717641D01*
X20708506Y60716564D01*
X20708525Y60716564D01*
X20709925Y60716500D01*
X24787946Y60716500D01*
X24856067Y60696498D01*
X24902560Y60642842D01*
X24912664Y60572568D01*
X24891159Y60518230D01*
X24774072Y60351012D01*
X24768586Y60341511D01*
X24676510Y60144053D01*
X24672764Y60133761D01*
X24626606Y59961497D01*
X24626942Y59947401D01*
X24634884Y59944000D01*
X27175967Y59944000D01*
X27189498Y59947973D01*
X27190727Y59956522D01*
X27143236Y60133761D01*
X27139490Y60144053D01*
X27047414Y60341511D01*
X27041931Y60351007D01*
X26916972Y60529467D01*
X26909916Y60537875D01*
X26755875Y60691916D01*
X26743254Y60702507D01*
X26744108Y60703525D01*
X26703776Y60753984D01*
X26696468Y60824603D01*
X26728500Y60887963D01*
X26789702Y60923947D01*
X26806762Y60927000D01*
X26818316Y60928255D01*
X26954705Y60979385D01*
X27071261Y61066739D01*
X27158615Y61183295D01*
X27209745Y61319684D01*
X27216500Y61381866D01*
X27216500Y61443335D01*
X27234724Y61508606D01*
X27258600Y61548030D01*
X27258601Y61548031D01*
X27261221Y61552358D01*
X27352155Y61777429D01*
X27382542Y61911177D01*
X27404815Y62009213D01*
X27404816Y62009216D01*
X27405935Y62014144D01*
X27415879Y62172183D01*
X27420860Y62251359D01*
X27421178Y62256413D01*
X27397489Y62498002D01*
X27335481Y62732696D01*
X27268432Y62883290D01*
X27238803Y62949836D01*
X27236746Y62954456D01*
X27233974Y62958691D01*
X27231877Y62962538D01*
X27216500Y63022858D01*
X27216500Y63078134D01*
X27209745Y63140316D01*
X27158615Y63276705D01*
X27071261Y63393261D01*
X26954705Y63480615D01*
X26818316Y63531745D01*
X26806771Y63532999D01*
X26804090Y63534113D01*
X26802778Y63534425D01*
X26802828Y63534637D01*
X26741210Y63560238D01*
X26700782Y63618599D01*
X26698323Y63689553D01*
X26734616Y63750572D01*
X26745225Y63759147D01*
X26755875Y63768084D01*
X26909916Y63922125D01*
X26916972Y63930533D01*
X27041931Y64108993D01*
X27047414Y64118489D01*
X27139490Y64315947D01*
X27143236Y64326239D01*
X27189394Y64498503D01*
X27189058Y64512599D01*
X27181116Y64516000D01*
X24640033Y64516000D01*
X24626502Y64512027D01*
X24625273Y64503478D01*
X24672764Y64326239D01*
X24676510Y64315947D01*
X24768586Y64118489D01*
X24774069Y64108994D01*
X24898162Y63931771D01*
X24920850Y63864497D01*
X24903565Y63795637D01*
X24851795Y63747052D01*
X24794949Y63733500D01*
X20756999Y63733500D01*
X20754491Y63733298D01*
X20754486Y63733298D01*
X20581076Y63719346D01*
X20581071Y63719345D01*
X20576035Y63718940D01*
X20571127Y63717734D01*
X20571124Y63717734D01*
X20437932Y63685019D01*
X20340294Y63661037D01*
X20335642Y63659062D01*
X20335638Y63659061D01*
X20240316Y63618599D01*
X20116844Y63566188D01*
X20063503Y63532597D01*
X19915712Y63439528D01*
X19915709Y63439526D01*
X19911433Y63436833D01*
X19867675Y63398255D01*
X19733142Y63279650D01*
X19733139Y63279647D01*
X19729345Y63276302D01*
X19726135Y63272394D01*
X19726134Y63272393D01*
X19611193Y63132460D01*
X19575266Y63088722D01*
X19453159Y62878922D01*
X19451346Y62874199D01*
X19397029Y62732696D01*
X19366167Y62652298D01*
X19365133Y62647348D01*
X19365132Y62647345D01*
X19332883Y62492975D01*
X19316526Y62414680D01*
X19305514Y62172183D01*
X12166193Y62172183D01*
X12170860Y62246358D01*
X12171178Y62251412D01*
X12147489Y62493002D01*
X12085481Y62727696D01*
X11986746Y62949456D01*
X11853826Y63152578D01*
X11690142Y63331836D01*
X11561889Y63433488D01*
X11503871Y63479473D01*
X11503865Y63479477D01*
X11499902Y63482618D01*
X11374992Y63552428D01*
X11292422Y63598575D01*
X11292419Y63598576D01*
X11288002Y63601045D01*
X11128606Y63659061D01*
X11064652Y63682339D01*
X11064647Y63682340D01*
X11059895Y63684070D01*
X11054926Y63685018D01*
X11054922Y63685019D01*
X10826422Y63728607D01*
X10821447Y63729556D01*
X10665949Y63733900D01*
X10583850Y63736193D01*
X10583847Y63736193D01*
X10578795Y63736334D01*
X10527997Y63729556D01*
X10453433Y63719607D01*
X10436769Y63718500D01*
X7087101Y63718500D01*
X7018980Y63738502D01*
X6972487Y63792158D01*
X6961384Y63850794D01*
X6961500Y63851866D01*
X6961500Y63922969D01*
X6981502Y63991090D01*
X6998405Y64012064D01*
X8745936Y65759595D01*
X8808248Y65793621D01*
X8835031Y65796500D01*
X10719001Y65796500D01*
X10721509Y65796702D01*
X10721514Y65796702D01*
X10894924Y65810654D01*
X10894929Y65810655D01*
X10899965Y65811060D01*
X10904873Y65812266D01*
X10904876Y65812266D01*
X11130792Y65867756D01*
X11135706Y65868963D01*
X11140358Y65870938D01*
X11140362Y65870939D01*
X11354498Y65961835D01*
X11359156Y65963812D01*
X11465037Y66030489D01*
X11560288Y66090472D01*
X11560291Y66090474D01*
X11564567Y66093167D01*
X11663422Y66180319D01*
X11742858Y66250350D01*
X11742861Y66250353D01*
X11746655Y66253698D01*
X11754538Y66263295D01*
X11897526Y66437372D01*
X11897528Y66437375D01*
X11900734Y66441278D01*
X12022841Y66651078D01*
X12102051Y66857429D01*
X12108020Y66872978D01*
X12108021Y66872982D01*
X12109833Y66877702D01*
X12159474Y67115320D01*
X12165689Y67252183D01*
X19305514Y67252183D01*
X19306095Y67247163D01*
X19306095Y67247159D01*
X19323216Y67099194D01*
X19333415Y67011044D01*
X19334791Y67006180D01*
X19334792Y67006177D01*
X19375488Y66862359D01*
X19399510Y66777468D01*
X19401644Y66772892D01*
X19401646Y66772886D01*
X19487577Y66588606D01*
X19502099Y66557464D01*
X19638544Y66356693D01*
X19805332Y66180319D01*
X19809358Y66177241D01*
X19809359Y66177240D01*
X19994154Y66035953D01*
X19994158Y66035950D01*
X19998174Y66032880D01*
X20002632Y66030490D01*
X20002633Y66030489D01*
X20117977Y65968642D01*
X20212109Y65918169D01*
X20441631Y65839138D01*
X20540978Y65821978D01*
X20676926Y65798496D01*
X20676932Y65798495D01*
X20680836Y65797821D01*
X20684797Y65797641D01*
X20684798Y65797641D01*
X20708506Y65796564D01*
X20708525Y65796564D01*
X20709925Y65796500D01*
X24787946Y65796500D01*
X24856067Y65776498D01*
X24902560Y65722842D01*
X24912664Y65652568D01*
X24891159Y65598230D01*
X24774072Y65431012D01*
X24768586Y65421511D01*
X24676510Y65224053D01*
X24672764Y65213761D01*
X24626606Y65041497D01*
X24626942Y65027401D01*
X24634884Y65024000D01*
X27175967Y65024000D01*
X27189498Y65027973D01*
X27190727Y65036522D01*
X27143236Y65213761D01*
X27139490Y65224053D01*
X27047414Y65421511D01*
X27041931Y65431007D01*
X26916972Y65609467D01*
X26909916Y65617875D01*
X26755875Y65771916D01*
X26743254Y65782507D01*
X26744108Y65783525D01*
X26703776Y65833984D01*
X26696468Y65904603D01*
X26728500Y65967963D01*
X26789702Y66003947D01*
X26806762Y66007000D01*
X26818316Y66008255D01*
X26954705Y66059385D01*
X27071261Y66146739D01*
X27158615Y66263295D01*
X27209745Y66399684D01*
X27216500Y66461866D01*
X27216500Y66523335D01*
X27234724Y66588606D01*
X27258600Y66628030D01*
X27258601Y66628031D01*
X27261221Y66632358D01*
X27352155Y66857429D01*
X27387055Y67011044D01*
X27404815Y67089213D01*
X27404816Y67089216D01*
X27405935Y67094144D01*
X27407268Y67115320D01*
X27420860Y67331359D01*
X27421178Y67336413D01*
X27397489Y67578002D01*
X27335481Y67812696D01*
X27268432Y67963290D01*
X27238803Y68029836D01*
X27236746Y68034456D01*
X27233974Y68038691D01*
X27231877Y68042538D01*
X27216500Y68102858D01*
X27216500Y68158134D01*
X27209745Y68220316D01*
X27158615Y68356705D01*
X27071261Y68473261D01*
X26954705Y68560615D01*
X26818316Y68611745D01*
X26756134Y68618500D01*
X26691680Y68618500D01*
X26630209Y68634512D01*
X26542415Y68683579D01*
X26542412Y68683581D01*
X26538002Y68686045D01*
X26533254Y68687773D01*
X26533250Y68687775D01*
X26314652Y68767339D01*
X26314647Y68767340D01*
X26309895Y68769070D01*
X26304926Y68770018D01*
X26304922Y68770019D01*
X26076422Y68813607D01*
X26071447Y68814556D01*
X25915949Y68818900D01*
X25833850Y68821193D01*
X25833847Y68821193D01*
X25828795Y68821334D01*
X25779054Y68814697D01*
X25778379Y68814607D01*
X25761715Y68813500D01*
X20756999Y68813500D01*
X20754491Y68813298D01*
X20754486Y68813298D01*
X20581076Y68799346D01*
X20581071Y68799345D01*
X20576035Y68798940D01*
X20571127Y68797734D01*
X20571124Y68797734D01*
X20345208Y68742244D01*
X20340294Y68741037D01*
X20335642Y68739062D01*
X20335638Y68739061D01*
X20271524Y68711846D01*
X20116844Y68646188D01*
X20072291Y68618131D01*
X19915712Y68519528D01*
X19915709Y68519526D01*
X19911433Y68516833D01*
X19865834Y68476633D01*
X19733142Y68359650D01*
X19733139Y68359647D01*
X19729345Y68356302D01*
X19726135Y68352394D01*
X19726134Y68352393D01*
X19611193Y68212460D01*
X19575266Y68168722D01*
X19453159Y67958922D01*
X19451346Y67954199D01*
X19397029Y67812696D01*
X19366167Y67732298D01*
X19365133Y67727348D01*
X19365132Y67727345D01*
X19332883Y67572975D01*
X19316526Y67494680D01*
X19305514Y67252183D01*
X12165689Y67252183D01*
X12170486Y67357817D01*
X12155235Y67489627D01*
X12143167Y67593929D01*
X12143166Y67593933D01*
X12142585Y67598956D01*
X12103517Y67737022D01*
X12077866Y67827669D01*
X12076490Y67832532D01*
X12074356Y67837108D01*
X12074354Y67837114D01*
X11976038Y68047954D01*
X11976036Y68047958D01*
X11973901Y68052536D01*
X11837456Y68253307D01*
X11670668Y68429681D01*
X11645319Y68449062D01*
X11481846Y68574047D01*
X11481842Y68574050D01*
X11477826Y68577120D01*
X11388445Y68625046D01*
X11268352Y68689439D01*
X11263891Y68691831D01*
X11034369Y68770862D01*
X10917184Y68791103D01*
X10799074Y68811504D01*
X10799068Y68811505D01*
X10795164Y68812179D01*
X10791203Y68812359D01*
X10791202Y68812359D01*
X10767494Y68813436D01*
X10767475Y68813436D01*
X10766075Y68813500D01*
X8182016Y68813500D01*
X8178498Y68813549D01*
X8083850Y68816193D01*
X8083847Y68816193D01*
X8078795Y68816334D01*
X8000902Y68805941D01*
X7994361Y68805242D01*
X7965668Y68802933D01*
X7921077Y68799346D01*
X7921073Y68799345D01*
X7916035Y68798940D01*
X7884122Y68791101D01*
X7870742Y68788574D01*
X7838180Y68784229D01*
X7833339Y68782768D01*
X7833337Y68782767D01*
X7762971Y68761522D01*
X7756610Y68759781D01*
X7680294Y68741037D01*
X7675634Y68739059D01*
X7650049Y68728199D01*
X7637239Y68723562D01*
X7605792Y68714067D01*
X7601244Y68711849D01*
X7601237Y68711846D01*
X7535182Y68679629D01*
X7529180Y68676893D01*
X7484496Y68657925D01*
X7456844Y68646188D01*
X7432532Y68630877D01*
X7429044Y68628681D01*
X7417140Y68622055D01*
X7387612Y68607654D01*
X7339972Y68574047D01*
X7323403Y68562359D01*
X7317914Y68558699D01*
X7255714Y68519529D01*
X7251433Y68516833D01*
X7247644Y68513492D01*
X7247638Y68513488D01*
X7226783Y68495102D01*
X7216088Y68486656D01*
X7189253Y68467726D01*
X7167750Y68448091D01*
X7128034Y68408375D01*
X7122264Y68402956D01*
X7073142Y68359650D01*
X7073139Y68359647D01*
X7069345Y68356302D01*
X7066135Y68352394D01*
X7066134Y68352393D01*
X7042821Y68324011D01*
X7034551Y68314892D01*
X4865064Y66145405D01*
X4802752Y66111379D01*
X4775969Y66108500D01*
X4704866Y66108500D01*
X4642684Y66101745D01*
X4506295Y66050615D01*
X4389739Y65963261D01*
X4302385Y65846705D01*
X4251255Y65710316D01*
X4244500Y65648134D01*
X4244500Y65439067D01*
X4235325Y65391867D01*
X4158845Y65202571D01*
X4157725Y65197641D01*
X4119048Y65027401D01*
X4105065Y64965856D01*
X4089822Y64723587D01*
X508500Y64723587D01*
X508500Y73527297D01*
X3224743Y73527297D01*
X3262268Y73242266D01*
X3338129Y72964964D01*
X3450923Y72700524D01*
X3598561Y72453839D01*
X3778313Y72229472D01*
X3986851Y72031577D01*
X4220317Y71863814D01*
X4224112Y71861805D01*
X4224113Y71861804D01*
X4245869Y71850285D01*
X4474392Y71729288D01*
X4744373Y71630489D01*
X5025264Y71569245D01*
X5053841Y71566996D01*
X5248282Y71551693D01*
X5248291Y71551693D01*
X5250739Y71551500D01*
X5406271Y71551500D01*
X5408407Y71551646D01*
X5408418Y71551646D01*
X5616548Y71565835D01*
X5616554Y71565836D01*
X5620825Y71566127D01*
X5625020Y71566996D01*
X5625022Y71566996D01*
X5761583Y71595276D01*
X5902342Y71624426D01*
X6173343Y71720393D01*
X6428812Y71852250D01*
X6432313Y71854711D01*
X6432317Y71854713D01*
X6546418Y71934905D01*
X6664023Y72017559D01*
X6874622Y72213260D01*
X7056713Y72435732D01*
X7206927Y72680858D01*
X7322483Y72944102D01*
X7401244Y73220594D01*
X7441751Y73505216D01*
X7441845Y73523049D01*
X7443235Y73788417D01*
X7443235Y73788424D01*
X7443257Y73792703D01*
X7405732Y74077734D01*
X7329871Y74355036D01*
X7217077Y74619476D01*
X7069439Y74866161D01*
X6889687Y75090528D01*
X6681149Y75288423D01*
X6447683Y75456186D01*
X6425843Y75467750D01*
X6402654Y75480028D01*
X6193608Y75590712D01*
X5923627Y75689511D01*
X5642736Y75750755D01*
X5611685Y75753199D01*
X5419718Y75768307D01*
X5419709Y75768307D01*
X5417261Y75768500D01*
X5261729Y75768500D01*
X5259593Y75768354D01*
X5259582Y75768354D01*
X5051452Y75754165D01*
X5051446Y75754164D01*
X5047175Y75753873D01*
X5042980Y75753004D01*
X5042978Y75753004D01*
X4906416Y75724723D01*
X4765658Y75695574D01*
X4494657Y75599607D01*
X4239188Y75467750D01*
X4235687Y75465289D01*
X4235683Y75465287D01*
X4225594Y75458196D01*
X4003977Y75302441D01*
X3793378Y75106740D01*
X3611287Y74884268D01*
X3461073Y74639142D01*
X3345517Y74375898D01*
X3266756Y74099406D01*
X3226249Y73814784D01*
X3226227Y73810495D01*
X3226226Y73810488D01*
X3224765Y73531583D01*
X3224743Y73527297D01*
X508500Y73527297D01*
X508500Y78105500D01*
X528502Y78173621D01*
X582158Y78220114D01*
X634500Y78231500D01*
X29085065Y78231500D01*
X29153186Y78211498D01*
G37*
%TD.AperFunction*%
%TD*%
M02*
