M48
; DRILL file {KiCad (6.0.8)} date Sat Aug 19 09:50:58 2023
; FORMAT={3:3/ absolute / metric / keep zeros}
; #@! TF.CreationDate,2023-08-19T09:50:58+09:00
; #@! TF.GenerationSoftware,Kicad,Pcbnew,(6.0.8)
; #@! TF.FileFunction,MixedPlating,1,2
FMAT,2
METRIC
; #@! TA.AperFunction,Plated,PTH,ComponentDrill
T1C0.800
; #@! TA.AperFunction,Plated,PTH,ComponentDrill
T2C1.000
; #@! TA.AperFunction,Plated,PTH,ComponentDrill
T3C1.100
; #@! TA.AperFunction,NonPlated,NPTH,ComponentDrill
T4C3.200
%
G90
G05
T1
X010658Y067305
X010658Y062225
X010658Y057145
X010658Y052065
X010658Y046985
X010658Y041905
X010658Y036825
X010658Y031745
X010658Y026665
X010658Y021585
X010658Y016505
X010658Y011425
X020818Y067305
X020818Y062225
X020818Y057145
X020818Y052065
X020818Y046985
X020818Y041905
X020818Y036825
X020818Y031745
X020818Y026665
X020818Y021585
X020818Y016505
X020818Y011425
X025908Y067310
X025908Y064770
X025908Y062230
X025908Y059690
X025908Y057145
X025908Y054605
X025908Y052070
X025908Y049530
X025908Y046990
X025908Y044450
X025908Y041910
X025908Y039370
X025908Y036830
X025908Y034290
X025908Y031750
X025908Y029210
X025908Y026670
X025908Y024130
X025908Y021590
X025908Y019050
X025908Y016510
X025908Y013970
X025908Y011430
X025908Y008890
X033528Y073660
X033528Y067310
X033528Y064770
X033528Y062230
X033528Y059690
X033528Y057145
X033528Y054605
X033528Y052070
X033528Y049530
X033528Y046990
X033528Y044450
X033528Y041910
X033528Y039370
X033528Y036830
X033528Y034290
X033528Y031750
X033528Y029210
X033528Y026670
X033528Y024130
X033528Y021590
X033528Y019050
X033528Y016510
X033528Y013970
X033528Y011430
X033528Y008890
X043688Y073660
X048260Y071120
X048260Y060960
X056336Y071628
X056682Y020574
X061336Y071628
X061682Y020574
T2
X005324Y049525
X005324Y046985
X005324Y044445
X005578Y019045
X005578Y016505
X005578Y013965
X005603Y064750
X005603Y062210
X005603Y059670
X005603Y034270
X005603Y031730
X005603Y029190
X043678Y064765
X043678Y062225
X043678Y059685
X043678Y057145
X043678Y054605
X043703Y049525
X043703Y046985
X043703Y044445
X043703Y041905
X043703Y039365
X043703Y034255
X043703Y031715
X043703Y029175
X043703Y026635
X043703Y024095
X043703Y019015
X043703Y016475
X043703Y013935
X043703Y011395
X043703Y008855
X056214Y061976
X056560Y030480
X061214Y061976
X061560Y030480
T3
X058420Y048768
X058420Y046228
X058420Y043688
T4
X005334Y073660
X005334Y005334
X068326Y005080
X068834Y073660
T0
M30
