M48
; DRILL file {KiCad (6.0.8)} date Wed Aug 16 21:35:33 2023
; FORMAT={3:3/ absolute / metric / keep zeros}
; #@! TF.CreationDate,2023-08-16T21:35:33+09:00
; #@! TF.GenerationSoftware,Kicad,Pcbnew,(6.0.8)
; #@! TF.FileFunction,MixedPlating,1,2
FMAT,2
METRIC
; #@! TA.AperFunction,Plated,PTH,ComponentDrill
T1C0.800
; #@! TA.AperFunction,Plated,PTH,ComponentDrill
T2C0.900
; #@! TA.AperFunction,Plated,PTH,ComponentDrill
T3C1.000
; #@! TA.AperFunction,Plated,PTH,ComponentDrill
T4C1.040
; #@! TA.AperFunction,NonPlated,NPTH,ComponentDrill
T5C3.200
%
G90
G05
T1
X014224Y083820
X014224Y076200
X014224Y068580
X014224Y060960
X014224Y053340
X014224Y045720
X014224Y038100
X014224Y030480
X014224Y022860
X024384Y083820
X024384Y076200
X024384Y068580
X024384Y060960
X024384Y053340
X024384Y045720
X024384Y038100
X024384Y030480
X024384Y022860
X045212Y048748
X045212Y041128
X055372Y048748
X055372Y041128
X086868Y085598
X097028Y085598
X120904Y089154
X120904Y075946
X120904Y063246
X120904Y050546
X120904Y037846
X120904Y025146
X120904Y012446
X131064Y089154
X131064Y075946
X131064Y063246
X131064Y050546
X131064Y037846
X131064Y025146
X131064Y012446
T2
X008377Y076200
X008377Y068580
X008377Y060960
X008377Y053340
X008382Y083820
X008382Y045720
X008382Y038100
X008382Y030480
X008382Y022860
X010917Y076200
X010917Y068580
X010917Y060960
X010917Y053340
X010922Y083820
X010922Y045720
X010922Y038100
X010922Y030480
X010922Y022860
X039370Y048748
X039370Y041128
X041910Y048748
X041910Y041128
X101092Y085598
X103632Y085598
X124465Y045212
X124714Y083058
X124714Y070612
X124714Y057912
X124714Y032512
X124714Y019812
X124719Y007112
X127005Y045212
X127254Y083058
X127254Y070612
X127254Y057912
X127254Y032512
X127254Y019812
X127259Y007112
T3
X028702Y075946
X028702Y073406
X028702Y070866
X028702Y053086
X028702Y050546
X028702Y048006
X029210Y026431
X029210Y023891
X029210Y021351
X050038Y084074
X052578Y084074
X060960Y095758
X060960Y087122
X060960Y084582
X060960Y044196
X060960Y041656
X063500Y087122
X063500Y084582
X066040Y087122
X066040Y084582
X068580Y087122
X068580Y084582
X071120Y087122
X071120Y084582
X073660Y087122
X073660Y084582
X076200Y087122
X076200Y084582
X078740Y087122
X078740Y084582
X081280Y087122
X081280Y084582
X083820Y095758
X083820Y087122
X083820Y084582
X115062Y083058
X115062Y070612
X115062Y045212
X115062Y032512
X115062Y019812
X115062Y007112
X115067Y057912
X117602Y083058
X117602Y070612
X117602Y045212
X117602Y032512
X117602Y019812
X117602Y007112
X117607Y057912
T4
X070866Y061924
X070866Y059384
X070866Y056844
X070866Y054304
X070866Y051764
X070866Y049224
X070866Y046684
X070866Y044144
X070866Y041604
X070866Y039064
X070866Y036524
X070866Y033984
X070866Y031444
X070866Y028904
X070866Y026364
X070866Y023824
X070866Y021284
X070866Y018744
X070866Y016204
X096266Y061924
X096266Y059384
X096266Y056844
X096266Y054304
X096266Y051764
X096266Y049224
X096266Y046684
X096266Y044144
X096266Y041604
X096266Y039064
X096266Y036524
X096266Y033984
X096266Y031444
X096266Y028904
X096266Y026364
X096266Y023824
X096266Y021284
X096266Y018744
X096266Y016204
T5
X009652Y091694
X009652Y005334
X138684Y091694
X138684Y005334
T0
M30
